<svg width="184" height="29" fill="none" xmlns="http://www.w3.org/2000/svg">
  <path d="M.96 6.325h1.992v16.61H.96V6.326Zm.996-3.245c-.386 0-.718-.128-.996-.385a1.418 1.418 0 0 1-.386-.996c0-.364.129-.686.386-.964a1.36 1.36 0 0 1 .996-.418c.364 0 .685.14.964.418.278.278.417.6.417.964 0 .385-.139.717-.417.996a1.38 1.38 0 0 1-.964.385ZM14.28 5.94c1.2 0 2.27.267 3.213.803a5.523 5.523 0 0 1 2.184 2.249c.536.942.804 2.035.804 3.277v10.667H18.49v-10.41c0-1.414-.418-2.56-1.253-3.438-.836-.878-1.917-1.317-3.245-1.317-.964 0-1.842.204-2.635.61-.792.407-1.413.964-1.863 1.671a4.123 4.123 0 0 0-.675 2.313v10.57H6.827V6.326H8.82v2.7c.45-.922 1.167-1.66 2.153-2.218.985-.578 2.088-.867 3.309-.867Zm8.464.385h2.217l5.943 14.073 5.848-14.073h2.217l-7.197 16.61h-1.767l-7.261-16.61ZM48.893 21.49a8.9 8.9 0 0 0 3.148-.578c1.028-.386 1.832-.89 2.41-1.51l1.253 1.349c-.707.75-1.703 1.37-2.988 1.863-1.285.472-2.549.707-3.791.707-1.457 0-2.828-.385-4.113-1.156a8.696 8.696 0 0 1-3.084-3.149c-.75-1.328-1.125-2.806-1.125-4.434 0-1.606.364-3.063 1.093-4.37.728-1.327 1.713-2.366 2.956-3.116a7.752 7.752 0 0 1 4.112-1.156c1.628 0 3.03.396 4.209 1.188 1.2.772 2.11 1.875 2.73 3.31.643 1.413.965 3.073.965 4.98h-14.04a7.415 7.415 0 0 0 .995 3.116 6.55 6.55 0 0 0 2.217 2.185c.921.514 1.939.77 3.053.77Zm-.065-13.72c-1.606 0-2.988.546-4.144 1.639-1.136 1.07-1.81 2.463-2.024 4.176h12.016c-.129-1.735-.707-3.138-1.735-4.209-1.028-1.07-2.4-1.606-4.113-1.606Zm15.714 15.55c-1.178 0-2.378-.214-3.599-.642a11.649 11.649 0 0 1-3.277-1.832l1.06-1.478c1.971 1.414 3.91 2.12 5.816 2.12 1.135 0 2.078-.256 2.827-.77.771-.536 1.157-1.2 1.157-1.992 0-.835-.364-1.489-1.093-1.96-.706-.493-1.81-.964-3.309-1.414-2.013-.578-3.448-1.22-4.305-1.927-.835-.729-1.253-1.671-1.253-2.828 0-.9.246-1.702.739-2.41.514-.706 1.2-1.252 2.056-1.638.878-.407 1.853-.61 2.924-.61a9.61 9.61 0 0 1 3.052.514 11.87 11.87 0 0 1 2.892 1.35l-.996 1.541c-1.714-1.05-3.363-1.574-4.948-1.574-1.05 0-1.938.246-2.667.739-.707.471-1.06 1.092-1.06 1.864 0 .728.321 1.317.964 1.766.664.429 1.853.922 3.566 1.478 1.178.365 2.142.74 2.892 1.125.77.386 1.381.889 1.831 1.51.471.6.707 1.36.707 2.281a4.07 4.07 0 0 1-.803 2.474c-.514.728-1.232 1.296-2.153 1.703-.9.407-1.906.61-3.02.61Zm17.071-1.06c-.428.343-.91.6-1.446.771a4.803 4.803 0 0 1-1.638.29c-1.114 0-2.035-.397-2.763-1.19-.729-.792-1.093-1.81-1.093-3.052V8.157h-2.699V6.325h2.7V1.763h1.991v4.562h4.177v1.832h-4.177V19.08c0 .707.193 1.285.578 1.735.386.45.857.675 1.414.675a2.83 2.83 0 0 0 1.06-.193c.343-.128.632-.3.868-.514l1.028 1.478Zm75.291 1.06c-.493 0-.91-.171-1.253-.514a1.704 1.704 0 0 1-.514-1.253c0-.45.171-.846.514-1.189.343-.342.76-.514 1.253-.514.471 0 .867.172 1.189.514.342.343.514.74.514 1.19 0 .492-.172.91-.514 1.252a1.567 1.567 0 0 1-1.189.514Zm13.931-17.38c1.435 0 2.731.375 3.888 1.124 1.178.728 2.099 1.757 2.763 3.085.664 1.306.996 2.795.996 4.465 0 1.671-.332 3.17-.996 4.498-.664 1.328-1.585 2.367-2.763 3.117-1.157.728-2.453 1.092-3.888 1.092-1.306 0-2.485-.3-3.534-.9-1.028-.62-1.863-1.488-2.506-2.602v8.643h-2.41V6.325h2.41v3.117c.643-1.114 1.478-1.97 2.506-2.57 1.049-.622 2.228-.932 3.534-.932Zm-.45 15.229c1.071 0 2.024-.279 2.86-.836.856-.557 1.52-1.328 1.992-2.313.471-1.007.707-2.142.707-3.406 0-1.263-.236-2.388-.707-3.373-.472-.985-1.136-1.756-1.992-2.313-.836-.557-1.789-.836-2.86-.836s-2.035.279-2.891.836c-.857.557-1.521 1.328-1.992 2.313-.471.985-.707 2.11-.707 3.373 0 1.264.236 2.4.707 3.406.471.985 1.135 1.756 1.992 2.313.856.557 1.82.836 2.891.836ZM181.524.478h2.41v22.458h-2.41V.478Z" fill="#031b4e"/>
  <path d="M91.77 5.94c1.435 0 2.71.289 3.823.867a6.097 6.097 0 0 1 2.57 2.474c.622 1.05.932 2.292.932 3.727v9.928h-4.53v-1.671c-.578.643-1.317 1.146-2.217 1.51a6.985 6.985 0 0 1-2.698.546c-1.178 0-2.239-.214-3.181-.642-.943-.45-1.692-1.071-2.25-1.864-.535-.814-.802-1.745-.802-2.795 0-1.07.3-2.024.9-2.86.62-.835 1.456-1.488 2.505-1.96 1.05-.47 2.206-.706 3.47-.706 1.435 0 2.86.29 4.273.867v-.353c0-.964-.321-1.756-.964-2.377-.642-.622-1.606-.932-2.891-.932-1.328 0-2.763.396-4.305 1.188L84.83 7.771c2.4-1.22 4.713-1.831 6.94-1.831Zm-1.06 14.136c.942 0 1.778-.203 2.506-.61.728-.428 1.178-1.018 1.35-1.767v-1.51c-1.093-.429-2.293-.643-3.6-.643-.856 0-1.584.225-2.184.675-.6.45-.9 1.007-.9 1.67 0 .665.268 1.2.804 1.607.535.386 1.21.578 2.024.578ZM102.523.478h4.691v22.458h-4.691V.478Zm16.242 19.213c.75 0 1.521-.15 2.313-.45.793-.3 1.457-.696 1.992-1.189l2.635 2.699c-.728.771-1.735 1.392-3.02 1.863-1.264.472-2.517.707-3.759.707-1.628 0-3.127-.375-4.498-1.124a8.461 8.461 0 0 1-3.213-3.117c-.793-1.328-1.189-2.827-1.189-4.498 0-1.649.375-3.127 1.125-4.433a8.443 8.443 0 0 1 3.116-3.085c1.328-.75 2.795-1.124 4.402-1.124 1.713 0 3.202.396 4.466 1.188 1.263.793 2.227 1.939 2.891 3.438.664 1.5.996 3.267.996 5.301h-12.53c.214 1.157.696 2.089 1.446 2.796.771.685 1.713 1.028 2.827 1.028Zm-.064-10.12c-1.028 0-1.917.32-2.667.963-.75.621-1.253 1.467-1.51 2.538h8c-.193-1.07-.621-1.917-1.285-2.538-.664-.642-1.51-.964-2.538-.964Zm15.491-.13c.557-1.092 1.328-1.948 2.314-2.57 1.006-.62 2.131-.931 3.373-.931v3.952c-1.735 0-3.116.46-4.145 1.381-1.028.921-1.542 2.163-1.542 3.727v7.936h-4.69V6.326h4.69v3.116Zm18.261 12.434a6.26 6.26 0 0 1-1.767 1.06 5.735 5.735 0 0 1-2.024.386c-1.478 0-2.688-.47-3.631-1.413-.921-.943-1.381-2.164-1.381-3.663v-8.129h-2.281v-3.79h2.281V1.762h4.53v4.562h3.598v3.792h-3.598v7.389c0 .535.15.985.45 1.35.3.342.674.513 1.124.513.322 0 .621-.042.9-.128.278-.107.503-.246.675-.418l1.124 3.052Z" fill="#0069ff"/>
</svg>
