<svg width="316" height="286" viewBox="0 0 316 286" fill="none" xmlns="http://www.w3.org/2000/svg">
<path d="M8.37402 285.499C8.37402 285.499 82.0173 161.482 116.714 173.751C151.41 186.021 140.785 244.067 173.356 234.149C205.928 224.232 217.262 216.44 233.541 242.65C249.833 268.846 258.935 284.938 285.893 285.74L8.37402 285.499Z" fill="#FFF1D4"/>
<path d="M315.31 30.0732H108.948V191.527H315.31V30.0732Z" fill="#E2E9FC"/>
<path d="M315.31 30.0728H108.948V22.7753C108.948 15.8521 114.562 10.252 121.472 10.252H302.773C309.696 10.252 315.296 15.8654 315.296 22.7753V30.0728H315.31Z" fill="#80CCAB"/>
<path d="M125.48 20.334C125.945 18.3657 124.726 16.3932 122.758 15.9285C120.789 15.4637 118.817 16.6825 118.352 18.6509C117.888 20.6192 119.106 22.5916 121.075 23.0564C123.043 23.5212 125.015 22.3023 125.48 20.334Z" fill="white"/>
<path d="M121.913 19.4734C121.071 19.4734 120.376 18.7917 120.376 17.9363V1.53702C120.376 0.695 121.058 0 121.913 0C122.755 0 123.45 0.681635 123.45 1.53702V17.9363C123.45 18.7917 122.755 19.4734 121.913 19.4734Z" fill="#252B61"/>
<path d="M149.102 22.8517C150.971 22.0777 151.858 19.9354 151.084 18.0668C150.31 16.1982 148.168 15.3108 146.299 16.0848C144.431 16.8589 143.543 19.0011 144.318 20.8698C145.092 22.7384 147.234 23.6257 149.102 22.8517Z" fill="white"/>
<path d="M147.694 19.4734C146.852 19.4734 146.157 18.7917 146.157 17.9363V1.53702C146.157 0.695 146.839 0 147.694 0C148.536 0 149.231 0.681635 149.231 1.53702V17.9363C149.218 18.7917 148.536 19.4734 147.694 19.4734Z" fill="#252B61"/>
<path d="M176.048 22.068C177.478 20.6379 177.478 18.3192 176.048 16.889C174.618 15.4589 172.299 15.4589 170.869 16.889C169.439 18.3192 169.439 20.6379 170.869 22.068C172.299 23.4981 174.618 23.4981 176.048 22.068Z" fill="white"/>
<path d="M173.464 19.4734C172.622 19.4734 171.927 18.7917 171.927 17.9363V1.53702C171.927 0.695 172.608 0 173.464 0C174.306 0 175.001 0.681635 175.001 1.53702V17.9363C175.001 18.7917 174.319 19.4734 173.464 19.4734Z" fill="#252B61"/>
<path d="M200.654 22.8527C202.523 22.0786 203.41 19.9364 202.636 18.0677C201.862 16.1991 199.72 15.3118 197.851 16.0858C195.983 16.8598 195.095 19.0021 195.869 20.8707C196.643 22.7393 198.786 23.6267 200.654 22.8527Z" fill="white"/>
<path d="M199.245 19.4734C198.403 19.4734 197.708 18.7917 197.708 17.9363V1.53702C197.708 0.695 198.39 0 199.245 0C200.087 0 200.782 0.681635 200.782 1.53702V17.9363C200.782 18.7917 200.087 19.4734 199.245 19.4734Z" fill="#252B61"/>
<path d="M226.435 22.8507C228.304 22.0767 229.191 19.9344 228.417 18.0658C227.643 16.1972 225.501 15.3098 223.632 16.0839C221.764 16.8579 220.876 19.0002 221.651 20.8688C222.425 22.7374 224.567 23.6247 226.435 22.8507Z" fill="white"/>
<path d="M225.026 19.4734C224.184 19.4734 223.489 18.7917 223.489 17.9363V1.53702C223.489 0.695 224.171 0 225.026 0C225.868 0 226.563 0.681635 226.563 1.53702V17.9363C226.55 18.7917 225.868 19.4734 225.026 19.4734Z" fill="#252B61"/>
<path d="M254.373 20.3457C254.838 18.3774 253.619 16.4049 251.65 15.9402C249.682 15.4754 247.71 16.6942 247.245 18.6626C246.78 20.6309 247.999 22.6033 249.967 23.0681C251.936 23.5329 253.908 22.314 254.373 20.3457Z" fill="white"/>
<path d="M250.796 19.4734C249.954 19.4734 249.259 18.7917 249.259 17.9363V1.53702C249.259 0.695 249.94 0 250.796 0C251.638 0 252.333 0.681635 252.333 1.53702V17.9363C252.333 18.7917 251.651 19.4734 250.796 19.4734Z" fill="#252B61"/>
<path d="M277.987 22.8507C279.856 22.0767 280.743 19.9344 279.969 18.0658C279.195 16.1972 277.053 15.3098 275.184 16.0839C273.316 16.8579 272.428 19.0002 273.202 20.8688C273.976 22.7374 276.119 23.6247 277.987 22.8507Z" fill="white"/>
<path d="M276.577 19.4734C275.735 19.4734 275.04 18.7917 275.04 17.9363V1.53702C275.04 0.695 275.722 0 276.577 0C277.419 0 278.114 0.681635 278.114 1.53702V17.9363C278.114 18.7917 277.419 19.4734 276.577 19.4734Z" fill="#252B61"/>
<path d="M304.94 22.0631C306.37 20.633 306.37 18.3143 304.94 16.8841C303.51 15.454 301.192 15.454 299.761 16.8841C298.331 18.3143 298.331 20.633 299.761 22.0631C301.191 23.4932 303.51 23.4932 304.94 22.0631Z" fill="white"/>
<path d="M302.359 19.4734C301.517 19.4734 300.822 18.7917 300.822 17.9363V1.53702C300.822 0.695 301.504 0 302.359 0C303.201 0 303.896 0.681635 303.896 1.53702V17.9363C303.883 18.7917 303.201 19.4734 302.359 19.4734Z" fill="#252B61"/>
<path d="M142.923 75.328H126.671C124.038 75.328 121.913 73.1896 121.913 70.5699V54.3176C121.913 51.6847 124.052 49.5596 126.671 49.5596H142.923C145.556 49.5596 147.682 51.698 147.682 54.3176V70.5699C147.695 73.1896 145.556 75.328 142.923 75.328Z" fill="white"/>
<path d="M177.941 75.328H161.689C159.056 75.328 156.931 73.1896 156.931 70.5699V54.3176C156.931 51.6847 159.069 49.5596 161.689 49.5596H177.941C180.574 49.5596 182.699 51.698 182.699 54.3176V70.5699C182.699 73.1896 180.561 75.328 177.941 75.328Z" fill="#FF6A3D"/>
<path d="M212.945 75.328H196.693C194.06 75.328 191.935 73.1896 191.935 70.5699V54.3176C191.935 51.6847 194.073 49.5596 196.693 49.5596H212.945C215.578 49.5596 217.703 51.698 217.703 54.3176V70.5699C217.703 73.1896 215.578 75.328 212.945 75.328Z" fill="#FF6A3D"/>
<path d="M247.949 75.328H231.697C229.064 75.328 226.938 73.1896 226.938 70.5699V54.3176C226.938 51.6847 229.077 49.5596 231.697 49.5596H247.949C250.582 49.5596 252.707 51.698 252.707 54.3176V70.5699C252.707 73.1896 250.582 75.328 247.949 75.328Z" fill="#FF6A3D"/>
<path d="M142.923 108.14H126.671C124.038 108.14 121.913 106.001 121.913 103.381V87.1292C121.913 84.4962 124.052 82.3711 126.671 82.3711H142.923C145.556 82.3711 147.682 84.5096 147.682 87.1292V103.381C147.695 106.001 145.556 108.14 142.923 108.14Z" fill="white"/>
<path d="M177.941 108.14H161.689C159.056 108.14 156.931 106.001 156.931 103.381V87.1292C156.931 84.4962 159.069 82.3711 161.689 82.3711H177.941C180.574 82.3711 182.699 84.5096 182.699 87.1292V103.381C182.699 106.001 180.561 108.14 177.941 108.14Z" fill="#FF6A3D"/>
<path d="M212.945 108.14H196.693C194.06 108.14 191.935 106.001 191.935 103.381V87.1292C191.935 84.4962 194.073 82.3711 196.693 82.3711H212.945C215.578 82.3711 217.703 84.5096 217.703 87.1292V103.381C217.703 106.001 215.578 108.14 212.945 108.14Z" fill="#FF6A3D"/>
<path d="M247.949 108.14H231.697C229.064 108.14 226.938 106.001 226.938 103.381V87.1292C226.938 84.4962 229.077 82.3711 231.697 82.3711H247.949C250.582 82.3711 252.707 84.5096 252.707 87.1292V103.381C252.707 106.001 250.582 108.14 247.949 108.14Z" fill="#FF6A3D"/>
<path d="M142.923 140.938H126.671C124.038 140.938 121.913 138.8 121.913 136.18V119.928C121.913 117.295 124.052 115.17 126.671 115.17H142.923C145.556 115.17 147.682 117.308 147.682 119.928V136.18C147.695 138.813 145.556 140.938 142.923 140.938Z" fill="white"/>
<path d="M177.941 140.938H161.689C159.056 140.938 156.931 138.8 156.931 136.18V119.928C156.931 117.295 159.069 115.17 161.689 115.17H177.941C180.574 115.17 182.699 117.308 182.699 119.928V136.18C182.699 138.813 180.561 140.938 177.941 140.938Z" fill="#FF6A3D"/>
<path d="M212.945 140.938H196.693C194.06 140.938 191.935 138.8 191.935 136.18V119.928C191.935 117.295 194.073 115.17 196.693 115.17H212.945C215.578 115.17 217.703 117.308 217.703 119.928V136.18C217.703 138.813 215.578 140.938 212.945 140.938Z" fill="#FF6A3D"/>
<path d="M247.949 140.938H231.697C229.064 140.938 226.938 138.8 226.938 136.18V119.928C226.938 117.295 229.077 115.17 231.697 115.17H247.949C250.582 115.17 252.707 117.308 252.707 119.928V136.18C252.707 138.813 250.582 140.938 247.949 140.938Z" fill="#FF6A3D"/>
<path d="M142.923 173.751H126.671C124.038 173.751 121.913 171.612 121.913 168.993V152.74C121.913 150.108 124.052 147.982 126.671 147.982H142.923C145.556 147.982 147.682 150.121 147.682 152.74V168.993C147.695 171.612 145.556 173.751 142.923 173.751Z" fill="white"/>
<path d="M177.941 173.751H161.689C159.056 173.751 156.931 171.612 156.931 168.993V152.74C156.931 150.108 159.069 147.982 161.689 147.982H177.941C180.574 147.982 182.699 150.121 182.699 152.74V168.993C182.699 171.612 180.561 173.751 177.941 173.751Z" fill="#FF6A3D"/>
<path d="M212.945 173.751H196.693C194.06 173.751 191.935 171.612 191.935 168.993V152.74C191.935 150.108 194.073 147.982 196.693 147.982H212.945C215.578 147.982 217.703 150.121 217.703 152.74V168.993C217.703 171.612 215.578 173.751 212.945 173.751Z" fill="#FF6A3D"/>
<path d="M247.949 173.751H231.697C229.064 173.751 226.938 171.612 226.938 168.993V152.74C226.938 150.108 229.077 147.982 231.697 147.982H247.949C250.582 147.982 252.707 150.121 252.707 152.74V168.993C252.707 171.612 250.582 173.751 247.949 173.751Z" fill="#FF6A3D"/>
<path d="M131.776 92.3814L140.116 87.8372L148.216 86.9551H161.02C161.996 86.9551 162.33 88.2515 161.474 88.7193C158.253 90.537 152.038 92.0339 151.116 91.8869C151.838 93.464 152.145 94.2125 150.755 95.8297C151.971 97.6207 149.766 99.6923 147.868 99.9596C145.035 100.361 135.171 103.007 135.171 103.007L131.776 92.3814Z" fill="#FBE9EF"/>
<path d="M66.1532 75.0332C66.1532 75.0332 74.6669 77.038 79.5185 86.9418L94.9689 111.641L132.285 91.2721L138.166 104.798C138.166 104.798 101.398 140.27 93.3651 140.256C84.2365 140.256 65.5918 117.776 65.5918 117.776L66.1532 75.0332Z" fill="#252B61"/>
<path d="M61.3018 266.064V273.656L61.5557 282.357L75.3488 282.143L75.7096 274.832L75.8834 266.158L61.3018 266.064Z" fill="#FBE9EF"/>
<path d="M61.542 282.371L61.2881 273.656V266.038H61.3014L75.8964 266.145V266.158L75.7093 274.832L75.3485 282.157H75.3351L61.542 282.371ZM61.3148 266.078V273.67L61.5688 282.357L75.3485 282.143L75.7093 274.846L75.8964 266.185L61.3148 266.078Z" fill="white"/>
<path d="M61.4217 285.725L91.0795 285.966C90.6251 283.64 89.8232 280.727 81.804 279.243L75.696 274.832C75.696 274.832 74.5332 278.227 70.1092 278.08C63.9879 277.866 61.2881 273.656 61.2881 273.656L61.4217 285.725Z" fill="#252B61"/>
<path d="M91.0929 285.993H91.0795L61.4084 285.752V285.739L61.2881 273.63L61.3148 273.67C61.3282 273.683 62.0098 274.726 63.4265 275.795C64.7364 276.771 66.9684 277.974 70.1226 278.081C72.4081 278.161 73.7981 277.279 74.5733 276.517C75.4019 275.702 75.7093 274.846 75.7093 274.846V274.833L75.7227 274.846L81.8173 279.257C85.3992 279.925 87.8451 280.914 89.2886 282.304C90.5182 283.48 90.8523 284.777 91.0929 285.993ZM61.4351 285.726L91.0662 285.966C90.8256 284.75 90.4915 283.48 89.2752 282.304C87.8317 280.914 85.3859 279.925 81.8039 279.257L75.7093 274.86C75.6692 274.98 75.3485 275.768 74.5733 276.53C74.0788 277.011 73.504 277.386 72.8491 277.653C72.0339 277.987 71.1116 278.134 70.1092 278.094C68.7059 278.04 67.3693 277.787 66.1397 277.319C65.1507 276.945 64.2285 276.437 63.3864 275.808C62.1034 274.846 61.4217 273.897 61.2881 273.71L61.4351 285.726Z" fill="white"/>
<path d="M42.6299 142.97L58.5881 268.925L79.2644 269.072L77.7675 136.875L42.6299 142.97Z" fill="#FF6A3D"/>
<path d="M31.5498 265.932V273.43L31.8038 282.13L45.6102 281.917L45.9577 274.606L46.1448 266.039L31.5498 265.932Z" fill="#FBE9EF"/>
<path d="M31.6698 285.498L61.3276 285.738C60.8731 283.413 60.0712 280.499 52.052 279.015L45.944 274.605C45.944 274.605 44.7812 278 40.3573 277.853C34.2359 277.639 31.5361 273.429 31.5361 273.429L31.6698 285.498Z" fill="#252B61"/>
<path d="M32.5248 146.792C32.5248 146.792 32.0838 153.568 33.4604 162.296C33.5273 170.556 27.6465 268.845 27.6465 268.845L50.381 269.005L69.9479 138.492L32.5248 146.792Z" fill="#FF6A3D"/>
<path d="M38.8338 262.376C38.7002 262.376 38.5932 262.256 38.6066 262.136L43.485 145.429C43.485 145.296 43.5919 145.202 43.7255 145.202C43.8592 145.202 43.9528 145.322 43.9528 145.443L39.0744 262.149C39.061 262.283 38.9541 262.376 38.8338 262.376Z" fill="white"/>
<path d="M51.1695 262.375H27.6598C27.5262 262.375 27.4326 262.268 27.4326 262.148C27.4326 262.028 27.5396 261.921 27.6598 261.921H51.1695C51.3032 261.921 51.3968 262.028 51.3968 262.148C51.3968 262.268 51.2898 262.375 51.1695 262.375Z" fill="white"/>
<path d="M79.2643 262.375H55.7545C55.6209 262.375 55.5273 262.268 55.5273 262.148C55.5273 262.028 55.6343 261.921 55.7545 261.921H79.2643C79.3979 261.921 79.4915 262.028 79.4915 262.148C79.4915 262.268 79.3979 262.375 79.2643 262.375Z" fill="white"/>
<path d="M78.6761 143.745C78.6761 143.745 73.918 147.086 58.2538 147.046C40.705 147.006 32.5254 142.916 32.5254 142.916L38.9942 93.451C38.0988 83.1196 46.7194 72.855 56.1153 72.8817C70.7771 72.4139 74.0917 84.1621 74.6665 92.9966L78.6761 143.745Z" fill="white"/>
<path d="M63.3994 58.1804C64.0275 58.7952 64.482 60.8133 63.7469 65.6783C63.3192 68.592 61.0872 70.5433 57.1444 70.5567C52.4799 70.5834 50.181 68.338 49.9672 64.3151C48.1628 64.4353 45.6769 62.6979 47.1872 59.9847C48.5103 57.6324 50.1543 60.3723 50.1543 60.3723L50.3815 56.0018C51.9052 54.2376 61.8356 51.364 63.3994 58.1804Z" fill="#FBE9EF"/>
<path d="M50.3679 57.846C50.3679 57.846 51.2633 57.7124 52.092 55.6674C53.6557 58.1267 58.1599 61.027 62.5036 60.6394C67.1013 60.225 71.9396 55.8145 71.0708 51.5509C70.0952 46.726 67.529 47.9155 60.5122 44.494C54.7517 41.6873 51.0762 47.8754 51.0762 47.8754C47.7616 46.7928 44.046 51.3371 45.5162 54.4111C45.984 55.6808 47.3206 57.5921 48.3764 59.0355C49.1383 60.0914 49.3655 61.2542 50.1941 61.7754L50.3679 57.846Z" fill="#B55100"/>
<path d="M49.6602 63.3525C49.5934 63.3525 49.5132 63.3257 49.4731 63.2589L47.8425 61.0402C47.7623 60.9333 47.7891 60.7863 47.896 60.7195C48.0029 60.6393 48.1499 60.666 48.2168 60.7729L49.8473 62.9916C49.9275 63.0985 49.9008 63.2455 49.7939 63.3124C49.7538 63.3391 49.7003 63.3525 49.6602 63.3525Z" fill="#E66D92"/>
<path d="M61.5684 72.8682L61.9025 83.0793L66.861 85.5252L65.2171 74.178L61.5684 72.8682Z" fill="#252B61"/>
<path d="M61.9027 83.0791L53.9904 73.4561L49.5664 75.0599L59.5637 87.9308L61.9027 83.0791Z" fill="#252B61"/>
<path d="M51.7844 55.801C51.6775 55.801 51.5706 55.7475 51.5038 55.6539C51.4102 55.5069 49.3118 52.1121 50.7553 47.7817C50.8088 47.608 50.9959 47.5144 51.1696 47.5812C51.3434 47.6347 51.4369 47.8218 51.3701 47.9956C50.0202 52.0319 52.025 55.2797 52.0518 55.3064C52.1453 55.4535 52.1052 55.6673 51.9448 55.7609C51.9047 55.7876 51.8379 55.801 51.7844 55.801Z" fill="#542502"/>
<path d="M46.4385 269.246H31.5495C31.4158 269.246 31.3223 269.139 31.3223 269.019C31.3223 268.899 31.4292 268.792 31.5495 268.792H46.4385C46.5722 268.792 46.6657 268.899 46.6657 269.019C46.6657 269.139 46.5722 269.246 46.4385 269.246Z" fill="#E66D92"/>
<path d="M68.6241 262.375C68.5038 262.375 68.3969 262.282 68.3969 262.148L65.3496 167.668C65.3496 167.535 65.4432 167.428 65.5768 167.428C65.7105 167.428 65.8174 167.521 65.8174 167.655L68.8647 262.135C68.8647 262.268 68.7578 262.375 68.6241 262.375Z" fill="white"/>
<path d="M75.9221 269.179H61.3405C61.2068 269.179 61.1133 269.072 61.1133 268.952C61.1133 268.818 61.2202 268.725 61.3405 268.725H75.9221C76.0558 268.725 76.1493 268.832 76.1493 268.952C76.1493 269.072 76.0558 269.179 75.9221 269.179Z" fill="#E66D92"/>
<path d="M47.4412 75.6221C47.4412 75.6221 58.1736 83.2403 58.5879 97.127L60.9536 154.478C60.9536 154.478 45.2894 156.309 32.5254 150.401C32.5254 150.415 31.0686 87.9583 47.4412 75.6221Z" fill="#252B61"/>
<path d="M66.1523 75.0596C66.1523 75.0596 71.1644 83.0788 72.3138 102.111L72.6613 155.319L79.7048 152.499L77.1253 94.68C77.1253 94.68 77.5129 76.8906 66.1523 75.0596Z" fill="#252B61"/>
<path d="M78.0611 131.435C77.9408 131.435 77.8339 131.341 77.8339 131.221L75.9494 97.5669C75.936 97.4332 76.0429 97.3263 76.1632 97.3263C76.2969 97.313 76.4038 97.4199 76.4038 97.5402L78.2883 131.194C78.3017 131.314 78.2081 131.421 78.0611 131.435C78.0745 131.435 78.0745 131.435 78.0611 131.435Z" fill="#252B61"/>
<path d="M60.0312 86.9551L61.9024 83.0791L66.1526 85.1775L65.5779 88.5055L61.9024 89.4678L60.0312 86.9551Z" fill="#FF6A3D"/>
<path d="M65.5778 88.5059L71.1512 111.575L68.7855 118.738L63.0919 112.617L61.9023 89.4682L65.5778 88.5059Z" fill="#FF6A3D"/>
<path d="M61.902 89.6963C61.795 89.6963 61.7015 89.6295 61.6748 89.5225C61.648 89.4023 61.7148 89.2686 61.8485 89.2419L65.524 88.2929C65.6443 88.2662 65.7779 88.333 65.8046 88.4667C65.8314 88.587 65.7646 88.7206 65.6309 88.7473L61.9554 89.6963C61.9421 89.6963 61.9153 89.6963 61.902 89.6963Z" fill="#252B61"/>
<path d="M90.5442 113.833C90.4506 113.833 90.3704 113.78 90.3303 113.699C90.2768 113.579 90.3303 113.445 90.4506 113.392L94.8745 111.441C94.9948 111.387 95.1285 111.441 95.1819 111.561C95.2354 111.681 95.1819 111.815 95.0616 111.868L90.6377 113.82C90.5976 113.82 90.5709 113.833 90.5442 113.833Z" fill="#252B61"/>
<path d="M134.196 108.807C134.116 108.807 134.022 108.767 133.982 108.673L126.698 94.3189C126.645 94.1986 126.685 94.065 126.805 94.0115C126.925 93.9581 127.059 93.9982 127.112 94.1184L134.396 108.473C134.45 108.593 134.41 108.727 134.29 108.78C134.263 108.794 134.223 108.807 134.196 108.807Z" fill="white"/>
<path d="M53.9902 73.4561L61.8892 83.0792L61.555 72.868C61.5684 72.868 57.2915 72.2532 53.9902 73.4561Z" fill="#FBE9EF"/>
<path d="M149.753 95.91C149.739 95.91 149.739 95.91 149.726 95.91C149.539 95.8833 144.995 95.3888 143.698 94.373C143.11 93.9186 142.896 93.2503 143.097 92.5954C143.271 92.0474 143.698 91.6732 144.153 91.6465H150.715C150.822 91.6465 150.902 91.7267 150.902 91.8336C150.902 91.9405 150.822 92.0207 150.715 92.0207H144.166C143.872 92.0341 143.578 92.3147 143.458 92.7023C143.297 93.2102 143.471 93.7181 143.925 94.079C145.142 95.0279 149.713 95.5358 149.766 95.5358C149.873 95.5492 149.94 95.6427 149.926 95.7363C149.926 95.8298 149.846 95.91 149.753 95.91Z" fill="#E66D92"/>
<path d="M149.366 98.8511C149.352 98.8511 149.339 98.8511 149.326 98.8511C148.657 98.6907 142.817 97.3007 142.322 96.0978C142.255 95.9375 142.269 95.7637 142.362 95.6167C143.191 94.347 145.303 94.7747 145.396 94.8014C145.503 94.8281 145.556 94.9217 145.543 95.0286C145.516 95.1355 145.423 95.189 145.316 95.1756C145.303 95.1756 143.365 94.7747 142.683 95.8305C142.656 95.8706 142.656 95.9107 142.67 95.9642C142.977 96.7394 146.973 97.9289 149.406 98.5036C149.513 98.5303 149.566 98.6239 149.539 98.7308C149.539 98.7977 149.459 98.8511 149.366 98.8511Z" fill="#E66D92"/>
<path d="M72.3275 105.239C72.3141 105.239 72.3007 105.239 72.2874 105.239C72.1671 105.212 72.0735 105.092 72.1003 104.972L74.8134 90.0424L72.3141 87.209C72.2473 87.1288 72.2339 87.0219 72.2874 86.9283L74.7733 83.0791L71.726 78.0136C71.6592 77.9067 71.6993 77.7597 71.8062 77.6928C71.9131 77.626 72.0602 77.6661 72.127 77.773L75.2545 82.9588C75.2946 83.039 75.2946 83.1325 75.2545 83.2127L72.7819 87.0352L75.2411 89.8286C75.2946 89.882 75.3079 89.9489 75.2946 90.0291L72.5681 105.079C72.5413 105.159 72.4344 105.239 72.3275 105.239Z" fill="white"/>
<path d="M44.2202 192.235C43.4183 192.235 42.7768 191.58 42.7768 190.791V187.049C42.7768 185.245 41.32 183.788 39.5156 183.788H20.2828C18.4785 183.788 17.0217 185.245 17.0217 187.049V190.791C17.0217 191.593 16.3668 192.235 15.5782 192.235C14.7897 192.235 14.1348 191.58 14.1348 190.791V187.049C14.1348 183.654 16.9014 180.888 20.2962 180.888H39.529C42.9238 180.888 45.6904 183.654 45.6904 187.049V190.791C45.6771 191.58 45.0222 192.235 44.2202 192.235Z" fill="#252B61"/>
<path d="M59.0296 189.468H0.783203V229.123H59.0296V189.468Z" fill="#252B61"/>
<path d="M51.2242 204.344H8.57523C4.27157 204.344 0.783203 200.855 0.783203 196.552V189.481H59.0296V196.552C59.0162 200.855 55.5278 204.344 51.2242 204.344Z" fill="#56658F"/>
<path d="M36.6556 207.671H23.1566C22.1542 207.671 21.3389 206.856 21.3389 205.854V202.058C21.3389 201.056 22.1542 200.24 23.1566 200.24H36.6556C37.658 200.24 38.4733 201.056 38.4733 202.058V205.854C38.4599 206.856 37.6446 207.671 36.6556 207.671Z" fill="#FF6A3D"/>
<path d="M38.4586 204.584H21.3376C21.2039 204.584 21.1104 204.477 21.1104 204.357C21.1104 204.237 21.2173 204.13 21.3376 204.13H38.4586C38.5923 204.13 38.6858 204.237 38.6858 204.357C38.6858 204.477 38.5923 204.584 38.4586 204.584Z" fill="white"/>
<path d="M35.2389 151.791C35.2389 151.791 33.3544 159.49 34.0494 162.417C34.6776 165.09 39.0347 173.496 39.8901 177.787C40.6653 180.353 37.5111 179.498 34.9449 176.397C34.0494 177.225 34.691 184.256 36.1745 189C37.6447 193.732 36.8428 194.534 35.4528 193.718C34.0628 192.903 33.3277 191.54 33.3277 191.54C33.3277 191.54 32.6594 193.397 30.4942 191.125C30.4942 191.125 28.9305 191.981 27.4603 189.455C25.9901 186.929 23.8249 181.342 22.3815 169.955C20.938 158.567 21.0583 150.321 21.4726 150.428C21.8736 150.508 35.2389 151.791 35.2389 151.791Z" fill="#FBE9EF"/>
<path d="M46.2379 76.6504C43.3108 76.6504 28.8762 80.6065 21.5386 110.799C21.2045 112.149 20.9639 113.525 20.8971 114.929L18.8789 161.173L36.8286 165.236L39.3547 120.181C39.3681 120.168 58.7211 79.2032 46.2379 76.6504Z" fill="#252B61"/>
<path d="M37.2969 153.476H37.2835C37.1498 153.462 37.0563 153.355 37.0696 153.222L39.1413 120.156C39.1413 120.116 39.1546 120.089 39.168 120.062C39.2616 119.902 48.2164 103.302 49.0985 97.996C49.1252 97.8623 49.2455 97.7821 49.3658 97.8088C49.4994 97.8356 49.5796 97.9559 49.5529 98.0761C48.6708 103.369 40.2239 119.073 39.5957 120.236L37.5374 153.248C37.5241 153.382 37.4171 153.476 37.2969 153.476Z" fill="#252B61"/>
<path d="M37.0966 158.848C37.0832 158.848 37.0698 158.848 37.0564 158.848L19.1068 155.507C18.9865 155.48 18.8929 155.36 18.9196 155.24C18.9464 155.119 19.0667 155.026 19.1869 155.052L37.1366 158.394C37.2569 158.421 37.3505 158.541 37.3238 158.661C37.297 158.768 37.2035 158.848 37.0966 158.848Z" fill="white"/>
<path d="M30.4798 191.298C30.413 191.298 30.3462 191.258 30.3061 191.191C30.1724 190.91 27.1251 184.214 27.0449 180.926C27.0449 180.819 27.1251 180.739 27.232 180.739C27.339 180.739 27.4192 180.819 27.4192 180.926C27.4994 184.147 30.6135 190.977 30.6402 191.044C30.6803 191.138 30.6402 191.244 30.5467 191.298C30.5333 191.298 30.5066 191.298 30.4798 191.298Z" fill="#E66D92"/>
<path d="M33.3146 191.713C33.2344 191.713 33.1676 191.66 33.1408 191.593C33.0205 191.245 30.2539 183.079 30.147 182.063C30.1336 181.956 30.2138 181.863 30.3073 181.863C30.4143 181.849 30.5078 181.93 30.5078 182.023C30.588 182.812 32.4993 188.545 33.4883 191.472C33.515 191.566 33.4749 191.673 33.368 191.713C33.3547 191.713 33.3279 191.713 33.3146 191.713Z" fill="#E66D92"/>
<path d="M59.0149 107.885C58.9347 107.885 58.8545 107.845 58.8144 107.765L50.2205 92.8226C50.167 92.7424 50.1804 92.6355 50.2472 92.5553L53.6286 88.5858L43.6046 83.2798C43.4977 83.2263 43.4576 83.0926 43.4977 82.9857L46.0237 76.557C46.0772 76.4367 46.2108 76.3832 46.3311 76.4233C46.4514 76.4768 46.5049 76.6104 46.4648 76.7307L44.0189 82.9724L54.1098 88.3052C54.1766 88.3319 54.2167 88.3987 54.2301 88.4655C54.2434 88.5324 54.2301 88.6125 54.1766 88.666L50.715 92.7425L59.2287 107.551C59.2956 107.658 59.2555 107.805 59.1485 107.872C59.0951 107.872 59.055 107.885 59.0149 107.885Z" fill="white"/>
<path d="M34.6504 181.314C34.5702 181.314 34.49 181.247 34.4633 181.167C34.3698 180.726 33.5812 176.837 34.8509 176.222C34.9311 176.182 35.0247 176.208 35.0781 176.275C35.1049 176.315 37.6176 179.724 39.7961 178.654C39.7159 178.106 39.315 175.781 37.9918 172.64C36.4681 169.005 34.7173 164.888 34.7039 164.848C34.6638 164.754 34.7039 164.647 34.7975 164.607C34.891 164.567 34.9979 164.607 35.038 164.701C35.0514 164.741 36.8023 168.857 38.3259 172.493C39.8629 176.155 40.1703 178.708 40.1837 178.734C40.1971 178.815 40.157 178.882 40.0902 178.922C37.8581 180.191 35.439 177.345 34.891 176.65C34.2896 177.238 34.5168 179.63 34.8376 181.1C34.8643 181.207 34.7975 181.301 34.6905 181.327C34.6772 181.314 34.6638 181.314 34.6504 181.314Z" fill="#E66D92"/>
<path d="M293.256 173.751H278.555C275.44 173.751 272.928 171.225 272.928 168.124V55.1864C272.928 52.0723 275.454 49.5596 278.555 49.5596H293.256C296.371 49.5596 298.883 52.0856 298.883 55.1864V168.124C298.883 171.225 296.357 173.751 293.256 173.751Z" fill="white"/>
<path d="M306.008 285.819H0.78267C0.595555 285.819 0.461914 285.672 0.461914 285.498C0.461914 285.311 0.60892 285.178 0.78267 285.178H306.021C306.208 285.178 306.342 285.325 306.342 285.498C306.342 285.672 306.195 285.819 306.008 285.819Z" fill="#E2E9FC"/>
<path d="M315.31 34.7503H108.949C108.815 34.7503 108.722 34.6434 108.722 34.5231C108.722 34.3895 108.829 34.2959 108.949 34.2959H315.31C315.444 34.2959 315.538 34.4028 315.538 34.5231C315.551 34.6434 315.444 34.7503 315.31 34.7503Z" fill="white"/>
<path d="M265.835 127.768L236.649 123.047L231.928 152.233L261.114 156.954L265.835 127.768Z" fill="white"/>
<path d="M191.654 98.2891H162.09V127.853H191.654V98.2891Z" fill="white"/>
<g opacity="0.4">
<path d="M248.846 122.519L245.895 119.081L230.826 132.018L233.777 135.456L248.846 122.519Z" fill="#252B61"/>
</g>
<g opacity="0.4">
<path d="M174.949 96.6339L171.998 93.1963L156.93 106.134L159.881 109.571L174.949 96.6339Z" fill="#252B61"/>
</g>
<g opacity="0.4">
<path d="M197.168 120.488L194.217 117.051L179.148 129.988L182.1 133.426L197.168 120.488Z" fill="#252B61"/>
</g>
<path d="M315.31 186.247H108.949C108.815 186.247 108.722 186.14 108.722 186.02C108.722 185.887 108.829 185.793 108.949 185.793H315.31C315.444 185.793 315.538 185.9 315.538 186.02C315.551 186.14 315.444 186.247 315.31 186.247Z" fill="white"/>
<path d="M280.056 245.97C286.643 239.383 286.643 228.703 280.056 222.116C273.469 215.529 262.789 215.529 256.202 222.116C249.615 228.703 249.615 239.383 256.202 245.97C262.789 252.557 273.469 252.557 280.056 245.97Z" fill="#FFF1D4"/>
<path d="M182.285 122.347C181.737 122.347 181.376 122.08 181.135 121.812C180.521 121.117 180.227 119.687 180.347 117.91C180.36 117.749 180.374 117.602 180.387 117.442C180.333 117.482 180.267 117.522 180.213 117.562C178.676 118.658 176.578 119.808 175.241 119.754C174.172 119.714 173.464 119.327 173.13 118.605C172.435 117.108 173.557 114.542 174.987 112.59C174.626 112.39 174.279 112.136 173.931 111.815C173.664 111.575 173.424 111.307 173.223 111.013C170.416 113.018 167.155 114.582 166.928 114.689C166.808 114.742 166.674 114.689 166.621 114.582C166.567 114.462 166.621 114.328 166.728 114.274C166.781 114.248 170.136 112.644 172.969 110.626C172.314 109.436 172.207 107.966 172.715 106.496C173.236 104.972 174.319 103.863 175.348 103.796C175.843 103.756 176.551 103.943 177.086 104.999C177.366 105.533 177.393 106.148 177.179 106.79C176.725 108.113 175.281 109.503 173.597 110.746C173.784 111.013 173.998 111.254 174.239 111.481C174.586 111.802 174.934 112.042 175.255 112.23C175.281 112.189 175.308 112.149 175.348 112.123C176.738 110.385 178.142 109.463 179.09 109.663C179.919 109.837 180.12 110.358 180.16 110.652C180.267 111.387 179.652 112.283 178.703 112.777C177.687 113.312 176.524 113.312 175.402 112.818C173.998 114.715 172.956 117.135 173.557 118.418C173.811 118.979 174.386 119.273 175.268 119.3C176.27 119.327 178.101 118.498 179.959 117.188C180.133 117.054 180.307 116.934 180.48 116.8C180.654 115.598 181.002 114.502 181.416 113.78C181.924 112.925 182.432 112.831 182.766 112.911C183.327 113.045 183.621 113.392 183.555 113.887C183.434 114.782 182.205 116.025 180.895 117.041C180.654 118.819 180.801 120.703 181.483 121.492C181.857 121.919 182.352 121.973 183.007 121.692C183.127 121.639 183.26 121.692 183.314 121.812C183.367 121.933 183.314 122.066 183.194 122.12C182.846 122.28 182.539 122.347 182.285 122.347ZM182.552 113.352C182.245 113.352 181.977 113.7 181.79 114.02C181.443 114.609 181.162 115.451 180.988 116.359C182.191 115.357 182.993 114.408 183.073 113.833C183.1 113.66 183.06 113.459 182.646 113.366C182.619 113.366 182.592 113.352 182.552 113.352ZM175.682 112.43C176.979 112.978 178.008 112.59 178.476 112.35C179.237 111.949 179.759 111.24 179.692 110.706C179.638 110.332 179.278 110.171 178.984 110.104C178.235 109.944 176.952 110.84 175.709 112.403C175.696 112.417 175.682 112.417 175.682 112.43ZM175.442 104.25C175.415 104.25 175.388 104.25 175.362 104.25C174.533 104.304 173.597 105.32 173.143 106.643C172.688 107.966 172.769 109.262 173.33 110.345C174.934 109.155 176.297 107.846 176.711 106.643C176.885 106.108 176.872 105.64 176.645 105.213C176.431 104.772 176.043 104.25 175.442 104.25Z" fill="#252B61"/>
<path d="M255.019 148.677C254.297 148.677 253.749 148.437 253.375 148.17C252.172 147.328 251.571 145.603 251.41 143.826C250.649 144.374 249.833 144.895 248.991 145.376C246.853 146.606 245.583 146.111 244.902 145.483C244.3 144.922 243.913 144.053 243.725 143.024C241.707 145.002 239.996 146.512 239.983 146.526C239.89 146.606 239.743 146.606 239.649 146.499C239.569 146.405 239.569 146.258 239.676 146.165C240.651 145.309 242.122 143.959 243.645 142.449C243.391 140.297 243.846 137.624 244.795 135.619C245.85 133.374 247.321 132.265 248.911 132.492C249.7 132.599 250.181 132.933 250.341 133.494C250.742 134.831 249.112 137.437 245.476 141.246C245.022 141.714 244.567 142.182 244.126 142.623C244.287 143.692 244.634 144.601 245.222 145.136C246.051 145.897 247.241 145.844 248.764 144.962C249.686 144.427 250.568 143.866 251.384 143.264C251.357 142.716 251.384 142.169 251.437 141.647C251.718 138.974 252.881 136.903 254.471 136.234C256.195 135.513 256.757 136.02 256.944 136.395C257.318 137.156 256.73 138.6 255.353 140.244C254.431 141.367 253.228 142.476 251.852 143.505C251.958 145.443 252.613 147.074 253.643 147.795C254.471 148.37 255.5 148.37 256.717 147.782C256.837 147.729 256.97 147.769 257.024 147.889C257.077 148.009 257.037 148.143 256.917 148.196C256.182 148.544 255.554 148.677 255.019 148.677ZM255.941 136.314C255.621 136.314 255.18 136.421 254.645 136.649C253.215 137.25 252.159 139.188 251.892 141.687C251.852 142.102 251.825 142.516 251.825 142.917C253.068 141.968 254.137 140.939 254.992 139.923C256.369 138.266 256.757 137.05 256.516 136.582C256.423 136.408 256.235 136.314 255.941 136.314ZM248.51 132.933C246.826 132.933 245.73 134.711 245.209 135.82C244.367 137.611 243.913 140.03 244.06 142.021C247.174 138.867 250.341 135.152 249.887 133.615C249.78 133.24 249.432 133.027 248.844 132.946C248.724 132.933 248.617 132.933 248.51 132.933Z" fill="#252B61"/>
</svg>
