<svg width="310" height="309" viewBox="0 0 310 309" fill="none" xmlns="http://www.w3.org/2000/svg">
<g clip-path="url(#clip0_6627_28099)">
<path d="M154.658 308.333C150.364 253.244 133.227 170.876 133.227 170.876H64.6914C64.6914 170.876 80.4935 255.858 90.198 308.333H154.658Z" fill="white"/>
<path d="M154.132 302.438C153.977 302.438 153.843 302.321 153.826 302.163C153.464 298.929 153.115 295.714 152.767 292.504C151.741 283.044 150.681 273.261 149.293 263.318C145.053 234.543 140.489 208.206 134.496 177.927C134.306 177.168 134.142 176.389 133.983 175.635C133.642 174.02 133.319 172.491 132.743 171.084C109.511 171.084 87.5571 171.084 64.6927 171.184C64.5216 171.184 64.3837 171.047 64.3828 170.877C64.3822 170.706 64.5197 170.568 64.6899 170.567C87.6231 170.467 109.639 170.467 132.948 170.467C133.072 170.467 133.183 170.541 133.232 170.654C133.881 172.168 134.223 173.79 134.586 175.508C134.744 176.256 134.907 177.03 135.098 177.792C141.096 208.097 145.661 234.442 149.904 263.23C151.293 273.185 152.354 282.972 153.38 292.437C153.728 295.647 154.076 298.861 154.438 302.095C154.457 302.264 154.336 302.417 154.166 302.436C154.155 302.437 154.143 302.438 154.132 302.438Z" fill="#100F0D"/>
<path d="M115.734 308.333C120.447 253.106 121.462 176.563 121.462 176.563L65.4489 178.078C65.4489 178.078 54.4541 200.59 50.4621 235.559C47.5554 261.02 49.4939 286.278 51.0593 308.333H115.734Z" fill="white"/>
<path d="M116.131 302.29C116.121 302.29 116.112 302.289 116.102 302.289C115.932 302.273 115.808 302.122 115.824 301.953C116.851 290.991 117.464 279.647 118.057 268.676C118.271 264.703 118.493 260.594 118.731 256.589C118.741 256.419 118.889 256.286 119.057 256.299C119.227 256.31 119.357 256.455 119.346 256.625C119.109 260.629 118.887 264.737 118.672 268.71C118.079 279.686 117.466 291.036 116.438 302.01C116.422 302.17 116.288 302.29 116.131 302.29Z" fill="#100F0D"/>
<path d="M50.4732 302.282C50.3166 302.282 50.1825 302.164 50.1667 302.004C46.5263 265.453 48.3917 233.402 55.8688 204.03C55.8885 203.796 56.0531 203.549 56.2267 203.289C56.3192 203.15 56.4737 202.919 56.4836 202.838C56.4836 202.813 56.4867 202.793 56.4925 202.768C58.7763 193.634 62.1587 185.101 65.1665 177.959C65.2322 177.802 65.4129 177.728 65.5701 177.794C65.7271 177.861 65.8008 178.041 65.7345 178.198C62.7393 185.311 59.3717 193.805 57.0981 202.889C57.0787 203.123 56.9137 203.37 56.7401 203.631C56.6476 203.769 56.4931 204.001 56.4833 204.082C56.4833 204.107 56.4802 204.127 56.474 204.152C49.008 233.463 47.1457 265.451 50.7803 301.943C50.7973 302.113 50.6736 302.264 50.5041 302.281C50.4939 302.282 50.4834 302.282 50.4732 302.282Z" fill="#100F0D"/>
<path d="M219.758 156.168C223.89 153.936 224.706 152.295 230.258 145.599C233.729 141.413 244.567 136.347 249.195 139.739C251.166 141.183 241.456 144.65 240.534 148.916C239.934 151.686 247.144 149.061 250.658 144.917C254.239 140.693 261.138 135.726 263.845 137.782C265.704 139.195 263.581 142.407 263.581 142.407C265.224 149.472 260.387 158.344 253.155 162.682C246.599 166.615 228.157 174.674 228.157 174.674L188.224 189.538L179.738 163.526C179.738 163.526 211.369 160.702 219.758 156.168Z" fill="white"/>
<path d="M180.151 163.798L188.417 189.137L228.049 174.385C228.218 174.311 246.532 166.296 252.996 162.418C260.339 158.013 264.856 149.254 263.281 142.477C263.262 142.394 263.277 142.308 263.324 142.237C263.343 142.207 265.265 139.249 263.658 138.028C261.15 136.122 254.422 140.954 250.893 145.117C247.987 148.543 242.474 151.029 240.783 150.195C240.499 150.055 240.05 149.694 240.232 148.851C240.75 146.459 243.783 144.38 246.221 142.71C247.657 141.725 249.142 140.708 249.15 140.19C249.15 140.16 249.152 140.089 249.012 139.988C244.436 136.633 233.786 141.827 230.495 145.796C229.483 147.016 228.633 148.063 227.883 148.987C224.482 153.175 223.337 154.586 219.905 156.44C211.958 160.734 183.952 163.447 180.151 163.798ZM188.224 189.847C188.178 189.847 188.132 189.837 188.089 189.816C188.014 189.779 187.957 189.714 187.93 189.634L179.445 163.622C179.416 163.532 179.429 163.435 179.481 163.356C179.532 163.278 179.617 163.227 179.711 163.219C180.026 163.191 211.373 160.349 219.612 155.898C222.936 154.101 224.062 152.715 227.404 148.598C228.155 147.673 229.007 146.625 230.02 145.402C233.433 141.286 244.548 135.951 249.377 139.49C249.704 139.73 249.769 140.008 249.767 140.199C249.753 141.036 248.418 141.952 246.569 143.218C244.222 144.827 241.3 146.829 240.835 148.981C240.739 149.424 240.903 149.567 241.056 149.642C242.368 150.29 247.592 148.056 250.422 144.718C254.195 140.269 261.198 135.384 264.031 137.537C265.909 138.964 264.289 141.846 263.91 142.463C265.459 149.468 260.827 158.44 253.313 162.947C246.816 166.845 228.465 174.876 228.28 174.957L188.331 189.827C188.296 189.84 188.26 189.847 188.224 189.847Z" fill="#100F0D"/>
<path d="M247.939 155.255C247.831 155.255 247.726 155.197 247.669 155.095C247.587 154.947 247.641 154.759 247.79 154.677C254.724 150.84 258.796 145.633 258.836 145.581C258.941 145.446 259.134 145.421 259.269 145.525C259.403 145.63 259.428 145.823 259.324 145.958C259.283 146.011 255.133 151.319 248.088 155.216C248.041 155.242 247.99 155.255 247.939 155.255Z" fill="#100F0D"/>
<path d="M251.598 158.674C251.484 158.674 251.374 158.61 251.321 158.501C251.246 158.349 251.309 158.164 251.462 158.089C256.848 155.446 258.592 152.485 258.609 152.455C258.694 152.308 258.882 152.256 259.03 152.341C259.177 152.425 259.229 152.613 259.145 152.761C259.072 152.888 257.308 155.907 251.733 158.642C251.69 158.664 251.643 158.674 251.598 158.674Z" fill="#100F0D"/>
<path d="M199.026 160.295C202.291 167.463 205.087 180.101 208.156 182.465C202.632 183.901 194.281 184.973 194.281 184.973L189.266 161.008C189.266 161.008 196.832 160.854 199.026 160.295Z" fill="#AE5422"/>
<path d="M203.593 191.795C203.582 191.756 202.207 173.266 200.529 153.873C183.154 158.207 178.27 159.063 170.817 153.667C159.043 145.142 150.4 100.811 130.788 98.3701C117.397 96.7039 121.942 164.111 151.604 186.05C164.679 195.721 182.444 195.516 203.593 191.795Z" fill="#64A1F2"/>
<path d="M130.305 98.6477C128.509 98.6477 127.036 100.055 125.923 102.839C122.809 110.63 123.407 127.191 127.379 143.115C130.193 154.395 137.105 174.941 151.788 185.801C165.952 196.278 185.732 194.605 203.265 191.54C203.247 191.318 203.218 190.941 203.169 190.294C202.788 185.312 201.634 170.23 200.255 154.259C183.437 158.45 178.188 159.383 170.638 153.916C165.935 150.511 161.702 141.425 157.221 131.805C150.306 116.96 142.469 100.134 130.751 98.6757C130.601 98.6572 130.452 98.6477 130.305 98.6477ZM180.572 194.485C169.996 194.485 159.766 192.469 151.422 186.298C136.584 175.323 129.615 154.625 126.781 143.263C122.781 127.227 122.193 110.51 125.35 102.611C126.653 99.3525 128.547 97.7794 130.828 98.064C142.884 99.564 150.798 116.554 157.78 131.545C162.227 141.09 166.426 150.106 170.999 153.417C178.403 158.778 183.217 157.874 200.456 153.573C200.544 153.551 200.636 153.569 200.71 153.621C200.783 153.674 200.83 153.756 200.838 153.846C202.231 169.953 203.4 185.227 203.784 190.246C203.854 191.165 203.894 191.692 203.9 191.758C203.909 191.828 203.893 191.899 203.855 191.959C203.809 192.033 203.733 192.084 203.648 192.099C196.173 193.414 188.28 194.485 180.572 194.485Z" fill="#100F0D"/>
<path d="M182.262 154.179C184.435 168.681 189.203 186.182 196.427 195.828L214.63 191.249C214.22 190.222 206.24 158.733 204.929 149.368C195.291 150.515 189.429 152.516 182.262 154.179Z" fill="#64A1F2"/>
<path d="M182.611 154.415C185.267 171.929 190.465 187.24 196.553 195.479L214.242 191.029C213.234 187.513 206.031 158.942 204.669 149.71C197.802 150.547 192.795 151.836 187.949 153.083C186.226 153.527 184.447 153.984 182.611 154.415ZM196.429 196.137C196.333 196.137 196.241 196.092 196.182 196.013C186.948 183.683 182.961 160.911 181.958 154.225C181.935 154.066 182.037 153.915 182.194 153.879C184.121 153.432 185.989 152.951 187.796 152.486C192.73 151.215 197.833 149.902 204.895 149.062C205.062 149.043 205.213 149.159 205.236 149.325C206.539 158.635 214.54 190.189 214.918 191.135C214.951 191.218 214.947 191.31 214.907 191.39C214.866 191.469 214.794 191.527 214.707 191.548L196.504 196.127C196.479 196.134 196.454 196.137 196.429 196.137Z" fill="#100F0D"/>
<path d="M69.8535 78.179C69.8535 78.179 105.873 88.3358 118.774 85.5032C125.16 84.1012 130.058 77.0992 132.059 71.8687C138.048 56.2177 134.03 38.9726 116.231 33.5317C105.641 30.2942 95.1248 29.6683 83.866 40.8254C73.3907 51.2063 78.826 70.9705 69.8535 78.179Z" fill="#100F0D"/>
<path d="M109.277 93.499L92.5879 89.9862L97.4204 65.8224L113.744 70.6429L109.277 93.499Z" fill="white"/>
<path d="M104.89 81.723C109.612 81.8019 102.508 74.4004 102.508 74.4004L96.905 69.0425C96.905 69.0425 96.0737 73.2136 95.1191 77.6838C95.1191 77.6838 99.639 81.6351 104.89 81.723Z" fill="#100F0D"/>
<path d="M121.197 65.4568C118.787 75.2063 111.244 82.3374 105.929 81.031C99.4964 79.4502 94.2048 69.2897 96.6154 59.5402C99.0256 49.791 106.943 43.4024 113.373 44.9921C119.804 46.5822 123.608 55.7073 121.197 65.4568Z" fill="white"/>
<path d="M92.3415 59.904C93.5231 62.686 102.019 60.3057 104.054 58.1628C108.277 53.7138 110.307 40.1833 102.459 42.7498C97.759 44.2869 91.1927 57.1996 92.3415 59.904Z" fill="#100F0D"/>
<path d="M107.187 40.9823C104.373 42.0858 106.739 51.1915 108.279 53.7131C111.815 59.502 124.814 65.1553 125.124 56.904C125.354 50.7716 109.922 39.9093 107.187 40.9823Z" fill="#100F0D"/>
<path d="M110.031 139.764L66.8259 146.03C66.8259 146.03 53.3116 111.556 72.1394 94.9993C88.2113 80.8659 116.264 87.8786 127.228 101.895C141.407 120.023 110.031 139.764 110.031 139.764Z" fill="white"/>
<path d="M116.05 90.1306C116.05 90.1306 119.176 114.354 105.085 113.721C88.735 112.986 87.1151 87.8326 87.1151 87.8326C56.0773 91.3334 46.741 134.099 58.3984 162.659C67.091 168.213 101.136 169.438 137.419 165.838C140.89 141.586 150.569 104.7 116.05 90.1306Z" fill="#100F0D"/>
<path d="M96.7618 62.2475C97.0008 64.2125 97.4559 67.3088 94.8002 66.4719C93.7164 66.1303 91.8525 63.3642 92.2111 61.4439C92.7301 58.6646 94.2742 58.2925 95.3978 58.4658C96.5213 58.6387 96.5238 60.2905 96.7618 62.2475Z" fill="white"/>
<path d="M106.185 81.3945C106.152 81.3945 106.118 81.389 106.085 81.3776C98.5469 78.7842 97.1516 74.2125 95.8955 67.0213C95.2517 67.1018 94.5542 66.8477 93.8941 66.2834C92.6851 65.2496 91.6319 63.1557 91.9587 61.154C91.9861 60.986 92.1428 60.8725 92.3127 60.8993C92.4807 60.9268 92.5945 61.0855 92.567 61.2533C92.2803 63.0114 93.2432 64.9153 94.2949 65.8148C94.9048 66.3361 95.5273 66.5289 96.0475 66.3577C96.1329 66.3294 96.226 66.3402 96.3028 66.3864C96.3796 66.4324 96.4326 66.5097 96.4477 66.5982C97.6767 73.7241 98.8092 78.2224 106.285 80.7942C106.447 80.8497 106.532 81.0252 106.477 81.1861C106.433 81.3141 106.313 81.3945 106.185 81.3945Z" fill="#100F0D"/>
<path d="M96.8033 63.2939C97.4523 63.7678 98.4134 61.9339 98.6638 61.2007C99.2385 59.5172 98.4914 59.194 98.1627 58.7624C97.555 57.9635 95.791 56.6931 96.396 59.0941C96.9744 61.3912 96.1724 62.8333 96.8033 63.2939Z" fill="#100F0D"/>
<path d="M92.66 90.3125C92.6409 90.3125 92.6212 90.3106 92.6014 90.3069C92.4343 90.2746 92.3249 90.113 92.3572 89.9459L96.3125 69.4035C96.3449 69.2364 96.5062 69.1269 96.6736 69.159C96.841 69.1911 96.9502 69.3529 96.9181 69.52L92.9625 90.0624C92.9341 90.2101 92.8049 90.3125 92.66 90.3125Z" fill="#100F0D"/>
<path d="M122.746 81.5234C122.647 81.5234 122.55 81.4757 122.49 81.3875C122.395 81.2463 122.433 81.0548 122.573 80.9595C122.675 80.8908 132.731 73.9409 130.75 61.2533C130.724 61.085 130.839 60.9274 131.008 60.9012C131.175 60.8744 131.333 60.99 131.36 61.158C133.401 74.2415 123.023 81.3998 122.918 81.4707C122.865 81.5062 122.806 81.5234 122.746 81.5234Z" fill="#64A1F2"/>
<path d="M121.075 61.2949C117.317 61.2949 111.511 59.3019 108.018 53.8808C107.926 53.7377 107.967 53.5468 108.11 53.4546C108.254 53.3624 108.444 53.4038 108.536 53.5468C112.674 59.9679 120.424 61.4152 123.245 60.3588C123.404 60.299 123.582 60.3798 123.642 60.5395C123.701 60.6989 123.62 60.8768 123.461 60.9363C122.843 61.1676 122.024 61.2949 121.075 61.2949Z" fill="#64A1F2"/>
<path d="M123.403 57.6426C123.393 57.6426 123.382 57.6423 123.372 57.6413C121.013 57.407 114.747 56.7848 111.007 52.7133C110.892 52.5878 110.9 52.3929 111.026 52.2779C111.151 52.1623 111.346 52.1709 111.461 52.2964C115.042 56.1943 121.138 56.7996 123.433 57.0274C123.602 57.0444 123.726 57.1955 123.709 57.3648C123.693 57.5239 123.559 57.6426 123.403 57.6426Z" fill="#64A1F2"/>
<path d="M99.0423 60.7266C98.902 60.7266 98.775 60.6301 98.7423 60.4873C98.7041 60.3211 98.8077 60.1558 98.9739 60.1179C106.186 58.4659 107.303 51.5709 107.474 49.4971C107.488 49.3275 107.636 49.2002 107.806 49.215C107.976 49.2291 108.102 49.3781 108.089 49.5476C107.909 51.7269 106.732 58.9737 99.1114 60.7189C99.0883 60.7244 99.0651 60.7266 99.0423 60.7266Z" fill="#64A1F2"/>
<path d="M95.8875 64.6904C95.8662 64.6904 95.8449 64.6883 95.8233 64.6836C94.718 64.4496 94.9597 63.2866 95.154 62.3517C95.3652 61.3348 95.4651 60.6482 94.9461 60.3849C94.7944 60.3081 94.7337 60.1225 94.8108 59.9705C94.8879 59.8191 95.0729 59.7577 95.2252 59.8351C96.2038 60.3315 95.9562 61.5214 95.7577 62.4772C95.5246 63.5998 95.5196 63.989 95.951 64.0802C96.1178 64.1157 96.2242 64.2794 96.189 64.4459C96.1582 64.5911 96.0302 64.6904 95.8875 64.6904Z" fill="#100F0D"/>
<path d="M46.5733 111.725C61.3422 85.8043 88.0432 86.002 88.0432 86.002C88.0432 86.002 91.6446 103.975 92.206 124.96C93.3697 168.457 82.4047 192.582 94.5568 271.685L46.2024 277.168C46.2024 277.168 23.3445 152.494 46.5733 111.725Z" fill="#64A1F2"/>
<path d="M46.8427 111.878C41.5678 121.136 38.2646 135.576 37.0248 154.795C36.0316 170.194 36.3551 188.67 37.9858 209.711C40.6224 243.726 45.8798 273.615 46.4558 276.829L94.2049 271.415C86.1447 218.773 88.3703 190.005 90.3347 164.62C91.338 151.656 92.2855 139.411 91.8992 124.969C91.3805 105.581 88.2244 88.5678 87.7912 86.3142C86.5002 86.3457 80.3931 86.6435 72.9323 89.441C65.2129 92.336 54.4203 98.5785 46.8427 111.878ZM46.2035 277.477C46.0565 277.477 45.9276 277.371 45.9005 277.224C45.8434 276.912 40.151 245.625 37.371 209.759C35.7378 188.689 35.4144 170.183 36.4093 154.756C37.655 135.442 40.985 120.913 46.3071 111.573C53.9819 98.1028 64.9175 91.7838 72.7399 88.8546C81.2154 85.6812 87.9802 85.6936 88.0471 85.6939C88.193 85.6948 88.3182 85.7984 88.3472 85.9418C88.3832 86.1215 91.9599 104.181 92.5155 124.952C92.9028 139.426 91.954 151.687 90.9495 164.668C88.9839 190.071 86.7555 218.864 94.8632 271.638C94.8758 271.721 94.8542 271.805 94.8033 271.872C94.7525 271.939 94.6763 271.982 94.5931 271.991L46.2384 277.474C46.2267 277.476 46.215 277.477 46.2035 277.477Z" fill="#100F0D"/>
<path d="M86.2875 140.221C86.1451 140.221 86.0171 140.121 85.9863 139.976C83.8218 129.823 76.1316 107.708 76.0543 107.486C76.0259 107.405 76.033 107.316 76.0737 107.24L85.3338 89.9174C85.4143 89.7672 85.6009 89.7108 85.7513 89.7909C85.9015 89.8711 85.9579 90.058 85.8777 90.2084L76.6811 107.411C77.3166 109.245 84.5032 130.061 86.5894 139.848C86.6248 140.014 86.5188 140.178 86.352 140.214C86.3304 140.219 86.3088 140.221 86.2875 140.221Z" fill="#100F0D"/>
<path d="M78.5777 138.975C78.5268 138.975 78.4753 138.962 78.4276 138.935C78.2789 138.853 78.2256 138.664 78.3088 138.516L82.1359 131.662C82.2188 131.514 82.4066 131.461 82.5555 131.544C82.7041 131.627 82.7575 131.815 82.6742 131.963L78.8472 138.817C78.7908 138.918 78.6859 138.975 78.5777 138.975Z" fill="#100F0D"/>
<path d="M137.864 265.128L155.629 261.883C159.863 216.891 142.999 120.414 138.449 108.34C132.488 92.5165 119.357 90.0631 119.357 90.0631C119.357 90.0631 126.907 103.799 133.016 164.609C134.404 178.426 137.864 222.737 137.864 265.128Z" fill="#64A1F2"/>
<path d="M119.912 90.5169C121.349 93.7587 127.942 111.013 133.323 164.578C134.668 177.965 138.152 221.987 138.172 264.758L155.343 261.622C157.723 235.8 153.038 194.921 150.027 172.809C145.835 142.025 140.507 114.677 138.16 108.448C133.064 94.9211 122.553 91.2427 119.912 90.5169ZM137.864 265.437C137.792 265.437 137.722 265.412 137.666 265.365C137.596 265.306 137.555 265.22 137.555 265.128C137.555 222.266 134.057 178.057 132.709 164.64C126.684 104.662 119.162 90.3492 119.087 90.2116C119.03 90.1071 119.038 89.9789 119.108 89.8827C119.178 89.7858 119.298 89.738 119.414 89.7602C119.547 89.7852 132.784 92.4283 138.738 108.231C141.096 114.491 146.441 141.901 150.638 172.726C153.662 194.93 158.37 236.042 155.936 261.912C155.923 262.049 155.82 262.161 155.684 262.186L137.919 265.432C137.901 265.435 137.882 265.437 137.864 265.437Z" fill="#100F0D"/>
<path d="M132.371 142.666C132.364 142.666 132.358 142.666 132.351 142.665C132.181 142.654 132.052 142.508 132.063 142.338L134.338 107.496L122.512 93.6993C122.401 93.5698 122.416 93.3752 122.545 93.2646C122.674 93.1536 122.869 93.1687 122.98 93.2979L134.889 107.19C134.941 107.251 134.967 107.33 134.962 107.411L132.679 142.378C132.668 142.541 132.532 142.666 132.371 142.666Z" fill="#100F0D"/>
<path d="M105.388 118.249C103.624 118.249 101.985 117.86 100.784 117.469C99.7617 117.137 97.1772 116.095 97.1414 115.607C97.1291 115.437 97.2568 115.289 97.4263 115.277C97.5358 115.27 97.6342 115.318 97.6952 115.398C98.0523 115.681 101.939 117.89 106.104 117.617C108.535 117.458 110.54 116.464 112.064 114.663C112.173 114.534 112.368 114.517 112.498 114.627C112.628 114.737 112.644 114.932 112.534 115.062C110.456 117.519 107.805 118.249 105.388 118.249Z" fill="#64A1F2"/>
<path d="M134.654 153.469C134.629 153.469 134.604 153.466 134.578 153.459C134.413 153.417 134.313 153.25 134.355 153.085C135.595 148.202 139.286 139.787 139.834 138.549L135.337 131.602C135.245 131.459 135.286 131.268 135.429 131.175C135.572 131.083 135.763 131.124 135.855 131.267L140.443 138.354C140.499 138.442 140.508 138.552 140.465 138.647C140.424 138.741 136.273 148.035 134.953 153.236C134.918 153.376 134.792 153.469 134.654 153.469Z" fill="#100F0D"/>
<path d="M147.427 143.611C117.891 144.77 138.121 231.197 152.771 237.718C167.618 244.327 255.67 229.686 263.224 219.456C272.591 206.769 263.154 128.058 244.072 129.483C226.725 130.778 209.137 141.189 147.427 143.611Z" fill="#64A1F2"/>
<path d="M166.271 239.667C160.107 239.667 155.268 239.167 152.645 238C147.491 235.705 141.303 223.422 136.88 206.708C132.208 189.047 130.76 171.518 133.008 159.817C135.027 149.304 140.009 143.594 147.414 143.303C147.58 143.288 147.728 143.429 147.734 143.599C147.741 143.769 147.609 143.913 147.438 143.919C140.252 144.201 135.601 149.589 133.613 159.933C131.382 171.548 132.826 188.975 137.477 206.55C141.853 223.091 147.905 235.215 152.896 237.436C160.517 240.828 187.41 238.455 210.681 234.597C233.923 230.745 259.106 224.512 262.975 219.273C263.076 219.136 263.269 219.107 263.406 219.208C263.543 219.309 263.572 219.502 263.471 219.639C259.5 225.018 234.147 231.333 210.783 235.206C195.339 237.766 178.29 239.667 166.271 239.667Z" fill="#100F0D"/>
<path d="M234.395 185.357C255.196 179.91 262.309 172.604 263.98 168.11L261.912 158.027C267.598 163.505 271.288 173.472 269.139 181.114C266.269 191.322 246.666 199.174 235.77 197.786C229.214 196.951 228.939 186.786 234.395 185.357Z" fill="#100F0D"/>
<path d="M260.831 201.199C260.666 201.199 260.53 201.069 260.523 200.903C260.499 200.298 258.017 140.355 248.88 134.995C248.093 134.534 247.298 134.52 246.449 134.951C232.238 142.174 208.4 147.679 195.456 150.318C174.935 154.502 157.847 156.552 150.654 156.687C148.086 156.733 146.032 156.03 144.548 154.591C142.213 152.326 142.148 149.087 142.147 148.95C142.145 148.78 142.281 148.64 142.451 148.638C142.623 148.638 142.761 148.774 142.763 148.943C142.764 148.973 142.83 152.07 144.982 154.153C146.343 155.47 148.247 156.117 150.643 156.071C157.808 155.936 174.85 153.89 195.333 149.714C208.246 147.081 232.023 141.591 246.17 134.402C247.206 133.875 248.223 133.895 249.191 134.464C258.617 139.992 261.041 198.395 261.139 200.879C261.146 201.049 261.014 201.192 260.843 201.199C260.839 201.199 260.835 201.199 260.831 201.199Z" fill="#100F0D"/>
<path d="M240.945 191.623C241.089 193.136 239.735 194.503 237.922 194.675C236.109 194.848 234.522 193.761 234.378 192.248C234.234 190.734 235.587 189.367 237.401 189.195C239.214 189.022 240.801 190.109 240.945 191.623Z" fill="white"/>
<path d="M202.126 135.759C199.735 135.759 197.273 135.263 194.806 134.272C194.136 134.003 193.408 133.617 192.703 133.243C192.389 133.076 192.082 132.913 191.793 132.768C191.641 132.691 191.579 132.506 191.656 132.354C191.732 132.202 191.918 132.14 192.07 132.217C192.363 132.364 192.674 132.529 192.992 132.698C193.683 133.065 194.396 133.443 195.036 133.7C199.773 135.602 204.483 135.622 208.658 133.755C213.085 131.776 216.573 127.791 218.481 122.534C222.889 110.385 220.538 102.197 211.292 97.5017C210.763 97.2332 210.314 97.0676 209.837 96.8921C209.402 96.7315 208.951 96.5653 208.446 96.3171C208.293 96.2419 208.23 96.0569 208.305 95.9042C208.38 95.7516 208.565 95.6884 208.718 95.7636C209.194 95.9977 209.61 96.1512 210.051 96.3134C210.523 96.4873 211.01 96.6671 211.571 96.952C216.677 99.545 219.794 103.284 220.836 108.065C221.72 112.123 221.122 117.061 219.06 122.744C217.095 128.16 213.49 132.27 208.909 134.318C206.761 135.278 204.478 135.759 202.126 135.759Z" fill="#64A1F2"/>
<path d="M202.754 95.3631C200.67 95.3631 198.593 95.8252 196.585 96.7487C191.993 98.8608 188.164 103.275 186.592 108.269C184.542 114.783 182.584 126.547 192.507 132.148C196.202 134.233 200.547 134.53 204.742 132.984C209.862 131.097 214.088 126.773 216.046 121.418C219.357 112.366 219.146 101.093 208.628 96.5998C206.697 95.7753 204.722 95.3631 202.754 95.3631ZM199.409 134.578C196.889 134.578 194.434 133.943 192.204 132.685C187.988 130.305 185.434 126.592 184.615 121.651C183.793 116.695 184.917 111.538 186.004 108.084C187.626 102.929 191.582 98.3712 196.328 96.1885C200.394 94.3181 204.731 94.2645 208.87 96.0328C219.785 100.695 220.033 112.313 216.625 121.63C214.605 127.153 210.243 131.613 204.956 133.562C203.114 134.241 201.245 134.578 199.409 134.578Z" fill="#64A1F2"/>
<path d="M193.202 130.418C193.139 130.418 193.076 130.399 193.021 130.359C185.962 125.24 185.966 115.637 188.115 108.971C189.56 104.487 192.874 100.681 196.981 98.791C200.469 97.1849 204.181 97.1161 207.713 98.5934C214.65 101.494 217.639 108.36 215.71 116.958C215.673 117.124 215.508 117.228 215.342 117.191C215.176 117.154 215.071 116.989 215.108 116.823C216.967 108.54 214.113 101.938 207.475 99.1622C204.106 97.7535 200.566 97.8188 197.238 99.3512C193.345 101.144 190.074 104.902 188.702 109.16C186.617 115.63 186.591 124.934 193.383 129.86C193.521 129.96 193.551 130.153 193.451 130.291C193.391 130.374 193.297 130.418 193.202 130.418Z" fill="#64A1F2"/>
<path d="M195.411 125.572C195.93 125.784 196.344 125.688 196.715 125.266C196.745 125.222 196.764 125.195 196.781 125.176C197.234 124.655 197.868 124.431 198.564 124.545C200.929 124.934 203.894 124.188 204.818 121.63C205.95 118.496 204.962 116.183 201.615 114.132C201.458 114.036 201.301 113.942 201.146 113.849C199.69 112.978 198.186 112.079 198.669 110.228C198.819 109.656 199.131 109.235 199.597 108.976C200.364 108.552 201.507 108.587 203.092 109.083C204.09 109.396 205.085 110.188 205.626 111.1C205.799 111.392 205.988 111.489 206.324 111.455C206.392 111.449 206.482 111.449 206.573 111.45C206.641 111.451 206.709 111.453 206.76 111.448C207.005 111.42 207.211 111.298 207.34 111.105C207.471 110.91 207.504 110.67 207.435 110.429C207.132 109.383 206.527 108.723 205.584 107.937C205.096 107.529 204.926 106.934 205.107 106.261L205.129 106.184C205.178 106.006 205.27 105.676 205.198 105.536C205.011 105.171 204.414 105.019 203.978 104.909L203.825 104.87C203.562 104.8 203.519 104.858 203.315 105.137L203.282 105.182C203.238 105.243 203.209 105.35 203.18 105.463C203.107 105.744 202.996 106.168 202.459 106.273C201.952 106.373 201.458 106.442 200.981 106.509C198.914 106.798 197.281 107.026 196.216 109.432C194.744 112.759 199.858 116.242 200.446 116.629C201.406 117.259 203.654 118.735 202.676 120.892C202.32 121.677 201.776 122.206 201.059 122.465C200.112 122.808 198.869 122.648 197.561 122.015C196.199 121.356 195.353 120.013 195.299 118.424C195.284 117.995 195.136 117.789 194.753 117.663C194.62 117.619 194.406 117.575 194.287 117.567C193.824 117.535 193.25 117.725 193.151 118.36C192.88 120.103 193.519 121.293 194.561 122.545C195.002 123.074 195.05 123.615 194.712 124.247C194.482 124.675 194.578 125.072 194.974 125.335C195.08 125.406 195.286 125.52 195.411 125.572ZM195.91 126.298C195.675 126.298 195.43 126.246 195.177 126.142C195.008 126.073 194.768 125.939 194.632 125.849C193.971 125.409 193.788 124.666 194.168 123.956C194.389 123.543 194.368 123.276 194.087 122.939C193.092 121.745 192.217 120.352 192.541 118.266C192.672 117.429 193.408 116.888 194.328 116.952C194.498 116.963 194.764 117.017 194.946 117.077C195.575 117.285 195.892 117.718 195.916 118.403C195.962 119.78 196.66 120.894 197.83 121.46C198.987 122.02 200.06 122.171 200.85 121.885C201.404 121.685 201.829 121.265 202.114 120.637C202.654 119.446 202.073 118.435 200.108 117.144C197.256 115.271 194.378 112.062 195.652 109.182C196.856 106.463 198.818 106.189 200.896 105.898C201.365 105.833 201.849 105.765 202.34 105.668C202.475 105.642 202.509 105.591 202.583 105.307C202.624 105.151 202.671 104.973 202.786 104.817L202.817 104.773C203.038 104.472 203.314 104.097 203.982 104.273L204.129 104.311C204.648 104.443 205.433 104.641 205.747 105.255C205.928 105.609 205.804 106.054 205.722 106.349L205.703 106.421C205.585 106.861 205.677 107.211 205.979 107.463C206.988 108.305 207.682 109.065 208.027 110.258C208.146 110.67 208.083 111.103 207.853 111.448C207.625 111.79 207.251 112.013 206.829 112.06C206.756 112.068 206.66 112.068 206.564 112.067C206.499 112.066 206.434 112.064 206.385 112.069C205.812 112.127 205.391 111.912 205.095 111.414C204.628 110.626 203.769 109.942 202.908 109.672C201.512 109.235 200.499 109.182 199.896 109.516C199.579 109.692 199.373 109.976 199.266 110.384C198.917 111.719 199.873 112.37 201.462 113.32C201.619 113.414 201.779 113.509 201.938 113.606C204.199 114.992 207.018 117.353 205.398 121.84C204.355 124.728 201.073 125.583 198.464 125.154C197.972 125.073 197.563 125.217 197.245 125.582C197.214 125.628 197.194 125.655 197.178 125.674C196.813 126.088 196.383 126.298 195.91 126.298Z" fill="#64A1F2"/>
<path d="M200.617 72.624C200.459 72.624 200.304 72.6212 200.151 72.6138C194.922 72.3576 190.435 70.1931 187.174 66.3544C184.132 62.7721 182.34 57.8579 182.131 52.517C181.914 46.991 183.192 41.9134 185.728 38.2193C188.589 34.0528 192.987 31.6478 198.448 31.2636C199.038 31.222 199.569 31.2164 200.081 31.2109C200.568 31.2056 201.028 31.2007 201.535 31.1674C201.705 31.1563 201.852 31.2852 201.863 31.4551C201.874 31.625 201.745 31.7717 201.575 31.7828C201.052 31.817 200.562 31.8223 200.088 31.8275C199.584 31.8328 199.063 31.8386 198.492 31.8787C186.321 32.7347 182.378 43.0885 182.747 52.4929C183.186 63.67 190.192 71.5085 200.181 71.9978C200.646 72.0203 201.156 71.999 201.65 71.9784C202.179 71.9559 202.727 71.9327 203.232 71.963C203.402 71.9731 203.532 72.1193 203.522 72.2892C203.512 72.4591 203.369 72.5898 203.196 72.5784C202.722 72.5503 202.19 72.5725 201.676 72.5944C201.326 72.6092 200.967 72.624 200.617 72.624Z" fill="#64A1F2"/>
<path d="M201.855 31.9771C201.734 31.9771 201.613 31.9783 201.491 31.9805C197.174 32.0603 193.442 33.6631 190.7 36.6157C187.218 40.3638 185.418 46.1101 185.764 52.3813C186.295 62.0118 191.934 71.7431 203.336 71.774C203.352 71.774 203.368 71.774 203.384 71.774C207.981 71.7743 212.022 69.9884 215.075 66.6075C218.575 62.7312 220.317 57.1028 219.734 51.5513C218.782 42.4789 213.526 31.9771 201.855 31.9771ZM203.384 72.3906C203.367 72.3906 203.351 72.3906 203.334 72.3906C198.051 72.3764 193.515 70.2721 190.217 66.3051C187.245 62.7306 185.445 57.7978 185.148 52.4153C184.794 45.9779 186.652 40.0662 190.248 36.1957C193.108 33.1179 196.991 31.4471 201.48 31.3638C206.807 31.2673 211.433 33.3726 214.842 37.4586C217.817 41.0242 219.772 46.0062 220.348 51.4869C220.948 57.2095 219.148 63.0167 215.533 67.021C212.36 70.5345 208.16 72.3906 203.384 72.3906Z" fill="#64A1F2"/>
<path d="M202.863 69.5596C196.761 69.5596 193.476 66.1044 190.121 61.9342C190.014 61.8013 190.035 61.6073 190.168 61.5007C190.301 61.3943 190.495 61.4146 190.601 61.5475C194.055 65.8401 197.183 69.1122 203.315 68.9364C207.527 68.8174 211.112 67.2119 213.682 64.2938C216.491 61.1038 217.83 56.5109 217.355 51.6926C216.382 41.8318 210.245 35.1119 201.721 34.5727C201.551 34.5622 201.422 34.4154 201.433 34.2455C201.444 34.0753 201.592 33.9458 201.76 33.9572C210.602 34.5166 216.964 41.4544 217.968 51.6321C218.46 56.6201 217.067 61.3835 214.145 64.7015C211.458 67.7512 207.72 69.4288 203.332 69.5528C203.174 69.5574 203.017 69.5596 202.863 69.5596Z" fill="#64A1F2"/>
<path d="M188.985 58.9717C188.856 58.9717 188.736 58.8903 188.693 58.7611C188.017 56.7406 187.622 54.6744 187.485 52.4452C187.474 52.275 187.604 52.1288 187.774 52.1184C187.947 52.106 188.09 52.2371 188.1 52.407C188.235 54.5823 188.62 56.5966 189.278 58.5656C189.332 58.7272 189.245 58.9017 189.083 58.9556C189.051 58.9664 189.018 58.9717 188.985 58.9717Z" fill="#64A1F2"/>
<path d="M198.838 56.604C198.742 56.604 198.642 56.6262 198.533 56.6684C198.398 56.7202 198.207 56.8232 198.106 56.8975C197.7 57.1969 197.436 57.7578 197.815 58.282C198.756 59.5816 199.973 60.349 202.018 60.9312C202.697 61.1245 203.116 61.6428 203.198 62.3896C203.22 62.5937 203.35 63.2634 204.076 63.3167C204.236 63.3287 204.456 63.3365 204.585 63.326C205.127 63.2828 205.42 62.9988 205.507 62.4318C205.505 62.3849 205.507 62.3439 205.512 62.3143C205.638 61.5407 206.043 61.0918 206.75 60.9426C208.779 60.514 211.101 59.3266 210.647 56.103C210.069 52.0092 207.06 51.1524 203.76 50.5755C203.543 50.5376 203.332 50.5036 203.128 50.4709C201.49 50.2092 200.075 49.9829 199.865 48.0755C199.789 47.3815 199.947 46.7935 200.334 46.3282C200.886 45.6637 201.889 45.2734 203.313 45.1688C204.392 45.0887 205.762 45.6094 206.725 46.4626C207.113 46.8058 207.365 46.7925 207.626 46.6667C207.736 46.6131 207.891 46.5181 207.979 46.4509C208.462 46.0756 208.545 45.397 208.167 44.9055C207.46 43.9867 206.601 43.4024 205.296 42.9516C204.67 42.7358 204.34 42.2936 204.258 41.5598L204.245 41.43C204.229 41.2465 204.201 40.9397 204.097 40.8482C203.794 40.5812 203.187 40.682 202.743 40.7557L202.6 40.7791C202.332 40.8213 202.312 40.8895 202.215 41.2169L202.187 41.3104C202.163 41.389 202.176 41.5012 202.19 41.6202C202.223 41.9017 202.273 42.3269 201.812 42.6445C201.432 42.9066 201.074 43.1351 200.728 43.3561C198.861 44.5463 197.735 45.2651 197.732 48.2451C197.728 51.671 200.918 52.7563 203.595 53.0637C205.563 53.2894 207.863 53.8275 208.182 56.0037C208.297 56.7844 208.136 57.4266 207.704 57.9126C207.054 58.643 205.804 58.9868 203.982 58.9344C202.385 58.8884 200.547 58.0892 199.513 56.991C199.263 56.7252 199.062 56.604 198.838 56.604ZM204.43 63.9473C204.294 63.9473 204.147 63.9405 204.031 63.9318C203.245 63.8742 202.677 63.2951 202.585 62.4568C202.53 61.9545 202.289 61.6496 201.849 61.5241C200.324 61.0899 198.593 60.4082 197.316 58.6433C196.797 57.9261 196.979 56.9623 197.74 56.4014C197.884 56.2944 198.125 56.1649 198.311 56.0928C199.094 55.7919 199.605 56.1887 199.962 56.5682C200.893 57.5571 202.553 58.2764 204 58.318C205.606 58.3655 206.727 58.0825 207.243 57.5028C207.553 57.1547 207.66 56.6934 207.572 56.0931C207.315 54.3433 205.382 53.8894 203.525 53.6764C199.388 53.2015 197.112 51.2723 197.115 48.2448C197.119 44.9268 198.493 44.0499 200.396 42.8363C200.738 42.618 201.091 42.3926 201.462 42.137C201.604 42.0393 201.61 41.9702 201.578 41.6924C201.558 41.5237 201.535 41.3329 201.597 41.1303L201.624 41.0418C201.73 40.6814 201.851 40.2725 202.504 40.1701L202.642 40.1476C203.175 40.0588 203.982 39.9244 204.505 40.3857C204.793 40.6394 204.831 41.0643 204.859 41.3745L204.871 41.4907C204.926 41.9865 205.102 42.2326 205.497 42.3689C206.906 42.8554 207.88 43.5217 208.656 44.5294C209.244 45.294 209.112 46.3522 208.356 46.9384C208.235 47.0324 208.045 47.149 207.894 47.2217C207.353 47.4832 206.837 47.3861 206.316 46.9242C205.469 46.1743 204.282 45.7177 203.359 45.7837C202.125 45.8743 201.243 46.199 200.808 46.7225C200.528 47.0589 200.42 47.4795 200.478 48.008C200.63 49.3868 201.477 49.5823 203.225 49.862C203.432 49.8953 203.646 49.9295 203.866 49.9681C207.258 50.5613 210.623 51.5168 211.257 56.0169C211.664 58.8998 210.109 60.8636 206.878 61.546C206.425 61.6416 206.205 61.8932 206.12 62.4142C206.122 62.4586 206.121 62.4975 206.117 62.5258C205.987 63.3722 205.46 63.8751 204.634 63.9408C204.573 63.9454 204.503 63.9473 204.43 63.9473Z" fill="#64A1F2"/>
<path d="M164.32 72.2561C161.692 80.9165 166.979 89.8116 172.126 96.4944C173.225 96.8389 174.197 97.0994 175.256 97.3754C186.926 100.418 195.323 92.9717 198.365 82.3244C201.406 71.6776 197.803 60.5767 187.218 56.5403C186.185 56.1469 185.145 56.0405 184.056 55.6169C176.304 58.719 166.947 63.5956 164.32 72.2561Z" fill="#100F0D"/>
<path d="M195.343 81.411C192.305 91.799 183.818 99.6384 172.125 96.3796C160.432 93.1209 158.03 81.6814 161.173 71.4549C164.316 61.2284 173.11 52.8115 184.016 55.8724C194.921 58.9332 198.382 71.0229 195.343 81.411Z" fill="#FF6A3D"/>
<path d="M163.914 72.2259C162.251 77.5986 162.519 82.9136 164.65 86.8082C166.383 89.9785 169.223 92.1276 173.089 93.1966C174.676 93.635 176.17 93.8366 177.571 93.8366C185.671 93.8376 190.664 87.1011 192.605 80.5367C194.159 75.2802 193.715 69.6689 191.415 65.5258C189.613 62.2778 186.756 60.0341 183.153 59.0369C173.56 56.3816 166.455 64.0128 163.914 72.2259ZM177.477 94.4336C176.001 94.4336 174.478 94.2205 172.925 93.791C168.892 92.6761 165.925 90.4262 164.108 87.1042C161.899 83.0641 161.613 77.5749 163.325 72.0437C165.951 63.5549 173.329 55.678 183.318 58.4428C187.083 59.4849 190.07 61.8307 191.954 65.2267C194.332 69.511 194.797 75.3 193.197 80.7115C191.808 85.4087 189.22 89.3122 185.909 91.7033C183.4 93.5154 180.539 94.4336 177.477 94.4336Z" fill="#100F0D"/>
<path d="M174.912 88.5352C175.641 88.654 176.096 88.2439 176.368 87.5985C176.38 87.5701 176.396 87.5073 176.407 87.4789C176.615 86.9279 177.014 86.5314 177.621 86.5246C180.381 86.4947 182.412 85.1787 183.174 82.4974C184.289 78.5708 181.819 76.6092 178.815 75.107C177.089 74.2437 175.664 73.7682 176.118 71.8908C176.571 70.0137 178.494 69.9119 180.166 70.2998C181.265 70.5545 182.225 71.4459 182.749 72.4741C182.989 72.9468 183.303 73.1611 183.82 73.1013C183.957 73.0856 184.17 73.035 184.302 72.994C185.072 72.7547 185.5 71.9423 185.283 71.2023C184.908 69.9264 184.129 69.1704 183.148 68.3397C182.717 67.9743 182.546 67.5467 182.655 66.951C182.705 66.6787 182.824 66.2406 182.653 65.968C182.313 65.4269 181.463 65.3427 180.936 65.2539C180.409 65.1648 180.294 65.4235 180.058 65.7667C179.822 66.1099 180.049 66.6494 179.465 66.8162C176.523 67.6564 174.515 67.7218 173.297 71.288C172.165 74.6007 174.616 76.8408 177.438 78.0494C179.276 78.8363 180.747 79.8294 180.311 81.6147C179.796 83.724 177.825 83.6922 176.031 83.2119C174.678 82.8493 173.433 81.7769 172.858 80.4372C172.634 79.9161 172.293 79.6343 171.719 79.6919C171.546 79.7095 171.266 79.7604 171.103 79.8082C170.354 80.0274 169.834 80.7686 170.049 81.5268C170.569 83.362 171.643 84.3977 173.231 85.3958C173.724 85.7053 173.844 86.2388 173.698 86.8505C173.552 87.4625 173.7 88.1452 174.385 88.3875C174.538 88.4418 174.749 88.5087 174.912 88.5352Z" fill="white"/>
<path d="M143.738 166.029C143.571 166.029 143.434 165.896 143.43 165.729C143.384 164.051 143.377 162.894 143.377 162.355C143.377 162.127 143.378 162.009 143.378 162.009C143.38 161.839 143.528 161.708 143.69 161.704C143.86 161.706 143.997 161.845 143.995 162.015C143.995 162.016 143.994 162.132 143.994 162.355C143.994 162.891 144 164.041 144.046 165.712C144.051 165.882 143.917 166.024 143.746 166.029C143.743 166.029 143.74 166.029 143.738 166.029ZM144.079 173.43C143.917 173.43 143.782 173.305 143.772 173.141C143.693 171.894 143.624 170.648 143.568 169.438C143.56 169.268 143.691 169.123 143.862 169.115C144.028 169.109 144.176 169.239 144.184 169.409C144.24 170.616 144.308 171.858 144.387 173.102C144.398 173.272 144.269 173.419 144.099 173.429C144.092 173.43 144.086 173.43 144.079 173.43ZM144.661 180.815C144.504 180.815 144.369 180.695 144.354 180.535C144.239 179.306 144.131 178.063 144.035 176.841C144.021 176.671 144.148 176.522 144.318 176.509C144.49 176.498 144.636 176.622 144.65 176.792C144.746 178.012 144.853 179.251 144.968 180.477C144.984 180.647 144.859 180.797 144.69 180.813C144.68 180.814 144.67 180.815 144.661 180.815ZM145.463 188.177C145.31 188.177 145.177 188.063 145.158 187.907C145.007 186.693 144.863 185.454 144.729 184.224C144.71 184.055 144.832 183.902 145.002 183.884C145.168 183.867 145.323 183.987 145.342 184.157C145.475 185.384 145.619 186.62 145.77 187.831C145.791 188 145.671 188.154 145.502 188.175C145.489 188.176 145.476 188.177 145.463 188.177ZM146.486 195.512C146.336 195.512 146.205 195.403 146.182 195.251C145.994 194.043 145.813 192.809 145.642 191.583C145.618 191.414 145.736 191.258 145.905 191.235C146.072 191.21 146.229 191.328 146.252 191.497C146.423 192.721 146.604 193.951 146.791 195.156C146.817 195.324 146.702 195.482 146.534 195.508C146.517 195.51 146.502 195.512 146.486 195.512ZM147.735 202.81C147.589 202.81 147.46 202.707 147.432 202.559C147.206 201.352 146.985 200.124 146.778 198.909C146.749 198.742 146.862 198.582 147.03 198.554C147.199 198.524 147.357 198.638 147.386 198.806C147.593 200.017 147.812 201.242 148.038 202.445C148.069 202.613 147.959 202.774 147.792 202.805C147.773 202.809 147.753 202.81 147.735 202.81ZM149.221 210.064C149.08 210.064 148.953 209.966 148.92 209.822C148.654 208.628 148.394 207.409 148.146 206.197C148.111 206.03 148.219 205.867 148.386 205.833C148.553 205.798 148.716 205.906 148.75 206.073C148.997 207.282 149.257 208.498 149.522 209.688C149.56 209.854 149.455 210.019 149.289 210.056C149.266 210.061 149.244 210.064 149.221 210.064ZM150.961 217.26C150.824 217.26 150.7 217.169 150.663 217.03C150.355 215.854 150.051 214.644 149.759 213.434C149.719 213.269 149.821 213.102 149.986 213.062C150.151 213.022 150.318 213.124 150.358 213.289C150.65 214.495 150.953 215.701 151.26 216.874C151.303 217.039 151.204 217.207 151.039 217.25C151.013 217.257 150.987 217.26 150.961 217.26ZM152.974 224.384C152.842 224.384 152.72 224.299 152.679 224.166C152.324 223.001 151.973 221.804 151.635 220.607C151.589 220.444 151.685 220.273 151.848 220.227C152.013 220.181 152.183 220.276 152.229 220.44C152.566 221.632 152.916 222.825 153.269 223.986C153.319 224.149 153.227 224.321 153.064 224.371C153.034 224.38 153.004 224.384 152.974 224.384ZM155.282 231.418C155.155 231.418 155.036 231.339 154.991 231.212C154.585 230.062 154.183 228.881 153.796 227.702C153.743 227.54 153.832 227.366 153.993 227.313C154.156 227.259 154.329 227.348 154.383 227.51C154.768 228.685 155.169 229.862 155.573 231.007C155.63 231.167 155.545 231.344 155.385 231.4C155.351 231.412 155.316 231.418 155.282 231.418Z" fill="white"/>
<path d="M128.575 173.493C133.125 172.332 134.315 170.938 141.329 165.793C145.714 162.577 157.458 160.297 161.123 164.713C162.684 166.594 152.758 167.78 150.49 171.509C147.907 175.755 173.38 162.996 175.194 166.053C176.385 168.061 174.429 170.799 174.429 170.799C174.304 178.052 161.203 194.299 132.531 196.174C121.878 196.87 89.8732 198.194 89.8732 198.194L87.9668 170.899C87.9668 170.899 119.334 175.851 128.575 173.493Z" fill="white"/>
<path d="M88.3012 171.264L90.1598 197.874C93.4383 197.738 122.531 196.518 132.511 195.866C148.316 194.833 158.358 189.527 163.999 185.257C170.909 180.028 174.061 174.225 174.12 170.794C174.121 170.731 174.142 170.671 174.178 170.62C174.196 170.594 176.002 168.02 174.929 166.211C174.125 164.857 166.397 167.665 160.754 169.715C153.732 172.265 150.806 173.222 150.134 172.403C149.925 172.148 149.956 171.793 150.227 171.349C151.453 169.332 154.746 168.055 157.392 167.03C159.084 166.373 160.834 165.695 160.974 165.159C160.982 165.127 161.002 165.051 160.885 164.91C157.261 160.543 145.668 162.992 141.511 166.042C140.233 166.98 139.153 167.789 138.2 168.503C134.002 171.65 132.43 172.828 128.651 173.792C119.899 176.025 92.074 171.847 88.3012 171.264ZM89.8731 198.503C89.7118 198.503 89.5768 198.378 89.5657 198.216L87.6589 170.921C87.6525 170.827 87.6888 170.736 87.7582 170.672C87.8276 170.609 87.9223 170.581 88.0148 170.595C88.3277 170.644 119.425 175.509 128.499 173.195C132.159 172.261 133.588 171.19 137.83 168.01C138.784 167.295 139.865 166.484 141.146 165.545C145.458 162.382 157.536 159.909 161.36 164.516C161.623 164.833 161.619 165.125 161.57 165.314C161.352 166.156 159.784 166.763 157.615 167.604C155.056 168.596 151.872 169.831 150.753 171.669C150.597 171.926 150.615 172.019 150.615 172.02C151.135 172.553 156.573 170.578 160.543 169.135C168.91 166.096 174.47 164.228 175.459 165.896C176.634 167.877 175.063 170.409 174.734 170.898C174.619 174.489 171.385 180.441 164.371 185.749C158.663 190.069 148.508 195.438 132.551 196.482C122.016 197.17 90.2061 198.489 89.886 198.503C89.8817 198.503 89.8774 198.503 89.8731 198.503Z" fill="#100F0D"/>
<path d="M156.209 179.469C156.072 179.469 155.947 179.377 155.911 179.239C155.867 179.075 155.965 178.906 156.129 178.862C163.793 176.826 170.855 171.883 170.925 171.833C171.064 171.735 171.257 171.769 171.355 171.907C171.453 172.047 171.42 172.239 171.281 172.337C171.209 172.388 164.06 177.392 156.288 179.458C156.261 179.465 156.235 179.469 156.209 179.469Z" fill="#100F0D"/>
<path d="M158.925 183.674C158.783 183.674 158.655 183.575 158.624 183.43C158.588 183.263 158.695 183.1 158.861 183.064C164.75 181.805 167.14 179.362 167.163 179.338C167.281 179.215 167.476 179.21 167.599 179.328C167.722 179.446 167.727 179.641 167.609 179.764C167.508 179.87 165.063 182.369 158.99 183.667C158.968 183.672 158.947 183.674 158.925 183.674Z" fill="#100F0D"/>
<path d="M153.57 184.23C153.412 184.23 153.277 184.11 153.263 183.95C153.248 183.78 153.373 183.63 153.543 183.615C154.822 183.502 155.062 182.361 155.072 182.313C155.105 182.146 155.266 182.037 155.433 182.069C155.599 182.101 155.709 182.261 155.677 182.428C155.571 182.997 154.999 184.105 153.597 184.229C153.588 184.23 153.579 184.23 153.57 184.23Z" fill="#100F0D"/>
<path d="M154.934 187.887C154.804 187.887 154.684 187.805 154.641 187.676C154.587 187.515 154.674 187.34 154.836 187.286C156.183 186.834 156.287 185.921 156.291 185.883C156.307 185.715 156.456 185.589 156.624 185.604C156.793 185.618 156.918 185.764 156.905 185.932C156.901 185.987 156.784 187.283 155.031 187.871C154.999 187.881 154.966 187.887 154.934 187.887Z" fill="#100F0D"/>
<path d="M151.759 179.079C151.608 179.079 151.475 178.967 151.454 178.813C151.431 178.644 151.549 178.488 151.718 178.465C152.965 178.295 153.134 177.114 153.135 177.102C153.157 176.933 153.312 176.815 153.481 176.837C153.65 176.858 153.769 177.014 153.747 177.182C153.671 177.756 153.168 178.889 151.801 179.076C151.787 179.078 151.773 179.079 151.759 179.079Z" fill="#100F0D"/>
<path d="M107.461 172.456C108.885 180.203 108.525 193.142 110.927 196.181C105.22 196.231 96.8594 195.239 96.8594 195.239L97.8208 170.775C97.8208 170.775 105.198 172.465 107.461 172.456Z" fill="#AE5422"/>
<path d="M104.234 204.121C104.233 204.08 107.395 185.81 110.483 166.592C92.5752 166.572 85.9402 165.306 79.603 158.635C63.8481 142.049 76.6208 103.319 60.7617 107.267C48.5613 110.304 30.3364 148.246 48.9378 180.427C59.4399 198.595 82.8153 202.588 104.234 204.121Z" fill="#64A1F2"/>
<path d="M104.236 204.429C104.229 204.429 104.221 204.428 104.214 204.428C94.3287 203.72 79.3906 202.651 66.8951 196.753C60.1858 193.586 54.7236 189.281 50.6604 183.958C45.9404 177.775 42.9354 170.004 41.7292 160.861C41.707 160.692 41.8257 160.537 41.9944 160.515C42.1615 160.493 42.3181 160.611 42.3403 160.78C47.4818 199.749 83.0228 202.293 104.258 203.813C104.428 203.825 104.556 203.973 104.543 204.142C104.532 204.305 104.396 204.429 104.236 204.429Z" fill="#100F0D"/>
<path d="M110.482 166.899C92.866 166.88 85.902 165.713 79.3792 158.847C71.6708 150.732 70.8803 137.442 70.2451 126.764C69.7502 118.443 69.3226 111.256 65.9571 108.573C64.6584 107.538 62.9759 107.209 60.8123 107.57C60.6427 107.598 60.4854 107.485 60.4574 107.317C60.4293 107.149 60.5428 106.99 60.7108 106.962C63.0563 106.571 64.8983 106.94 66.3416 108.091C69.922 110.945 70.357 118.259 70.8609 126.728C71.5228 137.857 72.273 150.47 79.8263 158.422C86.1933 165.125 93.0652 166.264 110.483 166.283C110.653 166.283 110.791 166.421 110.791 166.591C110.791 166.762 110.652 166.899 110.482 166.899Z" fill="#100F0D"/>
<path d="M91.0549 162.53C90.4971 177.547 90.9846 193.395 93.3744 206.307L114.267 205.186C114.118 204.09 112.647 172.635 113.653 163.232C109.138 163.121 99.8229 162.785 91.0549 162.53Z" fill="#64A1F2"/>
<path d="M91.3506 162.847C90.9251 174.62 90.988 191.523 93.6276 205.984L113.932 204.896C113.689 201.361 112.421 172.83 113.311 163.532C110.943 163.472 107.42 163.357 103.372 163.225C99.6447 163.104 95.4329 162.967 91.3506 162.847ZM93.3732 206.615C93.2252 206.615 93.0973 206.51 93.0701 206.363C90.3491 191.662 90.3041 174.406 90.7453 162.519C90.7518 162.349 90.8899 162.218 91.0626 162.222C95.2411 162.344 99.571 162.485 103.392 162.609C107.633 162.747 111.297 162.866 113.659 162.924C113.745 162.927 113.827 162.965 113.884 163.029C113.94 163.094 113.967 163.18 113.958 163.265C112.961 172.588 114.427 204.078 114.571 205.145C114.583 205.231 114.558 205.317 114.503 205.383C114.448 205.449 114.368 205.49 114.282 205.494L93.3899 206.615C93.3843 206.615 93.3788 206.615 93.3732 206.615Z" fill="#100F0D"/>
</g>
<defs>
<clipPath id="clip0_6627_28099">
<rect width="308.333" height="308.333" fill="white" transform="translate(0.833984)"/>
</clipPath>
</defs>
</svg>
