<svg width="195" height="58" viewBox="0 0 195 58" fill="none" xmlns="http://www.w3.org/2000/svg">
      <path d="M2 43C2.69266 46.3863 3.49584 49.7522 4.25 53.125" stroke="#FF6A3D" stroke-width="3" stroke-linecap="round"/>
      <path d="M5 54C9.70372 42.4216 14.7296 32.7484 25.1111 25.1111C33.7099 18.7853 43.1704 15.5496 53 12" stroke="#FF6A3D" stroke-width="3" stroke-linecap="round"/>
      <path d="M5.125 54.125L17.875 50.125" stroke="#FF6A3D" stroke-width="3" stroke-linecap="round"/>
      <path d="M77.736 15.936C77.1173 15.936 76.5093 15.8613 75.912 15.712C75.3253 15.5627 74.7707 15.3707 74.248 15.136C74.0133 16.096 73.8107 17.1467 73.64 18.288C73.5973 18.608 73.5333 18.9013 73.448 19.168C73.3627 19.424 73.2293 19.632 73.048 19.792C72.8667 19.952 72.6 20.032 72.248 20.032C71.9173 20.032 71.6987 19.904 71.592 19.648C71.4853 19.392 71.432 19.0773 71.432 18.704C71.432 18.5867 71.4747 18.2827 71.56 17.792C71.6453 17.3013 71.752 16.7093 71.88 16.016C72.008 15.312 72.1413 14.5867 72.28 13.84C71.8427 13.4027 71.624 13.0027 71.624 12.64C71.624 12.4587 71.6773 12.288 71.784 12.128C71.9013 11.9573 72.1253 11.872 72.456 11.872C72.4987 11.872 72.5573 11.888 72.632 11.92C72.7387 11.3227 72.8293 10.7893 72.904 10.32C72.9893 9.84 73.0373 9.49333 73.048 9.28C73.0693 8.87467 73.1333 8.576 73.24 8.384C73.3467 8.18133 73.48 8.048 73.64 7.984C73.8107 7.90933 73.9813 7.872 74.152 7.872C74.376 7.872 74.5467 7.92 74.664 8.016C74.7813 8.112 74.84 8.32533 74.84 8.656C74.84 8.976 74.8347 9.26933 74.824 9.536C75.3467 8.64 75.8907 8.01067 76.456 7.648C77.0213 7.27467 77.64 7.088 78.312 7.088C78.9733 7.088 79.5493 7.26933 80.04 7.632C80.5307 7.99467 80.9093 8.51733 81.176 9.2C81.4533 9.872 81.592 10.6827 81.592 11.632C81.592 13.0827 81.256 14.1653 80.584 14.88C79.9227 15.584 78.9733 15.936 77.736 15.936ZM74.792 13.248C75.1867 13.4613 75.608 13.648 76.056 13.808C76.504 13.9573 76.9627 14.032 77.432 14.032C78.1893 14.032 78.744 13.8347 79.096 13.44C79.4587 13.0453 79.64 12.3947 79.64 11.488C79.64 9.87733 79.1547 9.072 78.184 9.072C77.5653 9.072 76.9627 9.41867 76.376 10.112C75.8 10.8053 75.272 11.8507 74.792 13.248ZM83.8824 20.704C83.6157 20.704 83.3864 20.608 83.1944 20.416C83.013 20.224 82.9224 19.9467 82.9224 19.584C82.9224 19.424 82.9437 19.1627 82.9864 18.8C83.0397 18.4267 83.1037 18 83.1784 17.52C83.2637 17.04 83.3437 16.5387 83.4184 16.016C83.5037 15.4933 83.573 14.9973 83.6264 14.528C83.6904 14.0587 83.733 13.6587 83.7544 13.328C83.7757 12.9227 83.8824 12.6347 84.0744 12.464C84.2664 12.2827 84.4957 12.192 84.7624 12.192C84.9757 12.192 85.1677 12.2453 85.3384 12.352C85.5197 12.448 85.6317 12.656 85.6744 12.976C85.7277 13.2853 85.733 13.7333 85.6904 14.32C86.1597 13.4667 86.6344 12.704 87.1144 12.032C87.605 11.36 88.117 10.8267 88.6504 10.432C89.5357 9.76 90.3357 9.424 91.0504 9.424C91.4557 9.424 91.7224 9.51467 91.8504 9.696C91.9784 9.87733 92.0424 10.064 92.0424 10.256C92.0424 10.384 92.0104 10.5013 91.9464 10.608C91.893 10.7147 91.7757 10.8267 91.5944 10.944C91.413 11.0613 91.1357 11.216 90.7624 11.408C90.261 11.664 89.765 12 89.2744 12.416C88.7944 12.832 88.3144 13.3653 87.8344 14.016C87.3544 14.6667 86.869 15.4667 86.3784 16.416C85.8877 17.3653 85.381 18.496 84.8584 19.808C84.7624 20.1707 84.6237 20.4107 84.4424 20.528C84.2717 20.6453 84.085 20.704 83.8824 20.704ZM98.2601 20.4C98.1535 20.4 97.9508 20.3947 97.6521 20.384C97.3535 20.3733 96.9961 20.3573 96.5801 20.336C96.1641 20.3147 95.7321 20.2933 95.2841 20.272C94.8468 20.2507 94.4308 20.2347 94.0361 20.224C93.6415 20.2133 93.3215 20.208 93.0761 20.208C92.6921 20.208 92.3721 20.0907 92.1161 19.856C91.8708 19.6107 91.7481 19.2693 91.7481 18.832C91.7481 18.576 91.8868 18.24 92.1641 17.824C92.4521 17.3973 92.8255 16.928 93.2841 16.416C93.7428 15.8933 94.2388 15.3653 94.7721 14.832C95.3161 14.2987 95.8548 13.7973 96.3881 13.328C96.9321 12.848 97.4121 12.4373 97.8281 12.096C97.1241 12.192 96.4468 12.304 95.7961 12.432C95.1455 12.56 94.5801 12.672 94.1001 12.768C93.6308 12.864 93.3108 12.912 93.1401 12.912C92.8308 12.912 92.5855 12.8267 92.4041 12.656C92.2228 12.4747 92.1321 12.2347 92.1321 11.936C92.1321 11.808 92.2655 11.6747 92.5321 11.536C92.7988 11.3867 93.1615 11.248 93.6201 11.12C94.0788 10.992 94.5961 10.8747 95.1721 10.768C95.7588 10.6613 96.3668 10.5813 96.9961 10.528C97.6361 10.464 98.2655 10.432 98.8841 10.432C99.1828 10.432 99.4335 10.5067 99.6361 10.656C99.8495 10.7947 100.009 10.976 100.116 11.2C100.233 11.4133 100.292 11.632 100.292 11.856C100.292 11.9413 100.175 12.1173 99.9401 12.384C99.7055 12.6507 99.3961 12.9813 99.0121 13.376C98.6281 13.76 98.2015 14.1813 97.7321 14.64C97.2628 15.088 96.7935 15.5467 96.3241 16.016C95.8655 16.4747 95.4388 16.912 95.0441 17.328C94.6495 17.744 94.3295 18.1067 94.0841 18.416C94.5001 18.4053 94.9695 18.3893 95.4921 18.368C96.0148 18.3467 96.5215 18.3253 97.0121 18.304C97.5028 18.2827 97.9295 18.2667 98.2921 18.256C98.6548 18.2453 98.8841 18.24 98.9801 18.24C99.3215 18.24 99.5668 18.32 99.7161 18.48C99.8655 18.64 99.9401 18.8267 99.9401 19.04C99.9401 19.36 99.7855 19.6693 99.4761 19.968C99.1775 20.256 98.7721 20.4 98.2601 20.4ZM105.151 24.4C104.554 24.4 104.01 24.3627 103.519 24.288C103.028 24.224 102.548 24.1173 102.079 23.968C101.61 23.8187 101.103 23.6213 100.559 23.376C100.335 23.2693 100.148 23.1573 99.999 23.04C99.8497 22.9227 99.775 22.7467 99.775 22.512C99.775 22.1707 99.8817 21.9093 100.095 21.728C100.298 21.5573 100.58 21.472 100.943 21.472C101.135 21.472 101.38 21.536 101.679 21.664C101.978 21.8027 102.319 21.9573 102.703 22.128C103.098 22.3093 103.535 22.464 104.015 22.592C104.495 22.7307 105.012 22.8 105.567 22.8C106.132 22.8 106.66 22.5653 107.151 22.096C107.642 21.6267 108.036 20.9653 108.335 20.112C108.644 19.2693 108.799 18.272 108.799 17.12C108.799 16.8533 108.794 16.5653 108.783 16.256C108.772 15.936 108.762 15.6 108.751 15.248C108.367 15.9733 107.951 16.6507 107.503 17.28C107.055 17.9093 106.591 18.4213 106.111 18.816C105.642 19.2 105.167 19.392 104.687 19.392C104.1 19.392 103.674 19.2533 103.407 18.976C103.151 18.688 103.023 18.2347 103.023 17.616C103.023 17.0933 103.06 16.5227 103.135 15.904C103.22 15.2747 103.332 14.64 103.471 14C103.61 13.36 103.77 12.752 103.951 12.176C104.143 11.5893 104.346 11.0827 104.559 10.656C104.719 10.3467 104.964 10.192 105.295 10.192C105.508 10.192 105.722 10.2933 105.935 10.496C106.159 10.6987 106.271 10.9707 106.271 11.312C106.271 11.504 106.223 11.7813 106.127 12.144C106.031 12.5067 105.914 12.9173 105.775 13.376C105.647 13.824 105.514 14.2987 105.375 14.8C105.236 15.2907 105.119 15.776 105.023 16.256C104.927 16.7253 104.879 17.152 104.879 17.536C104.879 17.5787 104.911 17.6 104.975 17.6C105.103 17.6 105.274 17.4933 105.487 17.28C105.711 17.056 105.956 16.768 106.223 16.416C106.5 16.0533 106.778 15.6587 107.055 15.232C107.343 14.7947 107.62 14.3627 107.887 13.936C108.154 13.5093 108.394 13.12 108.607 12.768C108.575 12.5973 108.554 12.448 108.543 12.32C108.543 12.1813 108.543 12.064 108.543 11.968C108.543 11.5307 108.618 11.168 108.767 10.88C108.927 10.592 109.236 10.448 109.695 10.448C109.994 10.448 110.223 10.56 110.383 10.784C110.543 10.9973 110.623 11.3013 110.623 11.696C110.623 11.8667 110.596 12.064 110.543 12.288C110.49 12.5013 110.383 12.8427 110.223 13.312L110.399 12.816C110.495 13.776 110.575 14.6293 110.639 15.376C110.714 16.1227 110.751 16.864 110.751 17.6C110.751 18.9867 110.516 20.1867 110.047 21.2C109.588 22.224 108.938 23.0133 108.095 23.568C107.263 24.1227 106.282 24.4 105.151 24.4ZM122.159 21.168C121.434 21.168 120.762 21.0133 120.143 20.704C119.524 20.4053 118.959 20.0107 118.447 19.52C117.935 19.0187 117.476 18.4747 117.071 17.888C116.676 17.2907 116.34 16.704 116.063 16.128C115.935 16.7147 115.818 17.216 115.711 17.632C115.615 18.048 115.535 18.3947 115.471 18.672C115.418 18.8853 115.359 19.0933 115.295 19.296C115.242 19.4987 115.156 19.664 115.039 19.792C114.922 19.92 114.756 19.984 114.543 19.984C114.084 19.984 113.791 19.8293 113.663 19.52C113.535 19.2 113.471 18.7947 113.471 18.304C113.471 17.8667 113.54 17.2907 113.679 16.576C113.828 15.8613 114.026 15.0613 114.271 14.176C114.516 13.2907 114.799 12.3787 115.119 11.44C115.45 10.4907 115.802 9.568 116.175 8.672C116.548 7.76533 116.922 6.944 117.295 6.208C117.53 5.76 117.738 5.47733 117.919 5.36C118.1 5.232 118.314 5.168 118.559 5.168C118.804 5.168 118.991 5.232 119.119 5.36C119.247 5.488 119.311 5.65867 119.311 5.872C119.311 6.01067 119.279 6.14933 119.215 6.288C119.151 6.42667 119.082 6.59733 119.007 6.8C118.762 7.344 118.506 7.97867 118.239 8.704C117.972 9.41867 117.716 10.16 117.471 10.928C117.226 11.6853 117.007 12.4053 116.815 13.088C117.338 12.7787 117.919 12.48 118.559 12.192C119.199 11.8933 119.844 11.6267 120.495 11.392C121.156 11.1467 121.775 10.9547 122.351 10.816C122.927 10.6773 123.412 10.608 123.807 10.608C124.116 10.608 124.351 10.6987 124.511 10.88C124.671 11.0613 124.751 11.2587 124.751 11.472C124.751 11.632 124.703 11.792 124.607 11.952C124.511 12.112 124.308 12.2507 123.999 12.368C122.975 12.7093 121.956 13.056 120.943 13.408C119.94 13.76 118.826 14.176 117.599 14.656C117.855 15.1573 118.154 15.6747 118.495 16.208C118.836 16.7307 119.204 17.2213 119.599 17.68C119.994 18.128 120.399 18.496 120.815 18.784C121.231 19.0613 121.642 19.2 122.047 19.2C122.644 19.2 123.22 19.0827 123.775 18.848C124.33 18.6027 124.842 18.3093 125.311 17.968C125.78 17.616 126.191 17.2747 126.543 16.944C126.906 16.6133 127.188 16.3573 127.391 16.176C127.508 16.0587 127.62 15.9733 127.727 15.92C127.844 15.8667 127.988 15.84 128.159 15.84C128.362 15.84 128.516 15.904 128.623 16.032C128.74 16.1493 128.794 16.304 128.783 16.496C128.772 16.6773 128.682 16.8587 128.511 17.04C128.372 17.1893 128.154 17.4293 127.855 17.76C127.567 18.08 127.215 18.4373 126.799 18.832C126.394 19.216 125.94 19.5893 125.439 19.952C124.948 20.304 124.426 20.592 123.871 20.816C123.316 21.0507 122.746 21.168 122.159 21.168ZM130.923 20.8C129.963 20.8 129.205 20.5067 128.651 19.92C128.107 19.3227 127.835 18.4747 127.835 17.376C127.835 16.9493 127.877 16.4693 127.963 15.936C128.048 15.4027 128.16 14.832 128.299 14.224C127.915 14.4587 127.579 14.6453 127.291 14.784C127.013 14.912 126.816 14.9707 126.699 14.96C126.443 14.9387 126.251 14.8533 126.123 14.704C125.995 14.544 125.931 14.3787 125.931 14.208C125.931 13.8667 126.101 13.6 126.443 13.408C126.805 13.1947 127.2 12.9547 127.627 12.688C128.053 12.4213 128.501 12.1387 128.971 11.84C129.216 11.04 129.472 10.256 129.739 9.488C130.016 8.70933 130.283 7.99467 130.539 7.344C130.805 6.68267 131.04 6.12267 131.243 5.664C131.435 5.26933 131.707 5.072 132.059 5.072C132.283 5.072 132.464 5.14133 132.603 5.28C132.752 5.41867 132.827 5.64267 132.827 5.952C132.827 6.09067 132.757 6.384 132.619 6.832C132.491 7.26933 132.32 7.81333 132.107 8.464C131.893 9.11467 131.669 9.81333 131.435 10.56C131.68 10.4 131.925 10.24 132.171 10.08C132.427 9.90933 132.677 9.744 132.923 9.584C132.944 9.57333 132.976 9.552 133.019 9.52C133.147 9.43467 133.264 9.37067 133.371 9.328C133.488 9.27467 133.627 9.25333 133.787 9.264C134.181 9.296 134.379 9.51467 134.379 9.92C134.379 10.0053 134.272 10.1547 134.059 10.368C133.856 10.5813 133.579 10.832 133.227 11.12C132.875 11.408 132.48 11.7173 132.043 12.048C131.605 12.3787 131.152 12.704 130.683 13.024C130.405 13.984 130.165 14.9067 129.963 15.792C129.771 16.6667 129.675 17.4027 129.675 18C129.675 18.2133 129.733 18.384 129.851 18.512C129.979 18.64 130.144 18.704 130.347 18.704C130.88 18.704 131.413 18.5973 131.947 18.384C132.48 18.1707 132.992 17.904 133.483 17.584C133.984 17.264 134.437 16.9493 134.843 16.64C135.259 16.32 135.611 16.0533 135.899 15.84C136.187 15.6267 136.389 15.52 136.507 15.52C136.933 15.52 137.147 15.7333 137.147 16.16C137.147 16.2453 137.051 16.4213 136.859 16.688C136.677 16.944 136.421 17.248 136.091 17.6C135.76 17.952 135.387 18.3147 134.971 18.688C134.555 19.0613 134.112 19.408 133.643 19.728C133.173 20.048 132.704 20.304 132.235 20.496C131.776 20.6987 131.339 20.8 130.923 20.8ZM137.154 20.608C136.813 20.608 136.503 20.512 136.226 20.32C135.949 20.1387 135.73 19.8987 135.57 19.6C135.41 19.2907 135.33 18.96 135.33 18.608C135.33 17.9467 135.474 17.3013 135.762 16.672C136.061 16.0427 136.45 15.4453 136.93 14.88C137.41 14.3147 137.933 13.7973 138.498 13.328C139.074 12.848 139.645 12.4373 140.21 12.096C140.786 11.7547 141.309 11.488 141.778 11.296C142.258 11.104 142.631 11.008 142.898 11.008C143.207 11.008 143.458 11.0773 143.65 11.216C143.853 11.344 143.954 11.5467 143.954 11.824C143.954 11.9093 143.933 11.9787 143.89 12.032C144.029 12.064 144.141 12.144 144.226 12.272C144.311 12.4 144.354 12.592 144.354 12.848C144.354 12.9547 144.327 13.232 144.274 13.68C144.221 14.128 144.162 14.672 144.098 15.312C144.045 15.952 144.018 16.6187 144.018 17.312C144.018 17.4187 144.034 17.5147 144.066 17.6C144.098 17.6747 144.167 17.712 144.274 17.712C144.701 17.712 145.133 17.6267 145.57 17.456C146.018 17.2747 146.45 17.056 146.866 16.8C147.293 16.5333 147.677 16.272 148.018 16.016C148.37 15.7493 148.663 15.5307 148.898 15.36C149.143 15.1787 149.303 15.088 149.378 15.088C149.741 15.088 149.922 15.2693 149.922 15.632C149.922 15.728 149.805 15.9307 149.57 16.24C149.346 16.5387 149.037 16.8853 148.642 17.28C148.247 17.664 147.805 18.048 147.314 18.432C146.834 18.8053 146.333 19.1147 145.81 19.36C145.298 19.6053 144.802 19.728 144.322 19.728C143.735 19.728 143.287 19.5893 142.978 19.312C142.679 19.0347 142.466 18.6613 142.338 18.192C142.221 17.712 142.157 17.1733 142.146 16.576C141.602 17.3547 141.037 18.048 140.45 18.656C139.874 19.2533 139.303 19.728 138.738 20.08C138.173 20.432 137.645 20.608 137.154 20.608ZM142.818 12.592C141.773 13.0933 140.834 13.6693 140.002 14.32C139.17 14.96 138.509 15.632 138.018 16.336C137.538 17.04 137.298 17.7173 137.298 18.368C137.298 18.5493 137.383 18.64 137.554 18.64C137.757 18.64 138.023 18.5227 138.354 18.288C138.695 18.0533 139.063 17.744 139.458 17.36C139.853 16.9653 140.247 16.528 140.642 16.048C141.037 15.5573 141.405 15.056 141.746 14.544C142.087 14.032 142.359 13.5413 142.562 13.072C142.637 12.9013 142.722 12.7413 142.818 12.592ZM155.252 11.44C155.839 10.0427 156.356 8.60267 156.804 7.12C156.89 6.82133 157.012 6.592 157.172 6.432C157.343 6.272 157.578 6.192 157.876 6.192C158.122 6.192 158.308 6.26667 158.436 6.416C158.564 6.55467 158.628 6.74667 158.628 6.992C158.628 7.19467 158.543 7.55733 158.372 8.08C158.202 8.592 157.994 9.24267 157.748 10.032C157.503 10.8213 157.258 11.7333 157.012 12.768C156.767 13.8027 156.559 14.9387 156.388 16.176C156.218 17.4133 156.132 18.736 156.132 20.144C156.132 20.528 156.058 20.8427 155.908 21.088C155.77 21.344 155.524 21.472 155.172 21.472C154.788 21.472 154.506 21.3387 154.324 21.072C154.154 20.8053 154.068 20.464 154.068 20.048C154.068 19.2267 154.095 18.544 154.148 18C154.212 17.4453 154.276 16.9707 154.34 16.576C153.818 17.472 153.263 18.2453 152.676 18.896C152.1 19.536 151.546 20.0267 151.012 20.368C150.479 20.72 150.02 20.896 149.636 20.896C149.007 20.896 148.495 20.72 148.1 20.368C147.706 20.016 147.508 19.4827 147.508 18.768C147.508 18.2133 147.642 17.6427 147.908 17.056C148.175 16.4587 148.527 15.872 148.964 15.296C149.402 14.72 149.882 14.1813 150.404 13.68C150.938 13.168 151.471 12.72 152.004 12.336C152.538 11.9413 153.034 11.632 153.492 11.408C153.951 11.184 154.324 11.072 154.612 11.072C154.932 11.072 155.146 11.1947 155.252 11.44ZM154.884 12.304C154.82 12.3467 154.751 12.3893 154.676 12.432C154.612 12.464 154.548 12.5013 154.484 12.544C154.079 12.8 153.647 13.1093 153.188 13.472C152.73 13.824 152.276 14.2187 151.828 14.656C151.38 15.0827 150.97 15.5307 150.596 16C150.234 16.4587 149.94 16.9173 149.716 17.376C149.503 17.824 149.396 18.256 149.396 18.672C149.396 18.7467 149.428 18.8 149.492 18.832C149.556 18.864 149.615 18.88 149.668 18.88C150.042 18.88 150.442 18.7147 150.868 18.384C151.306 18.0533 151.748 17.5947 152.196 17.008C152.655 16.4107 153.108 15.712 153.556 14.912C154.015 14.112 154.458 13.2427 154.884 12.304ZM161.879 20.528C161.122 20.528 160.514 20.2613 160.055 19.728C159.597 19.184 159.367 18.4587 159.367 17.552C159.367 17.264 159.405 16.9707 159.479 16.672C159.565 16.3733 159.666 16.096 159.783 15.84C159.719 15.744 159.666 15.6213 159.623 15.472C159.591 15.312 159.575 15.1253 159.575 14.912C159.575 14.2187 159.698 13.584 159.943 13.008C160.189 12.4213 160.519 11.9147 160.935 11.488C161.351 11.0613 161.81 10.7307 162.311 10.496C162.813 10.2613 163.319 10.144 163.831 10.144C164.706 10.144 165.421 10.4373 165.975 11.024C166.541 11.6107 166.823 12.5227 166.823 13.76C166.823 14.3787 166.727 15.008 166.535 15.648C166.343 16.288 166.082 16.9013 165.751 17.488C165.431 18.064 165.058 18.5813 164.631 19.04C164.215 19.4987 163.767 19.8613 163.287 20.128C162.818 20.3947 162.349 20.528 161.879 20.528ZM161.623 15.12C161.677 15.2373 161.703 15.376 161.703 15.536C161.703 15.696 161.671 15.8613 161.607 16.032C161.543 16.2027 161.479 16.432 161.415 16.72C161.351 16.9973 161.319 17.3973 161.319 17.92C161.319 18.0587 161.335 18.176 161.367 18.272C161.41 18.3573 161.501 18.4 161.639 18.4C162.002 18.4 162.343 18.2827 162.663 18.048C162.994 17.8133 163.287 17.504 163.543 17.12C163.81 16.736 164.034 16.3093 164.215 15.84C164.407 15.36 164.551 14.8747 164.647 14.384C164.754 13.8827 164.807 13.4187 164.807 12.992C164.807 12.7147 164.754 12.5227 164.647 12.416C164.541 12.3093 164.354 12.256 164.087 12.256C163.725 12.256 163.351 12.3733 162.967 12.608C162.594 12.832 162.279 13.1413 162.023 13.536C161.767 13.92 161.639 14.3573 161.639 14.848C161.639 14.944 161.634 15.0347 161.623 15.12ZM170.78 20.704C170.556 20.704 170.343 20.656 170.14 20.56C169.937 20.464 169.756 20.2773 169.596 20C169.436 19.7333 169.308 19.3387 169.212 18.816C169.116 18.2827 169.068 17.5787 169.068 16.704C169.068 15.8827 169.111 15.0987 169.196 14.352C169.281 13.5947 169.404 12.9227 169.564 12.336C169.724 11.7387 169.916 11.2693 170.14 10.928C170.364 10.576 170.615 10.4 170.892 10.4C171.137 10.4 171.34 10.5173 171.5 10.752C171.66 10.9867 171.74 11.3227 171.74 11.76C171.74 12.1013 171.697 12.5493 171.612 13.104C171.537 13.6587 171.447 14.256 171.34 14.896C171.233 15.5253 171.137 16.1387 171.052 16.736C170.977 17.3227 170.94 17.824 170.94 18.24C170.94 18.3147 170.951 18.3893 170.972 18.464C170.993 18.528 171.025 18.56 171.068 18.56C171.132 18.56 171.239 18.4053 171.388 18.096C171.537 17.7867 171.719 17.3813 171.932 16.88C172.156 16.368 172.396 15.8133 172.652 15.216C172.919 14.6187 173.196 14.032 173.484 13.456C173.783 12.8693 174.081 12.3467 174.38 11.888C174.636 11.4933 174.94 11.1893 175.292 10.976C175.644 10.7627 175.969 10.656 176.268 10.656C176.535 10.656 176.796 10.7253 177.052 10.864C177.319 11.0027 177.537 11.2107 177.708 11.488C177.879 11.7653 177.964 12.112 177.964 12.528C177.964 12.688 177.943 12.9547 177.9 13.328C177.868 13.6907 177.825 14.1067 177.772 14.576C177.719 15.0347 177.665 15.4987 177.612 15.968C177.559 16.4267 177.511 16.8373 177.468 17.2C177.436 17.5627 177.42 17.8187 177.42 17.968C177.42 17.9893 177.42 18.016 177.42 18.048C177.42 18.1653 177.425 18.2827 177.436 18.4C177.447 18.5067 177.479 18.56 177.532 18.56C177.649 18.56 177.799 18.4267 177.98 18.16C178.172 17.8827 178.385 17.5147 178.62 17.056C178.865 16.5973 179.121 16.0853 179.388 15.52C179.655 14.9547 179.927 14.3733 180.204 13.776C180.492 13.168 180.775 12.592 181.052 12.048C181.265 11.5893 181.447 11.3013 181.596 11.184C181.745 11.056 181.889 10.992 182.028 10.992C182.22 10.992 182.423 11.088 182.636 11.28C182.849 11.472 182.956 11.7707 182.956 12.176C182.956 12.3147 182.951 12.4533 182.94 12.592C182.929 12.7307 182.892 12.8747 182.828 13.024C182.401 14.1013 181.959 15.0987 181.5 16.016C181.052 16.9227 180.604 17.712 180.156 18.384C179.708 19.056 179.276 19.5787 178.86 19.952C178.444 20.3253 178.055 20.512 177.692 20.512C176.945 20.512 176.369 20.3147 175.964 19.92C175.569 19.5147 175.372 18.9707 175.372 18.288C175.372 18.032 175.388 17.7067 175.42 17.312C175.452 16.9067 175.489 16.4693 175.532 16C175.585 15.52 175.639 15.0453 175.692 14.576C175.745 14.1067 175.799 13.6747 175.852 13.28C175.873 13.1307 175.847 13.0347 175.772 12.992C175.708 12.9493 175.649 12.9973 175.596 13.136C175.457 13.4987 175.308 13.8933 175.148 14.32C174.988 14.7467 174.839 15.12 174.7 15.44C174.476 15.9733 174.215 16.544 173.916 17.152C173.628 17.76 173.313 18.336 172.972 18.88C172.631 19.4133 172.273 19.8507 171.9 20.192C171.527 20.5333 171.153 20.704 170.78 20.704ZM186.885 24.4C186.288 24.4 185.744 24.3627 185.253 24.288C184.763 24.224 184.283 24.1173 183.813 23.968C183.344 23.8187 182.837 23.6213 182.293 23.376C182.069 23.2693 181.883 23.1573 181.733 23.04C181.584 22.9227 181.509 22.7467 181.509 22.512C181.509 22.1707 181.616 21.9093 181.829 21.728C182.032 21.5573 182.315 21.472 182.677 21.472C182.869 21.472 183.115 21.536 183.413 21.664C183.712 21.8027 184.053 21.9573 184.437 22.128C184.832 22.3093 185.269 22.464 185.749 22.592C186.229 22.7307 186.747 22.8 187.301 22.8C187.867 22.8 188.395 22.5653 188.885 22.096C189.376 21.6267 189.771 20.9653 190.069 20.112C190.379 19.2693 190.533 18.272 190.533 17.12C190.533 16.8533 190.528 16.5653 190.517 16.256C190.507 15.936 190.496 15.6 190.485 15.248C190.101 15.9733 189.685 16.6507 189.237 17.28C188.789 17.9093 188.325 18.4213 187.845 18.816C187.376 19.2 186.901 19.392 186.421 19.392C185.835 19.392 185.408 19.2533 185.141 18.976C184.885 18.688 184.757 18.2347 184.757 17.616C184.757 17.0933 184.795 16.5227 184.869 15.904C184.955 15.2747 185.067 14.64 185.205 14C185.344 13.36 185.504 12.752 185.685 12.176C185.877 11.5893 186.08 11.0827 186.293 10.656C186.453 10.3467 186.699 10.192 187.029 10.192C187.243 10.192 187.456 10.2933 187.669 10.496C187.893 10.6987 188.005 10.9707 188.005 11.312C188.005 11.504 187.957 11.7813 187.861 12.144C187.765 12.5067 187.648 12.9173 187.509 13.376C187.381 13.824 187.248 14.2987 187.109 14.8C186.971 15.2907 186.853 15.776 186.757 16.256C186.661 16.7253 186.613 17.152 186.613 17.536C186.613 17.5787 186.645 17.6 186.709 17.6C186.837 17.6 187.008 17.4933 187.221 17.28C187.445 17.056 187.691 16.768 187.957 16.416C188.235 16.0533 188.512 15.6587 188.789 15.232C189.077 14.7947 189.355 14.3627 189.621 13.936C189.888 13.5093 190.128 13.12 190.341 12.768C190.309 12.5973 190.288 12.448 190.277 12.32C190.277 12.1813 190.277 12.064 190.277 11.968C190.277 11.5307 190.352 11.168 190.501 10.88C190.661 10.592 190.971 10.448 191.429 10.448C191.728 10.448 191.957 10.56 192.117 10.784C192.277 10.9973 192.357 11.3013 192.357 11.696C192.357 11.8667 192.331 12.064 192.277 12.288C192.224 12.5013 192.117 12.8427 191.957 13.312L192.133 12.816C192.229 13.776 192.309 14.6293 192.373 15.376C192.448 16.1227 192.485 16.864 192.485 17.6C192.485 18.9867 192.251 20.1867 191.781 21.2C191.323 22.224 190.672 23.0133 189.829 23.568C188.997 24.1227 188.016 24.4 186.885 24.4ZM84.696 48.632C84.632 49.208 84.2907 49.496 83.672 49.496C83.352 49.496 83.096 49.4 82.904 49.208C82.7227 49.016 82.632 48.7387 82.632 48.376C82.632 47.7573 82.6587 47.096 82.712 46.392C82.776 45.6773 82.8507 44.9573 82.936 44.232C83.032 43.5067 83.1227 42.8133 83.208 42.152C82.824 42.7067 82.4187 43.2773 81.992 43.864C81.5653 44.4507 81.1387 45.0213 80.712 45.576C80.2853 46.1307 79.8747 46.632 79.48 47.08C79.096 47.5173 78.744 47.8693 78.424 48.136C78.104 48.392 77.8373 48.52 77.624 48.52C77.112 48.52 76.6693 48.3333 76.296 47.96C75.9227 47.576 75.736 47.0907 75.736 46.504C75.736 46.3013 75.7573 46.0293 75.8 45.688C75.8427 45.336 75.896 44.9627 75.96 44.568C76.024 44.1733 76.0773 43.8 76.12 43.448C76.1627 43.096 76.184 42.8187 76.184 42.616C76.184 42.616 76.184 42.6053 76.184 42.584C76.1947 42.5307 76.184 42.504 76.152 42.504C76.1093 42.504 75.992 42.648 75.8 42.936C75.608 43.2133 75.3733 43.576 75.096 44.024C74.8187 44.472 74.5253 44.9413 74.216 45.432C73.9173 45.9227 73.6347 46.3813 73.368 46.808C73.112 47.2347 72.8987 47.5653 72.728 47.8C72.4933 48.1627 72.2747 48.392 72.072 48.488C71.8693 48.584 71.6347 48.632 71.368 48.632C70.9947 48.632 70.7013 48.5093 70.488 48.264C70.2853 48.008 70.184 47.6507 70.184 47.192C70.184 47 70.216 46.7013 70.28 46.296C70.3547 45.8907 70.4453 45.4427 70.552 44.952C70.6587 44.4507 70.7653 43.9653 70.872 43.496C70.9893 43.016 71.0907 42.6107 71.176 42.28C71.272 41.8427 71.4053 41.5387 71.576 41.368C71.7573 41.1867 71.9867 41.096 72.264 41.096C72.9147 41.096 73.24 41.416 73.24 42.056C73.24 42.1733 73.2027 42.3653 73.128 42.632C73.0533 42.8987 72.9627 43.208 72.856 43.56C72.7493 43.912 72.6373 44.2747 72.52 44.648C72.4027 45.0107 72.3067 45.352 72.232 45.672C72.488 45.224 72.7653 44.744 73.064 44.232C73.3627 43.72 73.6667 43.2187 73.976 42.728C74.296 42.2373 74.6107 41.7893 74.92 41.384C75.24 40.9787 75.5547 40.6587 75.864 40.424C76.1733 40.1787 76.4667 40.056 76.744 40.056C77.0213 40.056 77.2933 40.1573 77.56 40.36C77.8267 40.552 78.0453 40.8027 78.216 41.112C78.3973 41.4107 78.488 41.7307 78.488 42.072C78.488 42.392 78.4453 42.776 78.36 43.224C78.2747 43.672 78.1787 44.1413 78.072 44.632C77.9653 45.1227 77.8907 45.6027 77.848 46.072C78.2107 45.6667 78.5947 45.208 79 44.696C79.4053 44.1733 79.8213 43.6347 80.248 43.08C80.6747 42.5253 81.0907 41.9867 81.496 41.464C81.912 40.9413 82.296 40.4667 82.648 40.04C83.0107 39.6133 83.3307 39.2773 83.608 39.032C83.8853 38.776 84.0987 38.648 84.248 38.648C84.6853 38.648 85.0267 38.7653 85.272 39C85.528 39.224 85.656 39.6187 85.656 40.184C85.656 40.536 85.6293 40.9947 85.576 41.56C85.5333 42.1253 85.4693 42.7387 85.384 43.4C85.3093 44.0507 85.224 44.712 85.128 45.384C85.0427 46.0453 84.9627 46.6587 84.888 47.224C84.8133 47.7893 84.7493 48.2587 84.696 48.632ZM90.2291 49.544C89.5678 49.544 89.0345 49.3147 88.6291 48.856C88.2238 48.3867 88.0211 47.6347 88.0211 46.6C88.0211 45.9387 88.0958 45.2773 88.2451 44.616C88.4051 43.944 88.6238 43.3093 88.9011 42.712C89.1891 42.104 89.5198 41.5653 89.8931 41.096C90.2771 40.6267 90.6985 40.2587 91.1571 39.992C91.6158 39.7147 92.0905 39.576 92.5811 39.576C93.4131 39.576 94.0638 39.8 94.5331 40.248C95.0025 40.696 95.2371 41.2667 95.2371 41.96C95.2371 42.4933 95.0878 42.9787 94.7891 43.416C94.5011 43.8427 94.1065 44.2267 93.6051 44.568C93.1038 44.9093 92.5438 45.2187 91.9251 45.496C91.3065 45.7733 90.6718 46.024 90.0211 46.248C89.9678 46.632 89.9411 46.9733 89.9411 47.272C89.9411 47.4533 90.0425 47.544 90.2451 47.544C90.7251 47.544 91.2371 47.4693 91.7811 47.32C92.3358 47.16 92.8958 46.9573 93.4611 46.712C94.0265 46.456 94.5705 46.1947 95.0931 45.928C95.6158 45.6507 96.0905 45.3893 96.5171 45.144C96.9545 44.888 97.3118 44.6853 97.5891 44.536C97.8771 44.376 98.0638 44.296 98.1491 44.296C98.3838 44.296 98.5545 44.3653 98.6611 44.504C98.7678 44.6427 98.8211 44.792 98.8211 44.952C98.8211 45.0267 98.6771 45.192 98.3891 45.448C98.1118 45.704 97.7278 46.008 97.2371 46.36C96.7571 46.7013 96.2131 47.0587 95.6051 47.432C95.0078 47.7947 94.3838 48.1413 93.7331 48.472C93.0931 48.792 92.4691 49.048 91.8611 49.24C91.2638 49.4427 90.7198 49.544 90.2291 49.544ZM90.2931 44.824C90.7305 44.568 91.1625 44.3013 91.5891 44.024C92.0265 43.736 92.3891 43.416 92.6771 43.064C92.9651 42.7013 93.1091 42.28 93.1091 41.8C93.1091 41.6613 93.0718 41.5707 92.9971 41.528C92.9225 41.4747 92.8158 41.448 92.6771 41.448C92.3038 41.448 91.9625 41.6133 91.6531 41.944C91.3545 42.2747 91.0878 42.7013 90.8531 43.224C90.6291 43.736 90.4425 44.2693 90.2931 44.824ZM99.249 49C98.993 49 98.737 48.9147 98.481 48.744C98.2357 48.5627 98.033 48.3067 97.873 47.976C97.713 47.6347 97.633 47.224 97.633 46.744C97.633 46.104 97.7183 45.4213 97.889 44.696C98.0703 43.9707 98.289 43.2453 98.545 42.52C98.801 41.7947 99.0517 41.112 99.297 40.472C99.4143 40.1627 99.5583 39.9547 99.729 39.848C99.8997 39.7307 100.124 39.672 100.401 39.672C101.03 39.672 101.345 39.9867 101.345 40.616C101.345 40.7227 101.297 40.9307 101.201 41.24C101.105 41.5387 100.977 41.9067 100.817 42.344C100.668 42.7813 100.508 43.256 100.337 43.768C100.177 44.2693 100.028 44.7813 99.889 45.304C99.761 45.816 99.6597 46.3013 99.585 46.76C99.8303 46.3867 100.102 45.9227 100.401 45.368C100.71 44.8027 101.036 44.2107 101.377 43.592C101.729 42.9733 102.081 42.3973 102.433 41.864C102.785 41.32 103.132 40.8773 103.473 40.536C103.814 40.1947 104.14 40.024 104.449 40.024C104.716 40.024 104.966 40.0773 105.201 40.184C105.446 40.28 105.66 40.472 105.841 40.76C106.022 41.0373 106.161 41.4373 106.257 41.96C106.364 42.4827 106.417 43.1707 106.417 44.024C106.417 44.4507 106.454 44.8667 106.529 45.272C106.614 45.6667 106.753 45.9973 106.945 46.264C107.137 46.52 107.409 46.648 107.761 46.648C108.369 46.648 108.913 46.536 109.393 46.312C109.873 46.088 110.294 45.8267 110.657 45.528C111.02 45.2293 111.324 44.968 111.569 44.744C111.718 44.5947 111.846 44.4773 111.953 44.392C112.07 44.3067 112.166 44.264 112.241 44.264C112.465 44.264 112.625 44.3227 112.721 44.44C112.828 44.5573 112.881 44.7173 112.881 44.92C112.881 45.0267 112.79 45.224 112.609 45.512C112.428 45.8 112.172 46.1307 111.841 46.504C111.521 46.8667 111.153 47.2187 110.737 47.56C110.321 47.9013 109.873 48.184 109.393 48.408C108.913 48.632 108.422 48.744 107.921 48.744C107.078 48.744 106.38 48.5947 105.825 48.296C105.281 47.9867 104.876 47.4747 104.609 46.76C104.342 46.0347 104.209 45.048 104.209 43.8C104.209 43.768 104.209 43.7147 104.209 43.64C104.209 43.3093 104.204 43.016 104.193 42.76C104.193 42.504 104.177 42.296 104.145 42.136C103.964 42.4667 103.745 42.8613 103.489 43.32C103.244 43.7787 102.977 44.2693 102.689 44.792C102.401 45.304 102.102 45.8107 101.793 46.312C101.484 46.8027 101.174 47.2507 100.865 47.656C100.566 48.0613 100.278 48.3867 100.001 48.632C99.7237 48.8773 99.473 49 99.249 49ZM123.207 40.936C123.207 41.064 123.164 41.176 123.079 41.272C122.993 41.368 122.887 41.4427 122.759 41.496C122.577 41.5707 122.263 41.6667 121.815 41.784C121.367 41.9013 120.823 42.0347 120.183 42.184C119.553 42.3333 118.876 42.488 118.151 42.648C117.425 42.7973 116.7 42.9413 115.975 43.08C115.697 44.104 115.415 45.16 115.127 46.248C114.839 47.3253 114.551 48.3867 114.263 49.432C114.156 49.8053 114.028 50.088 113.879 50.28C113.729 50.4827 113.473 50.584 113.111 50.584C112.716 50.584 112.449 50.456 112.311 50.2C112.183 49.9547 112.167 49.6187 112.263 49.192C112.54 48.0293 112.796 46.9467 113.031 45.944C113.276 44.9413 113.473 44.1307 113.623 43.512C112.983 43.6187 112.423 43.704 111.943 43.768C111.463 43.8213 111.121 43.8427 110.918 43.832C110.694 43.8107 110.508 43.72 110.358 43.56C110.209 43.4 110.14 43.2027 110.15 42.968C110.172 42.7547 110.268 42.5733 110.438 42.424C110.609 42.264 110.812 42.168 111.046 42.136C111.377 42.104 111.804 42.056 112.327 41.992C112.849 41.928 113.425 41.8533 114.055 41.768C114.193 41.224 114.353 40.664 114.535 40.088C114.716 39.5013 114.903 38.9413 115.095 38.408C115.297 37.864 115.489 37.3893 115.671 36.984C115.852 36.5787 116.017 36.2853 116.167 36.104C116.284 35.9653 116.428 35.8587 116.599 35.784C116.78 35.7093 116.956 35.672 117.127 35.672C117.351 35.672 117.532 35.752 117.671 35.912C117.809 36.072 117.879 36.2587 117.879 36.472C117.879 36.5573 117.873 36.648 117.863 36.744C117.852 36.8293 117.831 36.9147 117.799 37C117.596 37.5333 117.377 38.1787 117.143 38.936C116.919 39.6933 116.684 40.5253 116.439 41.432C117.239 41.3147 118.023 41.1973 118.791 41.08C119.569 40.952 120.273 40.8347 120.903 40.728C121.543 40.6107 122.055 40.5093 122.439 40.424C122.652 40.3493 122.833 40.3653 122.983 40.472C123.132 40.568 123.207 40.7227 123.207 40.936ZM123.458 49.528C122.7 49.528 122.092 49.2613 121.634 48.728C121.175 48.184 120.946 47.4587 120.946 46.552C120.946 46.264 120.983 45.9707 121.058 45.672C121.143 45.3733 121.244 45.096 121.362 44.84C121.298 44.744 121.244 44.6213 121.202 44.472C121.17 44.312 121.154 44.1253 121.154 43.912C121.154 43.2187 121.276 42.584 121.522 42.008C121.767 41.4213 122.098 40.9147 122.514 40.488C122.93 40.0613 123.388 39.7307 123.89 39.496C124.391 39.2613 124.898 39.144 125.41 39.144C126.284 39.144 126.999 39.4373 127.554 40.024C128.119 40.6107 128.402 41.5227 128.402 42.76C128.402 43.3787 128.306 44.008 128.114 44.648C127.922 45.288 127.66 45.9013 127.33 46.488C127.01 47.064 126.636 47.5813 126.21 48.04C125.794 48.4987 125.346 48.8613 124.866 49.128C124.396 49.3947 123.927 49.528 123.458 49.528ZM123.202 44.12C123.255 44.2373 123.282 44.376 123.282 44.536C123.282 44.696 123.25 44.8613 123.186 45.032C123.122 45.2027 123.058 45.432 122.994 45.72C122.93 45.9973 122.898 46.3973 122.898 46.92C122.898 47.0587 122.914 47.176 122.946 47.272C122.988 47.3573 123.079 47.4 123.218 47.4C123.58 47.4 123.922 47.2827 124.242 47.048C124.572 46.8133 124.866 46.504 125.122 46.12C125.388 45.736 125.612 45.3093 125.794 44.84C125.986 44.36 126.13 43.8747 126.226 43.384C126.332 42.8827 126.386 42.4187 126.386 41.992C126.386 41.7147 126.332 41.5227 126.226 41.416C126.119 41.3093 125.932 41.256 125.666 41.256C125.303 41.256 124.93 41.3733 124.546 41.608C124.172 41.832 123.858 42.1413 123.602 42.536C123.346 42.92 123.218 43.3573 123.218 43.848C123.218 43.944 123.212 44.0347 123.202 44.12ZM130.882 49.704C130.616 49.704 130.386 49.608 130.194 49.416C130.013 49.224 129.922 48.9467 129.922 48.584C129.922 48.424 129.944 48.1627 129.986 47.8C130.04 47.4267 130.104 47 130.178 46.52C130.264 46.04 130.344 45.5387 130.418 45.016C130.504 44.4933 130.573 43.9973 130.626 43.528C130.69 43.0587 130.733 42.6587 130.754 42.328C130.776 41.9227 130.882 41.6347 131.074 41.464C131.266 41.2827 131.496 41.192 131.762 41.192C131.976 41.192 132.168 41.2453 132.338 41.352C132.52 41.448 132.632 41.656 132.674 41.976C132.728 42.2853 132.733 42.7333 132.69 43.32C133.16 42.4667 133.634 41.704 134.114 41.032C134.605 40.36 135.117 39.8267 135.65 39.432C136.536 38.76 137.336 38.424 138.05 38.424C138.456 38.424 138.722 38.5147 138.85 38.696C138.978 38.8773 139.042 39.064 139.042 39.256C139.042 39.384 139.01 39.5013 138.946 39.608C138.893 39.7147 138.776 39.8267 138.594 39.944C138.413 40.0613 138.136 40.216 137.762 40.408C137.261 40.664 136.765 41 136.274 41.416C135.794 41.832 135.314 42.3653 134.834 43.016C134.354 43.6667 133.869 44.4667 133.378 45.416C132.888 46.3653 132.381 47.496 131.858 48.808C131.762 49.1707 131.624 49.4107 131.442 49.528C131.272 49.6453 131.085 49.704 130.882 49.704ZM139.045 49.24C138.746 49.24 138.479 49.1387 138.245 48.936C138.021 48.7333 137.909 48.4027 137.909 47.944C137.909 47.6987 137.941 47.352 138.005 46.904C138.079 46.456 138.175 45.9707 138.293 45.448C138.41 44.9147 138.538 44.3867 138.677 43.864C138.826 43.3413 138.97 42.8773 139.109 42.472C139.247 42.056 139.37 41.7467 139.477 41.544C139.615 41.2987 139.743 41.1493 139.861 41.096C139.989 41.032 140.111 41 140.229 41C140.442 41 140.639 41.064 140.821 41.192C141.013 41.32 141.109 41.6027 141.109 42.04C141.109 42.2107 141.077 42.488 141.013 42.872C140.949 43.2453 140.869 43.6827 140.773 44.184C140.677 44.6853 140.57 45.2027 140.453 45.736C140.346 46.2693 140.239 46.776 140.133 47.256C140.037 47.7253 139.957 48.12 139.893 48.44C139.839 48.7067 139.727 48.904 139.557 49.032C139.397 49.1707 139.226 49.24 139.045 49.24ZM140.885 39.416C140.533 39.416 140.207 39.3147 139.909 39.112C139.61 38.8987 139.461 38.5733 139.461 38.136C139.461 37.7733 139.551 37.48 139.733 37.256C139.914 37.032 140.127 36.872 140.373 36.776C140.629 36.6693 140.853 36.616 141.045 36.616C141.237 36.616 141.45 36.6587 141.685 36.744C141.919 36.8187 142.122 36.9627 142.293 37.176C142.474 37.3787 142.565 37.672 142.565 38.056C142.565 38.312 142.474 38.5467 142.293 38.76C142.111 38.9627 141.887 39.1227 141.621 39.24C141.365 39.3573 141.119 39.416 140.885 39.416ZM144.858 49C144.602 49 144.346 48.9147 144.09 48.744C143.845 48.5627 143.642 48.3067 143.482 47.976C143.322 47.6347 143.242 47.224 143.242 46.744C143.242 46.104 143.328 45.4213 143.498 44.696C143.68 43.9707 143.898 43.2453 144.154 42.52C144.41 41.7947 144.661 41.112 144.906 40.472C145.024 40.1627 145.168 39.9547 145.338 39.848C145.509 39.7307 145.733 39.672 146.01 39.672C146.64 39.672 146.954 39.9867 146.954 40.616C146.954 40.7227 146.906 40.9307 146.81 41.24C146.714 41.5387 146.586 41.9067 146.426 42.344C146.277 42.7813 146.117 43.256 145.946 43.768C145.786 44.2693 145.637 44.7813 145.498 45.304C145.37 45.816 145.269 46.3013 145.194 46.76C145.44 46.3867 145.712 45.9227 146.01 45.368C146.32 44.8027 146.645 44.2107 146.986 43.592C147.338 42.9733 147.69 42.3973 148.042 41.864C148.394 41.32 148.741 40.8773 149.082 40.536C149.424 40.1947 149.749 40.024 150.058 40.024C150.325 40.024 150.576 40.0773 150.81 40.184C151.056 40.28 151.269 40.472 151.45 40.76C151.632 41.0373 151.77 41.4373 151.866 41.96C151.973 42.4827 152.026 43.1707 152.026 44.024C152.026 44.4507 152.064 44.8667 152.138 45.272C152.224 45.6667 152.362 45.9973 152.554 46.264C152.746 46.52 153.018 46.648 153.37 46.648C153.978 46.648 154.522 46.536 155.002 46.312C155.482 46.088 155.904 45.8267 156.266 45.528C156.629 45.2293 156.933 44.968 157.178 44.744C157.328 44.5947 157.456 44.4773 157.562 44.392C157.68 44.3067 157.776 44.264 157.85 44.264C158.074 44.264 158.234 44.3227 158.33 44.44C158.437 44.5573 158.49 44.7173 158.49 44.92C158.49 45.0267 158.4 45.224 158.218 45.512C158.037 45.8 157.781 46.1307 157.45 46.504C157.13 46.8667 156.762 47.2187 156.346 47.56C155.93 47.9013 155.482 48.184 155.002 48.408C154.522 48.632 154.032 48.744 153.53 48.744C152.688 48.744 151.989 48.5947 151.434 48.296C150.89 47.9867 150.485 47.4747 150.218 46.76C149.952 46.0347 149.818 45.048 149.818 43.8C149.818 43.768 149.818 43.7147 149.818 43.64C149.818 43.3093 149.813 43.016 149.802 42.76C149.802 42.504 149.786 42.296 149.754 42.136C149.573 42.4667 149.354 42.8613 149.098 43.32C148.853 43.7787 148.586 44.2693 148.298 44.792C148.01 45.304 147.712 45.8107 147.402 46.312C147.093 46.8027 146.784 47.2507 146.474 47.656C146.176 48.0613 145.888 48.3867 145.61 48.632C145.333 48.8773 145.082 49 144.858 49ZM158.361 53.608C157.561 53.608 156.953 53.5493 156.537 53.432C156.132 53.3147 155.854 53.16 155.705 52.968C155.556 52.7867 155.481 52.6 155.481 52.408C155.481 52.1413 155.566 51.9227 155.737 51.752C155.918 51.5813 156.153 51.496 156.441 51.496C156.633 51.496 156.91 51.5227 157.273 51.576C157.636 51.6293 157.998 51.656 158.361 51.656C159.428 51.656 160.308 51.4 161.001 50.888C161.694 50.3867 162.238 49.624 162.633 48.6C163.028 47.5653 163.3 46.264 163.449 44.696C162.713 45.9013 161.897 46.8667 161.001 47.592C160.116 48.3173 159.193 48.68 158.233 48.68C157.102 48.68 156.537 48.1253 156.537 47.016C156.537 46.4827 156.681 45.9227 156.969 45.336C157.257 44.7493 157.641 44.168 158.121 43.592C158.601 43.016 159.129 42.472 159.705 41.96C160.281 41.4373 160.857 40.9787 161.433 40.584C162.02 40.1893 162.564 39.88 163.065 39.656C163.566 39.4213 163.972 39.304 164.281 39.304C164.526 39.304 164.74 39.3467 164.921 39.432C165.113 39.5173 165.262 39.688 165.369 39.944C165.476 40.1893 165.529 40.552 165.529 41.032C165.529 42.3653 165.481 43.656 165.385 44.904C165.289 46.1413 165.102 47.288 164.825 48.344C164.548 49.4 164.142 50.3227 163.609 51.112C163.086 51.9013 162.398 52.5147 161.545 52.952C160.692 53.3893 159.63 53.608 158.361 53.608ZM158.585 46.696C158.585 46.7707 158.617 46.808 158.681 46.808C158.894 46.808 159.182 46.696 159.545 46.472C159.908 46.2373 160.297 45.928 160.713 45.544C161.14 45.1493 161.556 44.712 161.961 44.232C162.366 43.7413 162.724 43.2347 163.033 42.712C163.353 42.1893 163.582 41.6827 163.721 41.192C163.166 41.512 162.59 41.8853 161.993 42.312C161.406 42.728 160.852 43.176 160.329 43.656C159.817 44.136 159.396 44.6373 159.065 45.16C158.745 45.672 158.585 46.184 158.585 46.696Z" fill="#FF6A3D"/>
      </svg>
      