<svg width="504" height="264" viewBox="0 0 504 264" fill="none" xmlns="http://www.w3.org/2000/svg">
      <path d="M464.082 247.855H74.9455C53.1037 247.855 35.3945 230.149 35.3945 208.304V0.488281H503.63V208.304C503.63 230.149 485.923 247.855 464.082 247.855Z" fill="#F8F8FB"/>
      <path d="M503.63 0.488281H35.3945V17.3771H503.63V0.488281Z" fill="#64A1F2"/>
      <path d="M458.954 12.617C461.028 12.617 462.709 10.9674 462.709 8.93252C462.709 6.89764 461.028 5.24805 458.954 5.24805C456.88 5.24805 455.199 6.89764 455.199 8.93252C455.199 10.9674 456.88 12.617 458.954 12.617Z" fill="white"/>
      <path d="M475.298 12.617C477.372 12.617 479.053 10.9674 479.053 8.93252C479.053 6.89764 477.372 5.24805 475.298 5.24805C473.224 5.24805 471.543 6.89764 471.543 8.93252C471.543 10.9674 473.224 12.617 475.298 12.617Z" fill="white"/>
      <path d="M491.64 12.617C493.714 12.617 495.395 10.9674 495.395 8.93252C495.395 6.89764 493.714 5.24805 491.64 5.24805C489.566 5.24805 487.885 6.89764 487.885 8.93252C487.885 10.9674 489.566 12.617 491.64 12.617Z" fill="white"/>
      <path d="M417.92 118.002C417.92 118.002 415.442 131.649 430.958 133.583C446.471 135.517 446.666 155.493 432.122 158.013C417.579 160.533 397.468 172.362 388.132 158.013C378.795 143.664 389.287 111.471 389.287 111.471L417.92 118.002Z" fill="#252B61"/>
      <path d="M381.058 112.87C381.058 112.87 379.618 139.825 388.422 142.368C391.776 143.335 395.72 142.67 395.72 142.67L396.687 148.477C397.282 151.882 399.655 153.424 403.633 153.061C408.896 152.576 411.543 151.691 416.009 145.743L410.805 135.25C410.805 135.25 414.416 135.828 416.437 131.495C418.458 127.162 415.281 124.71 412.251 126.297C412.248 126.3 401.274 94.8196 381.058 112.87Z" fill="#FBE9EF"/>
      <path d="M381.138 122.989C381.138 122.989 374.677 117.788 374.333 111.668C373.918 104.304 378.406 96.7605 391.884 96.8395C403.662 96.9071 428.049 104.129 414.394 125.825C414.394 125.825 410.946 125.864 410.078 129.907L407.479 121.292C407.479 121.292 391.45 121.148 384.086 111.761C384.086 111.761 380.534 116.849 381.138 122.989Z" fill="#252B61"/>
      <path d="M411.542 131.772C411.513 131.772 411.482 131.77 411.454 131.767C411.147 131.719 410.935 131.431 410.983 131.121C411.257 129.382 412.649 126.053 415.979 125.903C416.294 125.886 416.554 126.129 416.568 126.442C416.582 126.752 416.342 127.017 416.029 127.031C412.779 127.177 412.102 131.257 412.097 131.296C412.055 131.575 411.815 131.772 411.542 131.772Z" fill="black"/>
      <path d="M392.86 143.354C391.884 143.354 390.869 143.315 389.826 143.222C381.789 142.508 381.011 128.275 380.983 127.669C380.969 127.359 381.209 127.094 381.519 127.08C381.823 127.063 382.094 127.305 382.108 127.616C382.113 127.754 382.863 141.471 389.925 142.1C397.342 142.759 403.377 140.617 403.437 140.594C403.73 140.487 404.054 140.639 404.158 140.933C404.265 141.226 404.113 141.547 403.82 141.654C403.603 141.733 399.045 143.354 392.86 143.354Z" fill="black"/>
      <path d="M388.639 132.804H396.112C396.112 132.804 395.714 137.633 392.585 137.616C389.019 137.599 388.639 132.804 388.639 132.804Z" fill="white"/>
      <path d="M384.82 130.721C386.306 130.621 387.462 129.802 387.4 128.892C387.339 127.981 386.084 127.324 384.598 127.424C383.111 127.524 381.956 128.343 382.017 129.254C382.078 130.164 383.333 130.821 384.82 130.721Z" fill="#FDF9E8"/>
      <path d="M403.148 128.767C403.153 127.854 401.949 127.109 400.459 127.101C398.969 127.093 397.758 127.826 397.753 128.739C397.748 129.651 398.952 130.397 400.442 130.405C401.932 130.412 403.144 129.679 403.148 128.767Z" fill="#FDF9E8"/>
      <path d="M388.132 125.482C388.771 125.482 389.288 124.727 389.288 123.796C389.288 122.865 388.771 122.11 388.132 122.11C387.494 122.11 386.977 122.865 386.977 123.796C386.977 124.727 387.494 125.482 388.132 125.482Z" fill="black"/>
      <path d="M396.871 125.482C397.509 125.482 398.026 124.727 398.026 123.796C398.026 122.865 397.509 122.11 396.871 122.11C396.232 122.11 395.715 122.865 395.715 123.796C395.715 124.727 396.232 125.482 396.871 125.482Z" fill="black"/>
      <path d="M340.706 88.0205C340.706 88.0205 353.823 93.1511 355.83 106.13C357.047 114.001 353.464 126.523 353.464 126.523C353.464 126.523 355.559 142.095 357.961 155.412C359.568 164.312 336.006 169.865 335.617 158.431C335.087 142.913 336.359 128.163 336.359 128.163L332.595 107.258C332.601 107.255 328.685 95.3641 340.706 88.0205Z" fill="#FBE9EF"/>
      <path d="M396.682 148.477C396.682 148.477 380.746 161.473 369.871 161.312C357.698 161.132 359.826 135.214 359.826 135.214H327.701C327.701 135.214 324.448 183.774 351.462 198.332C365.901 206.112 384.73 198.932 384.73 198.932L384.262 262.769L463.344 261.374C463.344 261.374 461.751 154.476 416.007 145.74C416.001 145.743 409.097 154.961 396.682 148.477Z" fill="#252B61"/>
      <path d="M384.286 196.619C383.976 196.619 383.723 196.366 383.723 196.056C383.723 184.334 386.28 171.575 386.305 171.448C386.367 171.144 386.666 170.946 386.97 171.008C387.275 171.07 387.472 171.366 387.41 171.674C387.385 171.801 384.85 184.452 384.85 196.058C384.85 196.366 384.597 196.619 384.286 196.619Z" fill="white"/>
      <path d="M463.11 217.647H436.636C437.601 221.354 435.506 225.208 432.526 225.208L381.671 230.327C381.671 230.327 352.79 229.955 353.396 247.853H411.798H430.539H445.835C466.668 247.853 463.11 217.647 463.11 217.647Z" fill="#FBE9EF"/>
      <path d="M364.35 248.215C364.338 248.215 364.324 248.215 364.313 248.215C364.003 248.196 363.766 247.925 363.789 247.615C364.33 239.505 376.973 237.359 377.512 237.272C377.819 237.218 378.109 237.43 378.157 237.737C378.208 238.044 377.999 238.335 377.692 238.383C377.568 238.402 365.393 240.472 364.913 247.688C364.891 247.987 364.643 248.215 364.35 248.215Z" fill="#FDF9E8"/>
      <path d="M446.851 164.99C431.946 147.249 416.005 145.741 416.005 145.741L423.701 174.092L435.947 215.416L395.305 223.95L400.444 247.996H451.468C462.601 247.996 471.421 238.566 470.64 227.462C469.383 209.572 464.303 183.646 446.851 164.99Z" fill="#252B61"/>
      <path d="M399.832 245.7C399.572 245.7 399.338 245.52 399.282 245.255L394.754 224.07C394.723 223.923 394.752 223.771 394.833 223.644C394.915 223.517 395.045 223.43 395.191 223.399L435.833 214.865C435.85 214.863 435.867 214.86 435.884 214.857C436.628 214.77 454.132 212.816 457.61 221.865C457.723 222.155 457.577 222.482 457.286 222.592C456.996 222.705 456.669 222.559 456.559 222.268C453.447 214.169 436.778 215.892 436.042 215.973L395.981 224.385L400.39 245.015C400.455 245.319 400.26 245.618 399.956 245.683C399.91 245.694 399.871 245.7 399.832 245.7Z" fill="white"/>
      <path d="M437.17 211.987C436.939 211.987 436.722 211.843 436.64 211.612L428.693 189.376C428.589 189.082 428.741 188.761 429.034 188.654C429.327 188.55 429.649 188.702 429.756 188.995L437.703 211.232C437.807 211.525 437.655 211.846 437.362 211.953C437.297 211.976 437.232 211.987 437.17 211.987Z" fill="white"/>
      <path d="M423.595 170.818C423.361 170.818 423.141 170.672 423.062 170.435C420.584 163.142 422.306 158.124 424.189 155.201C426.233 152.024 428.849 150.597 428.959 150.538C429.233 150.392 429.577 150.496 429.723 150.769C429.87 151.043 429.768 151.384 429.492 151.533C429.467 151.547 426.991 152.906 425.108 155.855C422.594 159.799 422.264 164.58 424.13 170.071C424.232 170.367 424.074 170.686 423.778 170.787C423.716 170.81 423.654 170.818 423.595 170.818Z" fill="white"/>
      <path d="M349.956 78.8701H318.93V109.896H349.956V78.8701Z" fill="white"/>
      <path d="M349.958 110.464H318.929C318.619 110.464 318.365 110.211 318.365 109.9V78.8714C318.365 78.5613 318.619 78.3076 318.929 78.3076H349.955C350.105 78.3076 350.248 78.3668 350.353 78.4739C350.457 78.5811 350.519 78.722 350.519 78.8714V109.898C350.522 110.211 350.268 110.464 349.958 110.464ZM319.493 109.337H349.391V79.4352H319.493V109.337Z" fill="#FF6A3D"/>
      <path d="M349.959 110.463C349.815 110.463 349.671 110.406 349.561 110.297L318.532 79.2703C318.312 79.0504 318.312 78.6924 318.532 78.4725C318.752 78.2526 319.11 78.2526 319.33 78.4725L350.356 109.499C350.576 109.719 350.576 110.077 350.356 110.297C350.246 110.406 350.102 110.463 349.959 110.463Z" fill="#FF6A3D"/>
      <path d="M318.93 110.463C318.786 110.463 318.642 110.406 318.532 110.297C318.312 110.077 318.312 109.719 318.532 109.499L349.558 78.4725C349.778 78.2526 350.136 78.2526 350.356 78.4725C350.576 78.6924 350.576 79.0504 350.356 79.2703L319.33 110.297C319.22 110.406 319.073 110.463 318.93 110.463Z" fill="#FF6A3D"/>
      <path d="M353.677 120.076L351.292 104.484L340.168 90.7529C340.168 90.7529 334.837 93.4 340.349 106.418C345.86 119.437 353.677 120.076 353.677 120.076Z" fill="#FBE9EF"/>
      <path d="M319.732 72.4903C319.54 72.4903 319.352 72.3916 319.247 72.214L308.645 54.3724C308.487 54.1046 308.574 53.7579 308.842 53.6C309.11 53.4421 309.457 53.5295 309.615 53.7973L320.217 71.639C320.375 71.9068 320.288 72.2535 320.02 72.4114C319.929 72.4649 319.831 72.4903 319.732 72.4903Z" fill="#FF6A3D"/>
      <path d="M311.047 76.8438C310.94 76.8438 310.832 76.8127 310.737 76.7507L301.191 70.4615C300.932 70.2895 300.859 69.94 301.031 69.6806C301.203 69.4212 301.552 69.348 301.812 69.5199L311.357 75.8092C311.616 75.9811 311.689 76.3307 311.517 76.59C311.41 76.7535 311.23 76.8438 311.047 76.8438Z" fill="#FF6A3D"/>
      <path d="M312.712 247.997H240.362C238.211 247.997 236.012 246.246 235.454 244.089L225.491 205.621C224.933 203.462 226.224 201.714 228.375 201.714H300.726C302.876 201.714 305.075 203.464 305.633 205.621L315.596 244.089C316.154 246.249 314.863 247.997 312.712 247.997Z" fill="black"/>
      <path d="M340.924 247.95H241.895V244.418H344.456C344.456 246.369 342.875 247.95 340.924 247.95Z" fill="black"/>
      <path d="M310.816 239.638C310.565 239.638 310.337 239.469 310.269 239.215L301.533 205.203C301.457 204.902 301.637 204.594 301.939 204.518C302.241 204.442 302.548 204.623 302.624 204.924L311.36 238.936C311.436 239.238 311.256 239.545 310.954 239.621C310.909 239.632 310.861 239.638 310.816 239.638Z" fill="white"/>
      <path d="M231.047 215.292C230.794 215.292 230.562 215.12 230.5 214.864L228.426 206.46C228.265 205.806 228.409 205.124 228.826 204.594C229.243 204.064 229.869 203.76 230.543 203.76H245.207C245.517 203.76 245.771 204.013 245.771 204.324C245.771 204.634 245.517 204.887 245.207 204.887H230.543C230.216 204.887 229.914 205.034 229.714 205.29C229.514 205.547 229.443 205.874 229.519 206.193L231.594 214.596C231.667 214.898 231.484 215.205 231.183 215.278C231.137 215.287 231.092 215.292 231.047 215.292Z" fill="white"/>
      <path d="M270.785 226.479C269.804 226.479 268.659 226.174 267.368 225.326C263.743 222.935 261.485 225.154 261.392 225.25C261.175 225.47 260.817 225.475 260.597 225.258C260.374 225.041 260.368 224.689 260.583 224.463C260.611 224.432 263.56 221.464 267.988 224.384C271.588 226.758 273.643 224.04 273.728 223.922C273.911 223.671 274.263 223.617 274.517 223.801C274.768 223.984 274.822 224.339 274.638 224.59C274.619 224.613 273.212 226.479 270.785 226.479Z" fill="white"/>
      <path d="M503.63 247.999H35.3945V263.512H503.63V247.999Z" fill="#252B61"/>
      <path d="M78.2188 186.184C78.2188 186.184 76.9164 175.683 89.2665 177.842C102.234 180.109 107.517 197.632 107.277 208.801C107.277 208.801 96.1901 206.241 86.1459 205.948C77.2857 205.689 72.2537 204.725 68.947 201.133C64.4224 196.222 65.7389 189.138 78.2188 186.184Z" fill="#252B61"/>
      <path d="M40.3593 193.391C40.3593 193.391 41.6617 182.89 29.3115 185.049C16.344 187.316 11.0611 204.839 11.3007 216.008C11.3007 216.008 22.388 213.448 32.4322 213.155C41.2924 212.896 46.3244 211.932 49.6311 208.34C54.1528 203.43 52.8391 196.342 40.3593 193.391Z" fill="#252B61"/>
      <path d="M45.4179 157.737C45.4179 157.737 52.3753 152.978 43.0161 145.432C33.1861 137.505 19.5336 143.25 13.1992 149.46C13.1992 149.46 21.9636 155.901 28.7292 162.831C34.6943 168.942 38.5592 171.976 42.8188 172.365C48.64 172.9 51.8932 168.142 45.4179 157.737Z" fill="#252B61"/>
      <path d="M58.1971 162.278C58.1971 162.278 49.2298 164.366 51.781 153.57C54.3322 142.773 68.6783 135.381 74.1951 134.519C74.1951 134.519 70.3359 147.65 71.9878 155.069C74.9309 168.271 63.7675 173.542 58.1971 162.278Z" fill="#64A1F2"/>
      <path d="M32.551 174.048C32.551 174.048 24.4322 153.717 0.935547 173.902C0.935547 173.902 10.2637 169.648 19.8174 179.063C29.3711 188.479 43.8976 177.665 32.551 174.048Z" fill="#64A1F2"/>
      <path d="M75.5607 166.052C75.5607 166.052 78.6363 139.765 113.843 156.583C113.843 156.583 101.115 154.325 92.6694 168.203C84.2264 182.081 63.0076 173.641 75.5607 166.052Z" fill="#64A1F2"/>
      <path d="M54.9264 225.791C54.9151 225.791 54.901 225.791 54.8897 225.791C54.5796 225.772 54.3428 225.504 54.3626 225.194C55.4817 207.58 54.0384 197.824 49.8183 194.486C47.7012 192.814 44.7497 192.637 40.524 193.928C30.0569 197.127 13.7573 213.162 13.5938 213.326C13.3739 213.545 13.0159 213.543 12.796 213.32C12.5761 213.097 12.5789 212.742 12.8016 212.522C13.4782 211.854 29.4621 196.13 40.1941 192.848C44.8032 191.439 48.0846 191.678 50.5174 193.601C55.1181 197.237 56.6516 207.003 55.4902 225.264C55.4704 225.563 55.2224 225.791 54.9264 225.791Z" fill="#64A1F2"/>
      <path d="M64.5287 235.02C64.2806 235.02 64.0551 234.857 63.9846 234.606C63.6125 233.25 54.9835 201.271 62.7443 189.462C64.3342 187.04 66.5246 185.617 69.2506 185.231C78.466 183.925 88.0563 189.859 94.4809 195.069C101.393 200.673 106.225 206.669 106.273 206.729C106.467 206.971 106.428 207.326 106.186 207.521C105.943 207.715 105.588 207.676 105.393 207.433C105.204 207.199 86.3395 183.942 69.4113 186.347C67.0179 186.685 65.0925 187.943 63.6886 190.082C56.2069 201.471 64.9854 233.983 65.0728 234.31C65.1545 234.612 64.9769 234.922 64.6781 235.003C64.6302 235.012 64.5795 235.02 64.5287 235.02Z" fill="#64A1F2"/>
      <path d="M69.8162 227.419C69.616 227.419 69.4243 227.312 69.32 227.126C69.2101 226.926 58.3145 206.77 54.7315 177.621C53.1162 164.484 46.1363 155.853 33.9863 151.962C24.8639 149.042 16.0883 150.037 16.0009 150.045C15.6908 150.079 15.4117 149.862 15.3751 149.552C15.3384 149.242 15.5583 148.963 15.8684 148.926C15.9586 148.915 24.9457 147.892 34.2964 150.877C39.8132 152.639 44.3829 155.424 47.8785 159.162C52.248 163.833 54.9289 169.998 55.8507 177.48C59.4055 206.403 70.1996 226.385 70.3095 226.582C70.4589 226.855 70.3574 227.197 70.0868 227.346C69.9994 227.397 69.9064 227.419 69.8162 227.419Z" fill="#64A1F2"/>
      <path d="M61.892 229.827C61.861 229.827 61.8328 229.824 61.8018 229.818C61.4945 229.767 61.2859 229.48 61.3366 229.173C61.6242 227.399 62.0752 225.621 62.5516 223.74C64.6236 215.559 67.4624 204.357 59.5691 178.991C55.8282 166.968 59.9046 155.399 63.9837 147.81C68.387 139.62 73.746 134.174 73.7995 134.121C74.0194 133.898 74.3746 133.898 74.5973 134.118C74.8172 134.338 74.82 134.693 74.6001 134.915C74.5466 134.969 69.2863 140.32 64.9619 148.374C60.9927 155.765 57.0235 167.019 60.646 178.658C68.6351 204.328 65.7512 215.709 63.6454 224.019C63.1746 225.877 62.732 227.631 62.4501 229.356C62.4022 229.632 62.1626 229.827 61.892 229.827Z" fill="#252B61"/>
      <path d="M55.2916 229.83C55.0436 229.83 54.818 229.667 54.7476 229.416C51.3309 217.094 51.844 205.556 56.3093 194.141C59.8162 185.183 65.6234 176.404 75.1404 165.678C83.3297 156.445 93.4726 154.32 100.54 154.162C108.177 153.99 113.801 155.966 114.037 156.051C114.331 156.155 114.483 156.479 114.379 156.772C114.274 157.066 113.95 157.218 113.657 157.113C113.6 157.094 107.965 155.112 100.526 155.29C93.6953 155.45 83.8935 157.511 75.9861 166.425C61.1355 183.164 48.416 202.342 55.8357 229.114C55.9175 229.413 55.7427 229.726 55.4439 229.808C55.3903 229.822 55.3396 229.83 55.2916 229.83Z" fill="#252B61"/>
      <path d="M57.5672 232.697C57.5193 232.697 57.4714 232.692 57.4206 232.678C57.119 232.596 56.9414 232.289 57.0203 231.987C57.0739 231.781 62.3849 211.233 53.4486 191.576C48.084 179.776 37.6733 173.298 22.5041 172.322C11.1209 171.592 1.18946 174.411 1.09079 174.439C0.789156 174.524 0.479064 174.352 0.391674 174.053C0.304284 173.754 0.479063 173.441 0.77788 173.354C0.879365 173.326 10.9715 170.456 22.5464 171.192C29.3685 171.626 35.373 173.21 40.3881 175.897C46.6801 179.268 51.4189 184.385 54.4747 191.106C63.583 211.14 58.1649 232.063 58.1085 232.272C58.0436 232.531 57.8181 232.697 57.5672 232.697Z" fill="#252B61"/>
      <path d="M65.7336 247.471H52.8083C49.3296 247.471 46.2485 245.235 45.1659 241.931L37.6758 219.063H80.8492L73.3393 242.047C72.2173 245.295 69.1643 247.471 65.7336 247.471Z" fill="#FF6A3D"/>
      <mask id="mask0_6344_29498" style="mask-type:luminance" maskUnits="userSpaceOnUse" x="37" y="219" width="44" height="29">
      <path d="M65.7336 247.474H52.8083C49.3296 247.474 46.2485 245.238 45.1659 241.934L37.6758 219.066H80.8492L73.3393 242.05C72.2173 245.297 69.1643 247.474 65.7336 247.474Z" fill="white"/>
      </mask>
      <g mask="url(#mask0_6344_29498)">
      <path d="M81.8126 222.206H38.7012V225.231H81.8126V222.206Z" fill="white"/>
      </g>
      <mask id="mask1_6344_29498" style="mask-type:luminance" maskUnits="userSpaceOnUse" x="37" y="219" width="44" height="29">
      <path d="M65.7336 247.474H52.8083C49.3296 247.474 46.2485 245.238 45.1659 241.934L37.6758 219.066H80.8492L73.3393 242.05C72.2173 245.297 69.1643 247.474 65.7336 247.474Z" fill="white"/>
      </mask>
      <g mask="url(#mask1_6344_29498)">
      <path d="M80.8145 227.027H37.7031V230.052H80.8145V227.027Z" fill="white"/>
      </g>
      <path d="M211.703 248.426H74.9466C74.6365 248.426 74.3828 248.173 74.3828 247.863C74.3828 247.553 74.6365 247.299 74.9466 247.299H211.703C212.013 247.299 212.267 247.553 212.267 247.863C212.267 248.173 212.016 248.426 211.703 248.426Z" fill="black"/>
      <path d="M495.394 248.419H411.798C411.488 248.419 411.234 248.165 411.234 247.855C411.234 247.545 411.488 247.291 411.798 247.291H495.394C495.704 247.291 495.957 247.545 495.957 247.855C495.957 248.165 495.707 248.419 495.394 248.419Z" fill="black"/>
      </svg>
      