<svg width="24" height="25" viewBox="0 0 24 25" fill="none" xmlns="http://www.w3.org/2000/svg">
<path d="M13.4099 12.5L19.7099 6.21C19.8982 6.0217 20.004 5.7663 20.004 5.5C20.004 5.2337 19.8982 4.97831 19.7099 4.79C19.5216 4.6017 19.2662 4.49591 18.9999 4.49591C18.7336 4.49591 18.4782 4.6017 18.2899 4.79L11.9999 11.09L5.70994 4.79C5.52164 4.6017 5.26624 4.49591 4.99994 4.49591C4.73364 4.49591 4.47824 4.6017 4.28994 4.79C4.10164 4.97831 3.99585 5.2337 3.99585 5.5C3.99585 5.7663 4.10164 6.0217 4.28994 6.21L10.5899 12.5L4.28994 18.79C4.19621 18.883 4.12182 18.9936 4.07105 19.1154C4.02028 19.2373 3.99414 19.368 3.99414 19.5C3.99414 19.632 4.02028 19.7627 4.07105 19.8846C4.12182 20.0064 4.19621 20.117 4.28994 20.21C4.3829 20.3037 4.4935 20.3781 4.61536 20.4289C4.73722 20.4797 4.86793 20.5058 4.99994 20.5058C5.13195 20.5058 5.26266 20.4797 5.38452 20.4289C5.50638 20.3781 5.61698 20.3037 5.70994 20.21L11.9999 13.91L18.2899 20.21C18.3829 20.3037 18.4935 20.3781 18.6154 20.4289C18.7372 20.4797 18.8679 20.5058 18.9999 20.5058C19.132 20.5058 19.2627 20.4797 19.3845 20.4289C19.5064 20.3781 19.617 20.3037 19.7099 20.21C19.8037 20.117 19.8781 20.0064 19.9288 19.8846C19.9796 19.7627 20.0057 19.632 20.0057 19.5C20.0057 19.368 19.9796 19.2373 19.9288 19.1154C19.8781 18.9936 19.8037 18.883 19.7099 18.79L13.4099 12.5Z" fill="#8E9ABB"/>
</svg>
