<svg width="20" height="20" viewBox="0 0 20 20" fill="none" xmlns="http://www.w3.org/2000/svg">
<path d="M1.6665 10C1.6665 6.85734 1.6665 5.286 2.64281 4.30968C3.61913 3.33337 5.19047 3.33337 8.33317 3.33337H11.6665C14.8092 3.33337 16.3805 3.33337 17.3569 4.30968C18.3332 5.286 18.3332 6.85734 18.3332 10C18.3332 13.1427 18.3332 14.7141 17.3569 15.6904C16.3805 16.6667 14.8092 16.6667 11.6665 16.6667H8.33317C5.19047 16.6667 3.61913 16.6667 2.64281 15.6904C1.6665 14.7141 1.6665 13.1427 1.6665 10Z" stroke="#252B61" stroke-width="1.5"/>
<path d="M5 6.66663L6.79908 8.16586C8.32961 9.4413 9.09488 10.079 10 10.079C10.9051 10.079 11.6704 9.4413 13.2009 8.16586L15 6.66663" stroke="#252B61" stroke-width="1.5" stroke-linecap="round"/>
</svg>
