<svg width="20" height="21" viewBox="0 0 20 21" fill="none" xmlns="http://www.w3.org/2000/svg">
<path d="M13.75 15.5632H12.4917C12.15 15.5632 11.8667 15.2798 11.8667 14.9382C11.8667 14.5965 12.15 14.3132 12.4917 14.3132H13.75C15.9334 14.3132 17.7084 12.5382 17.7084 10.3548C17.7084 8.17148 15.9334 6.39648 13.75 6.39648H12.5C12.1584 6.39648 11.875 6.11315 11.875 5.77148C11.875 5.42982 12.15 5.14648 12.5 5.14648H13.75C16.625 5.14648 18.9584 7.47982 18.9584 10.3548C18.9584 13.2298 16.625 15.5632 13.75 15.5632Z" fill="white"/>
<path d="M7.49984 15.5632H6.24984C3.37484 15.5632 1.0415 13.2298 1.0415 10.3548C1.0415 7.47982 3.37484 5.14648 6.24984 5.14648H7.49984C7.8415 5.14648 8.12484 5.42982 8.12484 5.77148C8.12484 6.11315 7.8415 6.39648 7.49984 6.39648H6.24984C4.0665 6.39648 2.2915 8.17148 2.2915 10.3548C2.2915 12.5382 4.0665 14.3132 6.24984 14.3132H7.49984C7.8415 14.3132 8.12484 14.5965 8.12484 14.9382C8.12484 15.2798 7.8415 15.5632 7.49984 15.5632Z" fill="white"/>
<path d="M13.3332 10.9795H6.6665C6.32484 10.9795 6.0415 10.6962 6.0415 10.3545C6.0415 10.0128 6.32484 9.72949 6.6665 9.72949H13.3332C13.6748 9.72949 13.9582 10.0128 13.9582 10.3545C13.9582 10.6962 13.6748 10.9795 13.3332 10.9795Z" fill="white"/>
</svg>
