<svg width="196" height="37" viewBox="0 0 196 37" fill="#1F2839" xmlns="http://www.w3.org/2000/svg">
    <g clip-path="url(#clip0_3821_23078)">
        <path d="M17.8181 36.8547C27.6591 36.8547 35.6363 28.6048 35.6363 18.4274V5.5282C35.6363 4.06203 35.0731 2.65591 34.0706 1.61917C33.0682 0.582434 31.7085 0 30.2908 0L18.709 0V8.08408C18.709 9.92866 18.8177 11.8396 19.7532 13.4096C20.4228 14.5348 21.3187 15.4978 22.38 16.2334C23.4413 16.969 24.6431 17.4599 25.904 17.6728L26.2452 17.7299C26.3859 17.7796 26.508 17.8736 26.5945 17.9986C26.6809 18.1237 26.7274 18.2736 26.7274 18.4274C26.7274 18.5811 26.6809 18.731 26.5945 18.8561C26.508 18.9811 26.3859 19.0751 26.2452 19.1248L25.904 19.182C24.0617 19.4932 22.3606 20.395 21.0406 21.76C19.7207 23.1251 18.8487 24.8845 18.5478 26.7897L18.4925 27.1426C18.4444 27.288 18.3536 27.4143 18.2326 27.5038C18.1117 27.5932 17.9668 27.6413 17.8181 27.6413C17.6694 27.6413 17.5245 27.5932 17.4036 27.5038C17.2826 27.4143 17.1918 27.288 17.1437 27.1426L17.0884 26.7897C16.8825 25.4857 16.4078 24.2428 15.6966 23.1453C14.9853 22.0477 14.0542 21.1212 12.9662 20.4286C11.4481 19.4611 9.60036 19.3487 7.81676 19.3487H0.0213013C0.487247 29.0977 8.27647 36.8547 17.8181 36.8547Z"
              fill="#1F2839"/>
        <path d="M0 17.506H7.81684C9.60044 17.506 11.4482 17.3936 12.9663 16.4261C14.153 15.67 15.152 14.6369 15.8831 13.4096C16.8186 11.8396 16.9273 9.92866 16.9273 8.08408V0H5.34545C3.92775 0 2.56811 0.582434 1.56565 1.61917C0.56318 2.65591 0 4.06203 0 5.5282L0 17.506ZM41.3872 1.84274C41.3872 2.33146 41.1995 2.80017 40.8653 3.14575C40.5311 3.49133 40.0779 3.68547 39.6054 3.68547C39.1328 3.68547 38.6796 3.49133 38.3454 3.14575C38.0113 2.80017 37.8235 2.33146 37.8235 1.84274C37.8235 1.35401 38.0113 0.885304 38.3454 0.539725C38.6796 0.194145 39.1328 0 39.6054 0C40.0779 0 40.5311 0.194145 40.8653 0.539725C41.1995 0.885304 41.3872 1.35401 41.3872 1.84274ZM188.615 11.1522C193.596 11.1522 196 14.7502 196 18.9175V26.7445H190.787V19.8463C190.787 17.9575 190.121 16.3985 188.21 16.3985C186.299 16.3985 185.662 17.9575 185.662 19.8463V26.7436H180.449V19.8463C180.449 17.9575 179.812 16.3985 177.9 16.3985C175.989 16.3985 175.323 17.9575 175.323 19.8463V26.7436H170.111V18.9166C170.111 14.7493 172.514 11.1513 177.495 11.1513C180.218 11.1513 182.186 12.2606 183.084 14.0896C184.04 12.2606 186.125 11.1504 188.615 11.1504V11.1522ZM160.744 21.947C162.423 21.947 163.148 20.3576 163.148 18.4679V11.7511H168.36V19.1276C168.36 23.5354 165.869 27.1942 160.744 27.1942C155.618 27.1942 153.128 23.5363 153.128 19.1276V11.7511H158.34V18.4679C158.34 20.3567 159.064 21.947 160.744 21.947ZM145.463 27.2236C142.191 27.2236 140.077 26.0544 138.831 23.7759L142.596 21.5867C143.117 22.5459 143.899 23.0259 145.202 23.0259C146.274 23.0259 146.766 22.6362 146.766 22.1561C146.766 20.3272 139.121 22.1865 139.121 16.3699C139.121 13.5506 141.437 11.272 145.376 11.272C148.822 11.272 150.704 13.0106 151.545 14.6903L147.78 16.9089C147.461 16.0097 146.476 15.4698 145.492 15.4698C144.739 15.4698 144.334 15.7996 144.334 16.2492C144.334 18.1086 151.978 16.3994 151.978 22.0363C151.978 25.1847 148.996 27.2236 145.463 27.2236ZM127.251 33.641H122.039V19.2179C122.039 14.6295 125.369 11.3015 130.002 11.3015C134.52 11.3015 137.966 14.87 137.966 19.2179C137.966 24.0154 134.896 27.1942 130.292 27.1942C129.22 27.1942 128.149 26.8643 127.251 26.3539V33.641ZM130.002 22.1266C131.653 22.1266 132.753 20.8072 132.753 19.2474C132.753 17.6589 131.653 16.369 130.002 16.369C128.351 16.369 127.251 17.6589 127.251 19.2483C127.251 20.8072 128.351 22.1266 130.002 22.1266ZM116.817 10.1627C115.108 10.1627 113.69 8.6931 113.69 6.92408C113.69 5.15505 115.108 3.68547 116.817 3.68547C118.526 3.68547 119.945 5.15505 119.945 6.92408C119.945 8.6931 118.526 10.1627 116.817 10.1627ZM114.211 11.7511H119.424V26.7445H114.211V11.7511ZM104.21 27.1942C99.6918 27.1942 96.2458 23.5962 96.2458 19.2179C96.2458 14.87 99.6918 11.272 104.21 11.272C108.727 11.272 112.173 14.87 112.173 19.2179C112.173 23.5962 108.727 27.1942 104.21 27.1942ZM104.21 22.1266C105.86 22.1266 106.961 20.8072 106.961 19.2474C106.961 17.6589 105.86 16.3395 104.21 16.3395C102.559 16.3395 101.459 17.6589 101.459 19.2474C101.459 20.8072 102.559 22.1266 104.21 22.1266ZM86.403 34.0906C82.8127 34.0906 80.2059 32.4414 78.874 29.5022L83.1886 27.1039C83.6519 28.1238 84.5205 29.1733 86.3157 29.1733C88.1991 29.1733 89.4437 27.9432 89.5889 25.7845C88.894 26.4147 87.7929 26.8938 86.1429 26.8938C82.1169 26.8938 78.8731 23.6856 78.8731 19.1875C78.8731 14.8405 82.32 11.3015 86.8378 11.3015C91.4714 11.3015 94.8016 14.6304 94.8016 19.2179V25.1552C94.8016 30.5525 91.181 34.0906 86.403 34.0906ZM86.7505 21.8272C88.314 21.8272 89.5016 20.7169 89.5016 19.0677C89.5016 17.4489 88.3149 16.369 86.7505 16.369C85.2155 16.369 83.9994 17.4489 83.9994 19.0686C83.9994 20.7179 85.2155 21.8263 86.7505 21.8263V21.8272ZM70.0317 27.1942C65.5139 27.1942 62.067 23.5962 62.067 19.2179C62.067 14.87 65.5139 11.272 70.0317 11.272C74.5486 11.272 77.9955 14.87 77.9955 19.2179C77.9955 23.5962 74.5495 27.1942 70.0317 27.1942ZM70.0317 22.1266C71.6825 22.1266 72.7828 20.8072 72.7828 19.2474C72.7828 17.6589 71.6825 16.3395 70.0317 16.3395C68.3808 16.3395 67.2806 17.6589 67.2806 19.2474C67.2806 20.8072 68.3808 22.1266 70.0317 22.1266ZM52.5752 6.50485V21.6466H61.2055V26.7445H51.8509C48.5501 26.7445 47.2182 24.9451 47.2182 22.0962V6.50485H52.5752Z"
              fill="#1F2839"/>
    </g>
    <defs>
        <clipPath id="clip0_3821_23078">
            <rect width="196" height="36.8547" fill="#1F2839"/>
        </clipPath>
    </defs>
</svg>
