<svg width="20" height="20" viewBox="0 0 20 20" fill="none" xmlns="http://www.w3.org/2000/svg">
<path d="M3.3335 8.33329C3.3335 5.1906 3.3335 3.61925 4.30981 2.64294C5.28612 1.66663 6.85747 1.66663 10.0002 1.66663C13.1429 1.66663 14.7142 1.66663 15.6905 2.64294C16.6668 3.61925 16.6668 5.1906 16.6668 8.33329V11.6666C16.6668 14.8093 16.6668 16.3807 15.6905 17.357C14.7142 18.3333 13.1429 18.3333 10.0002 18.3333C6.85747 18.3333 5.28612 18.3333 4.30981 17.357C3.3335 16.3807 3.3335 14.8093 3.3335 11.6666V8.33329Z" stroke="#252B61" stroke-width="1.5"/>
<path d="M12.5 15.8334H7.5" stroke="#252B61" stroke-width="1.5" stroke-linecap="round"/>
<path d="M13.9567 1.98145L13.8866 2.08658C13.2565 3.03165 12.9415 3.50421 12.4814 3.79013C12.3899 3.84699 12.2948 3.89787 12.1967 3.94246C11.7036 4.16671 11.1357 4.16671 9.99981 4.16671C8.86396 4.16671 8.29604 4.16671 7.8029 3.94246C7.70484 3.89787 7.60977 3.84699 7.51827 3.79013C7.05814 3.50421 6.74312 3.03167 6.11306 2.08658L6.04297 1.98145" stroke="#252B61" stroke-width="1.5" stroke-linecap="round"/>
</svg>
