<svg width="18" height="19" viewBox="0 0 18 19" fill="none" xmlns="http://www.w3.org/2000/svg">
<path d="M14.5297 12.5578L15.9601 8.26668C17.2096 4.51803 17.8344 2.6437 16.845 1.65431C15.8556 0.66492 13.9813 1.28969 10.2327 2.53925L5.94155 3.96962C2.91602 4.97813 1.40326 5.48238 0.973372 6.22183C0.564418 6.92529 0.564418 7.79409 0.973371 8.49754C1.40326 9.237 2.91602 9.74125 5.94154 10.7498C6.42734 10.9117 6.67024 10.9927 6.87327 11.1286C7.07003 11.2603 7.23905 11.4293 7.37077 11.6261C7.50668 11.8291 7.58765 12.072 7.74958 12.5578C8.75809 15.5833 9.26234 17.0961 10.0018 17.526C10.7052 17.9349 11.5741 17.9349 12.2775 17.526C13.017 17.0961 13.5212 15.5833 14.5297 12.5578Z" stroke="white"/>
</svg>
