<svg width="20" height="21" viewBox="0 0 20 21" fill="none" xmlns="http://www.w3.org/2000/svg">
<path d="M14.0248 13.388C14.5831 13.0213 15.3164 13.4213 15.3164 14.088V15.163C15.3164 16.2213 14.4914 17.3546 13.4998 17.688L10.8414 18.5713C10.3748 18.7296 9.61644 18.7296 9.15811 18.5713L6.49977 17.688C5.49977 17.3546 4.68311 16.2213 4.68311 15.163V14.0796C4.68311 13.4213 5.41644 13.0213 5.96644 13.3796L7.68311 14.4963C8.34144 14.938 9.17477 15.1546 10.0081 15.1546C10.8414 15.1546 11.6748 14.938 12.3331 14.4963L14.0248 13.388Z" fill="white"/>
<path d="M16.6498 5.73828L11.6581 2.46328C10.7581 1.87161 9.27477 1.87161 8.37477 2.46328L3.35811 5.73828C1.74977 6.77995 1.74977 9.13828 3.35811 10.1883L4.69144 11.0549L8.37477 13.4549C9.27477 14.0466 10.7581 14.0466 11.6581 13.4549L15.3164 11.0549L16.4581 10.3049V12.8549C16.4581 13.1966 16.7414 13.4799 17.0831 13.4799C17.4248 13.4799 17.7081 13.1966 17.7081 12.8549V8.75495C18.0414 7.67995 17.6998 6.42995 16.6498 5.73828Z" fill="white"/>
</svg>
