<svg width="20" height="21" viewBox="0 0 20 21" fill="none" xmlns="http://www.w3.org/2000/svg">
<g clip-path="url(#clip0_4150_14162)">
<path d="M13.3334 13.8332L10 10.4999M10 10.4999L6.66669 13.8332M10 10.4999V17.9999M16.9917 15.8249C17.8045 15.3818 18.4466 14.6806 18.8166 13.8321C19.1866 12.9835 19.2635 12.0359 19.0352 11.1388C18.8069 10.2417 18.2863 9.44616 17.5556 8.87778C16.8249 8.30939 15.9257 8.00052 15 7.9999H13.95C13.6978 7.02427 13.2277 6.11852 12.575 5.35073C11.9223 4.58295 11.1041 3.97311 10.1818 3.56708C9.25949 3.16104 8.25715 2.96937 7.25013 3.00647C6.2431 3.04358 5.25758 3.30849 4.36768 3.78129C3.47777 4.2541 2.70662 4.92249 2.11221 5.73622C1.5178 6.54996 1.1156 7.48785 0.935844 8.4794C0.756086 9.47095 0.803449 10.4903 1.07437 11.461C1.3453 12.4316 1.83273 13.3281 2.50003 14.0832" stroke="#1F2839" stroke-width="1.66667" stroke-linecap="round" stroke-linejoin="round"/>
</g>
<defs>
<clipPath id="clip0_4150_14162">
<rect width="20" height="20" fill="white" transform="translate(0 0.5)"/>
</clipPath>
</defs>
</svg>
